<?xml version="1.0" encoding="UTF-8" standalone="no"?>
<!DOCTYPE svg PUBLIC "-//W3C//DTD SVG 1.1//EN"
 "http://www.w3.org/Graphics/SVG/1.1/DTD/svg11.dtd">
<!-- Generated by graphviz version 2.40.1 (20161225.0304)
 -->
<!-- Title: compactRelationshipsDiagram Pages: 1 -->
<svg width="531pt" height="399pt"
 viewBox="0.00 0.00 531.00 399.20" xmlns="http://www.w3.org/2000/svg" xmlns:xlink="http://www.w3.org/1999/xlink">
<g id="graph0" class="graph" transform="scale(1 1) rotate(0) translate(4 395.2)">
<title>compactRelationshipsDiagram</title>
<polygon fill="#ffffff" stroke="transparent" points="-4,4 -4,-395.2 527,-395.2 527,4 -4,4"/>
<text text-anchor="middle" x="72.4936" y="-7.3" font-family="Helvetica,sans-Serif" font-size="11.00" fill="#000000">Generated by SchemaSpy</text>
<!-- avatar_inputs -->
<g id="node1" class="node">
<title>avatar_inputs</title>
<g id="a_node1"><a xlink:href="../../tables/avatar_inputs.html" xlink:title="avatar_inputs" target="_top">
<polygon fill="#ffffff" stroke="transparent" points="358,-38.2 358,-143.2 515,-143.2 515,-38.2 358,-38.2"/>
<polygon fill="#f5f5f5" stroke="transparent" points="358.5,-119.7 358.5,-142.7 515.5,-142.7 515.5,-119.7 358.5,-119.7"/>
<polygon fill="none" stroke="#000000" points="358.5,-119.7 358.5,-142.7 515.5,-142.7 515.5,-119.7 358.5,-119.7"/>
<text text-anchor="start" x="363.5" y="-128.3" font-family="Helvetica,sans-Serif" font-weight="bold" font-size="11.00" fill="#000000">avatar_inputs</text>
<text text-anchor="start" x="480.5437" y="-127.8" font-family="Helvetica,sans-Serif" font-size="11.00" fill="#000000">[table]</text>
<polygon fill="none" stroke="#000000" points="358.5,-97.7 358.5,-119.7 515.5,-119.7 515.5,-97.7 358.5,-97.7"/>
<image xlink:href="../../images/primaryKeys.png" width="11px" height="12px" preserveAspectRatio="xMinYMin meet" x="363.5" y="-114.7"/>
<text text-anchor="start" x="378.5" y="-104.8" font-family="Helvetica,sans-Serif" font-size="11.00" fill="#000000">id</text>
<polygon fill="none" stroke="#000000" points="358.5,-75.7 358.5,-97.7 515.5,-97.7 515.5,-75.7 358.5,-75.7"/>
<image xlink:href="../../images/foreignKeys.png" width="11px" height="12px" preserveAspectRatio="xMinYMin meet" x="363.5" y="-92.7"/>
<text text-anchor="start" x="378.5" y="-82.8" font-family="Helvetica,sans-Serif" font-size="11.00" fill="#000000">avatar_id</text>
<polygon fill="none" stroke="#000000" points="358.5,-56.7 358.5,-75.7 515.5,-75.7 515.5,-56.7 358.5,-56.7"/>
<text text-anchor="start" x="361.5" y="-62.8" font-family="Helvetica,sans-Serif" font-size="11.00" fill="#000000">...</text>
<polygon fill="#ffffff" stroke="transparent" points="358.5,-37.7 358.5,-56.7 435.5,-56.7 435.5,-37.7 358.5,-37.7"/>
<polygon fill="none" stroke="#000000" points="358.5,-37.7 358.5,-56.7 435.5,-56.7 435.5,-37.7 358.5,-37.7"/>
<text text-anchor="start" x="361.5" y="-43.8" font-family="Helvetica,sans-Serif" font-size="11.00" fill="#000000">&lt; 1</text>
<polygon fill="#ffffff" stroke="transparent" points="435.5,-37.7 435.5,-56.7 475.5,-56.7 475.5,-37.7 435.5,-37.7"/>
<polygon fill="none" stroke="#000000" points="435.5,-37.7 435.5,-56.7 475.5,-56.7 475.5,-37.7 435.5,-37.7"/>
<text text-anchor="start" x="466.3862" y="-43.8" font-family="Helvetica,sans-Serif" font-size="11.00" fill="#000000"> &#160;</text>
<polygon fill="#ffffff" stroke="transparent" points="475.5,-37.7 475.5,-56.7 515.5,-56.7 515.5,-37.7 475.5,-37.7"/>
<polygon fill="none" stroke="#000000" points="475.5,-37.7 475.5,-56.7 515.5,-56.7 515.5,-37.7 475.5,-37.7"/>
<text text-anchor="start" x="506.3862" y="-43.8" font-family="Helvetica,sans-Serif" font-size="11.00" fill="#000000"> &#160;</text>
</a>
</g>
</g>
<!-- avatars -->
<g id="node5" class="node">
<title>avatars</title>
<g id="a_node5"><a xlink:href="../../tables/avatars.html" xlink:title="avatars" target="_top">
<polygon fill="#ffffff" stroke="transparent" points="182,-105.2 182,-210.2 295,-210.2 295,-105.2 182,-105.2"/>
<polygon fill="#f5f5f5" stroke="transparent" points="182.5,-186.7 182.5,-209.7 295.5,-209.7 295.5,-186.7 182.5,-186.7"/>
<polygon fill="none" stroke="#000000" points="182.5,-186.7 182.5,-209.7 295.5,-209.7 295.5,-186.7 182.5,-186.7"/>
<text text-anchor="start" x="187.5" y="-195.3" font-family="Helvetica,sans-Serif" font-weight="bold" font-size="11.00" fill="#000000">avatars</text>
<text text-anchor="start" x="260.5437" y="-194.8" font-family="Helvetica,sans-Serif" font-size="11.00" fill="#000000">[table]</text>
<polygon fill="none" stroke="#000000" points="182.5,-164.7 182.5,-186.7 295.5,-186.7 295.5,-164.7 182.5,-164.7"/>
<image xlink:href="../../images/primaryKeys.png" width="11px" height="12px" preserveAspectRatio="xMinYMin meet" x="187.5" y="-181.7"/>
<text text-anchor="start" x="202.5" y="-171.8" font-family="Helvetica,sans-Serif" font-size="11.00" fill="#000000">id</text>
<polygon fill="none" stroke="#000000" points="182.5,-142.7 182.5,-164.7 295.5,-164.7 295.5,-142.7 182.5,-142.7"/>
<image xlink:href="../../images/foreignKeys.png" width="11px" height="12px" preserveAspectRatio="xMinYMin meet" x="187.5" y="-159.7"/>
<text text-anchor="start" x="202.5" y="-149.8" font-family="Helvetica,sans-Serif" font-size="11.00" fill="#000000">account_id</text>
<polygon fill="none" stroke="#000000" points="182.5,-123.7 182.5,-142.7 295.5,-142.7 295.5,-123.7 182.5,-123.7"/>
<text text-anchor="start" x="185.5" y="-129.8" font-family="Helvetica,sans-Serif" font-size="11.00" fill="#000000">...</text>
<polygon fill="#ffffff" stroke="transparent" points="182.5,-104.7 182.5,-123.7 232.5,-123.7 232.5,-104.7 182.5,-104.7"/>
<polygon fill="none" stroke="#000000" points="182.5,-104.7 182.5,-123.7 232.5,-123.7 232.5,-104.7 182.5,-104.7"/>
<text text-anchor="start" x="185.5" y="-110.8" font-family="Helvetica,sans-Serif" font-size="11.00" fill="#000000">&lt; 1</text>
<polygon fill="#ffffff" stroke="transparent" points="232.5,-104.7 232.5,-123.7 259.5,-123.7 259.5,-104.7 232.5,-104.7"/>
<polygon fill="none" stroke="#000000" points="232.5,-104.7 232.5,-123.7 259.5,-123.7 259.5,-104.7 232.5,-104.7"/>
<text text-anchor="start" x="250.3862" y="-110.8" font-family="Helvetica,sans-Serif" font-size="11.00" fill="#000000"> &#160;</text>
<polygon fill="#ffffff" stroke="transparent" points="259.5,-104.7 259.5,-123.7 295.5,-123.7 295.5,-104.7 259.5,-104.7"/>
<polygon fill="none" stroke="#000000" points="259.5,-104.7 259.5,-123.7 295.5,-123.7 295.5,-104.7 259.5,-104.7"/>
<text text-anchor="start" x="276.9053" y="-110.8" font-family="Helvetica,sans-Serif" font-size="11.00" fill="#000000">2 &gt;</text>
</a>
</g>
</g>
<!-- avatar_inputs&#45;&gt;avatars -->
<g id="edge1" class="edge">
<title>avatar_inputs:w&#45;&gt;avatars:e</title>
<path fill="none" stroke="#000000" d="M344.2261,-90.2991C317.0454,-106.9496 338.0942,-175.7 295.5,-175.7"/>
<polygon fill="#000000" stroke="#000000" points="350.7428,-88.656 359.3802,-90.1907 354.6214,-87.678 358.5,-86.7 358.5,-86.7 358.5,-86.7 354.6214,-87.678 357.6198,-83.2093 350.7428,-88.656 350.7428,-88.656"/>
<ellipse fill="none" stroke="#000000" cx="347.6399" cy="-89.4384" rx="3.2" ry="3.2"/>
</g>
<!-- user_in_accounts -->
<g id="node2" class="node">
<title>user_in_accounts</title>
<g id="a_node2"><a xlink:href="../../tables/user_in_accounts.html" xlink:title="user_in_accounts" target="_top">
<polygon fill="#ffffff" stroke="transparent" points="168,-274.2 168,-379.2 309,-379.2 309,-274.2 168,-274.2"/>
<polygon fill="#f5f5f5" stroke="transparent" points="168.5,-355.7 168.5,-378.7 309.5,-378.7 309.5,-355.7 168.5,-355.7"/>
<polygon fill="none" stroke="#000000" points="168.5,-355.7 168.5,-378.7 309.5,-378.7 309.5,-355.7 168.5,-355.7"/>
<text text-anchor="start" x="173.5" y="-364.3" font-family="Helvetica,sans-Serif" font-weight="bold" font-size="11.00" fill="#000000">user_in_accounts</text>
<text text-anchor="start" x="275.0219" y="-363.8" font-family="Helvetica,sans-Serif" font-size="11.00" fill="#000000">[table]</text>
<polygon fill="none" stroke="#000000" points="168.5,-333.7 168.5,-355.7 309.5,-355.7 309.5,-333.7 168.5,-333.7"/>
<image xlink:href="../../images/primaryKeys.png" width="11px" height="12px" preserveAspectRatio="xMinYMin meet" x="173.5" y="-350.7"/>
<text text-anchor="start" x="197.5" y="-340.8" font-family="Helvetica,sans-Serif" font-size="11.00" fill="#000000">user_id</text>
<polygon fill="none" stroke="#000000" points="168.5,-311.7 168.5,-333.7 309.5,-333.7 309.5,-311.7 168.5,-311.7"/>
<image xlink:href="../../images/primaryKeys.png" width="11px" height="12px" preserveAspectRatio="xMinYMin meet" x="173.5" y="-328.7"/>
<text text-anchor="start" x="197.5" y="-318.8" font-family="Helvetica,sans-Serif" font-size="11.00" fill="#000000">account_id</text>
<polygon fill="none" stroke="#000000" points="168.5,-292.7 168.5,-311.7 309.5,-311.7 309.5,-292.7 168.5,-292.7"/>
<text text-anchor="start" x="171.5" y="-298.8" font-family="Helvetica,sans-Serif" font-size="11.00" fill="#000000">...</text>
<polygon fill="#ffffff" stroke="transparent" points="168.5,-273.7 168.5,-292.7 237.5,-292.7 237.5,-273.7 168.5,-273.7"/>
<polygon fill="none" stroke="#000000" points="168.5,-273.7 168.5,-292.7 237.5,-292.7 237.5,-273.7 168.5,-273.7"/>
<text text-anchor="start" x="171.5" y="-279.8" font-family="Helvetica,sans-Serif" font-size="11.00" fill="#000000">&lt; 2</text>
<polygon fill="#ffffff" stroke="transparent" points="237.5,-273.7 237.5,-292.7 273.5,-292.7 273.5,-273.7 237.5,-273.7"/>
<polygon fill="none" stroke="#000000" points="237.5,-273.7 237.5,-292.7 273.5,-292.7 273.5,-273.7 237.5,-273.7"/>
<text text-anchor="start" x="264.3862" y="-279.8" font-family="Helvetica,sans-Serif" font-size="11.00" fill="#000000"> &#160;</text>
<polygon fill="#ffffff" stroke="transparent" points="273.5,-273.7 273.5,-292.7 309.5,-292.7 309.5,-273.7 273.5,-273.7"/>
<polygon fill="none" stroke="#000000" points="273.5,-273.7 273.5,-292.7 309.5,-292.7 309.5,-273.7 273.5,-273.7"/>
<text text-anchor="start" x="300.3862" y="-279.8" font-family="Helvetica,sans-Serif" font-size="11.00" fill="#000000"> &#160;</text>
</a>
</g>
</g>
<!-- accounts -->
<g id="node3" class="node">
<title>accounts</title>
<g id="a_node3"><a xlink:href="../../tables/accounts.html" xlink:title="accounts" target="_top">
<polygon fill="#ffffff" stroke="transparent" points="8,-156.2 8,-261.2 119,-261.2 119,-156.2 8,-156.2"/>
<polygon fill="#f5f5f5" stroke="transparent" points="8.5,-237.7 8.5,-260.7 119.5,-260.7 119.5,-237.7 8.5,-237.7"/>
<polygon fill="none" stroke="#000000" points="8.5,-237.7 8.5,-260.7 119.5,-260.7 119.5,-237.7 8.5,-237.7"/>
<text text-anchor="start" x="13.5" y="-246.3" font-family="Helvetica,sans-Serif" font-weight="bold" font-size="11.00" fill="#000000">accounts</text>
<text text-anchor="start" x="84.5437" y="-245.8" font-family="Helvetica,sans-Serif" font-size="11.00" fill="#000000">[table]</text>
<polygon fill="none" stroke="#000000" points="8.5,-215.7 8.5,-237.7 119.5,-237.7 119.5,-215.7 8.5,-215.7"/>
<image xlink:href="../../images/primaryKeys.png" width="11px" height="12px" preserveAspectRatio="xMinYMin meet" x="13.5" y="-232.7"/>
<text text-anchor="start" x="28.5" y="-222.8" font-family="Helvetica,sans-Serif" font-size="11.00" fill="#000000">id</text>
<polygon fill="#ffffff" stroke="transparent" points="8.5,-193.7 8.5,-215.7 119.5,-215.7 119.5,-193.7 8.5,-193.7"/>
<polygon fill="none" stroke="#000000" points="8.5,-193.7 8.5,-215.7 119.5,-215.7 119.5,-193.7 8.5,-193.7"/>
<text text-anchor="start" x="28.5" y="-200.8" font-family="Helvetica,sans-Serif" font-size="11.00" fill="#000000">link</text>
<polygon fill="none" stroke="#000000" points="8.5,-174.7 8.5,-193.7 119.5,-193.7 119.5,-174.7 8.5,-174.7"/>
<text text-anchor="start" x="11.5" y="-180.8" font-family="Helvetica,sans-Serif" font-size="11.00" fill="#000000">...</text>
<polygon fill="#ffffff" stroke="transparent" points="8.5,-155.7 8.5,-174.7 53.5,-174.7 53.5,-155.7 8.5,-155.7"/>
<polygon fill="none" stroke="#000000" points="8.5,-155.7 8.5,-174.7 53.5,-174.7 53.5,-155.7 8.5,-155.7"/>
<text text-anchor="start" x="11.5" y="-161.8" font-family="Helvetica,sans-Serif" font-size="11.00" fill="#000000"> &#160;</text>
<polygon fill="#ffffff" stroke="transparent" points="53.5,-155.7 53.5,-174.7 81.5,-174.7 81.5,-155.7 53.5,-155.7"/>
<polygon fill="none" stroke="#000000" points="53.5,-155.7 53.5,-174.7 81.5,-174.7 81.5,-155.7 53.5,-155.7"/>
<text text-anchor="start" x="72.3862" y="-161.8" font-family="Helvetica,sans-Serif" font-size="11.00" fill="#000000"> &#160;</text>
<polygon fill="#ffffff" stroke="transparent" points="81.5,-155.7 81.5,-174.7 119.5,-174.7 119.5,-155.7 81.5,-155.7"/>
<polygon fill="none" stroke="#000000" points="81.5,-155.7 81.5,-174.7 119.5,-174.7 119.5,-155.7 81.5,-155.7"/>
<text text-anchor="start" x="100.9053" y="-161.8" font-family="Helvetica,sans-Serif" font-size="11.00" fill="#000000">3 &gt;</text>
</a>
</g>
</g>
<!-- user_in_accounts&#45;&gt;accounts -->
<g id="edge5" class="edge">
<title>user_in_accounts:w&#45;&gt;accounts:e</title>
<path fill="none" stroke="#000000" d="M154.6059,-318.575C130.8186,-300.2 161.4153,-226.7 119.5,-226.7"/>
<polygon fill="#000000" stroke="#000000" points="160.8308,-320.4231 167.4754,-326.1511 164.6654,-321.5615 168.5,-322.7 168.5,-322.7 168.5,-322.7 164.6654,-321.5615 169.5246,-319.2489 160.8308,-320.4231 160.8308,-320.4231"/>
<ellipse fill="none" stroke="#000000" cx="157.7632" cy="-319.5123" rx="3.2" ry="3.2"/>
</g>
<!-- users -->
<g id="node6" class="node">
<title>users</title>
<g id="a_node6"><a xlink:href="../../tables/users.html" xlink:title="users" target="_top">
<polygon fill="#ffffff" stroke="transparent" points="8,-282.2 8,-387.2 119,-387.2 119,-282.2 8,-282.2"/>
<polygon fill="#f5f5f5" stroke="transparent" points="8.5,-363.7 8.5,-386.7 119.5,-386.7 119.5,-363.7 8.5,-363.7"/>
<polygon fill="none" stroke="#000000" points="8.5,-363.7 8.5,-386.7 119.5,-386.7 119.5,-363.7 8.5,-363.7"/>
<text text-anchor="start" x="13.5" y="-372.3" font-family="Helvetica,sans-Serif" font-weight="bold" font-size="11.00" fill="#000000">users</text>
<text text-anchor="start" x="84.5437" y="-371.8" font-family="Helvetica,sans-Serif" font-size="11.00" fill="#000000">[table]</text>
<polygon fill="none" stroke="#000000" points="8.5,-341.7 8.5,-363.7 119.5,-363.7 119.5,-341.7 8.5,-341.7"/>
<image xlink:href="../../images/primaryKeys.png" width="11px" height="12px" preserveAspectRatio="xMinYMin meet" x="13.5" y="-358.7"/>
<text text-anchor="start" x="28.5" y="-348.8" font-family="Helvetica,sans-Serif" font-size="11.00" fill="#000000">id</text>
<polygon fill="#ffffff" stroke="transparent" points="8.5,-319.7 8.5,-341.7 119.5,-341.7 119.5,-319.7 8.5,-319.7"/>
<polygon fill="none" stroke="#000000" points="8.5,-319.7 8.5,-341.7 119.5,-341.7 119.5,-319.7 8.5,-319.7"/>
<text text-anchor="start" x="28.5" y="-326.8" font-family="Helvetica,sans-Serif" font-size="11.00" fill="#000000">email</text>
<polygon fill="none" stroke="#000000" points="8.5,-300.7 8.5,-319.7 119.5,-319.7 119.5,-300.7 8.5,-300.7"/>
<text text-anchor="start" x="11.5" y="-306.8" font-family="Helvetica,sans-Serif" font-size="11.00" fill="#000000">...</text>
<polygon fill="#ffffff" stroke="transparent" points="8.5,-281.7 8.5,-300.7 53.5,-300.7 53.5,-281.7 8.5,-281.7"/>
<polygon fill="none" stroke="#000000" points="8.5,-281.7 8.5,-300.7 53.5,-300.7 53.5,-281.7 8.5,-281.7"/>
<text text-anchor="start" x="11.5" y="-287.8" font-family="Helvetica,sans-Serif" font-size="11.00" fill="#000000"> &#160;</text>
<polygon fill="#ffffff" stroke="transparent" points="53.5,-281.7 53.5,-300.7 81.5,-300.7 81.5,-281.7 53.5,-281.7"/>
<polygon fill="none" stroke="#000000" points="53.5,-281.7 53.5,-300.7 81.5,-300.7 81.5,-281.7 53.5,-281.7"/>
<text text-anchor="start" x="72.3862" y="-287.8" font-family="Helvetica,sans-Serif" font-size="11.00" fill="#000000"> &#160;</text>
<polygon fill="#ffffff" stroke="transparent" points="81.5,-281.7 81.5,-300.7 119.5,-300.7 119.5,-281.7 81.5,-281.7"/>
<polygon fill="none" stroke="#000000" points="81.5,-281.7 81.5,-300.7 119.5,-300.7 119.5,-281.7 81.5,-281.7"/>
<text text-anchor="start" x="100.9053" y="-287.8" font-family="Helvetica,sans-Serif" font-size="11.00" fill="#000000">1 &gt;</text>
</a>
</g>
</g>
<!-- user_in_accounts&#45;&gt;users -->
<g id="edge6" class="edge">
<title>user_in_accounts:w&#45;&gt;users:e</title>
<path fill="none" stroke="#000000" d="M153.9118,-346.0935C142.6344,-348.3855 135.7048,-352.7 119.5,-352.7"/>
<polygon fill="#000000" stroke="#000000" points="160.5362,-345.4608 168.8423,-348.2837 164.5181,-345.0804 168.5,-344.7 168.5,-344.7 168.5,-344.7 164.5181,-345.0804 168.1577,-341.1163 160.5362,-345.4608 160.5362,-345.4608"/>
<ellipse fill="none" stroke="#000000" cx="157.3507" cy="-345.7651" rx="3.2" ry="3.2"/>
</g>
<!-- blog_posts -->
<g id="node4" class="node">
<title>blog_posts</title>
<g id="a_node4"><a xlink:href="../../tables/blog_posts.html" xlink:title="blog_posts" target="_top">
<polygon fill="#ffffff" stroke="transparent" points="374,-164.2 374,-291.2 499,-291.2 499,-164.2 374,-164.2"/>
<polygon fill="#f5f5f5" stroke="transparent" points="374.5,-267.7 374.5,-290.7 499.5,-290.7 499.5,-267.7 374.5,-267.7"/>
<polygon fill="none" stroke="#000000" points="374.5,-267.7 374.5,-290.7 499.5,-290.7 499.5,-267.7 374.5,-267.7"/>
<text text-anchor="start" x="379.5" y="-276.3" font-family="Helvetica,sans-Serif" font-weight="bold" font-size="11.00" fill="#000000">blog_posts</text>
<text text-anchor="start" x="464.5437" y="-275.8" font-family="Helvetica,sans-Serif" font-size="11.00" fill="#000000">[table]</text>
<polygon fill="none" stroke="#000000" points="374.5,-245.7 374.5,-267.7 499.5,-267.7 499.5,-245.7 374.5,-245.7"/>
<image xlink:href="../../images/primaryKeys.png" width="11px" height="12px" preserveAspectRatio="xMinYMin meet" x="379.5" y="-262.7"/>
<text text-anchor="start" x="394.5" y="-252.8" font-family="Helvetica,sans-Serif" font-size="11.00" fill="#000000">id</text>
<polygon fill="none" stroke="#000000" points="374.5,-223.7 374.5,-245.7 499.5,-245.7 499.5,-223.7 374.5,-223.7"/>
<image xlink:href="../../images/foreignKeys.png" width="11px" height="12px" preserveAspectRatio="xMinYMin meet" x="379.5" y="-240.7"/>
<text text-anchor="start" x="394.5" y="-230.8" font-family="Helvetica,sans-Serif" font-size="11.00" fill="#000000">account_id</text>
<polygon fill="none" stroke="#000000" points="374.5,-201.7 374.5,-223.7 499.5,-223.7 499.5,-201.7 374.5,-201.7"/>
<image xlink:href="../../images/foreignKeys.png" width="11px" height="12px" preserveAspectRatio="xMinYMin meet" x="379.5" y="-218.7"/>
<text text-anchor="start" x="394.5" y="-208.8" font-family="Helvetica,sans-Serif" font-size="11.00" fill="#000000">avatar_id</text>
<polygon fill="none" stroke="#000000" points="374.5,-182.7 374.5,-201.7 499.5,-201.7 499.5,-182.7 374.5,-182.7"/>
<text text-anchor="start" x="377.5" y="-188.8" font-family="Helvetica,sans-Serif" font-size="11.00" fill="#000000">...</text>
<polygon fill="#ffffff" stroke="transparent" points="374.5,-163.7 374.5,-182.7 435.5,-182.7 435.5,-163.7 374.5,-163.7"/>
<polygon fill="none" stroke="#000000" points="374.5,-163.7 374.5,-182.7 435.5,-182.7 435.5,-163.7 374.5,-163.7"/>
<text text-anchor="start" x="377.5" y="-169.8" font-family="Helvetica,sans-Serif" font-size="11.00" fill="#000000">&lt; 2</text>
<polygon fill="#ffffff" stroke="transparent" points="435.5,-163.7 435.5,-182.7 467.5,-182.7 467.5,-163.7 435.5,-163.7"/>
<polygon fill="none" stroke="#000000" points="435.5,-163.7 435.5,-182.7 467.5,-182.7 467.5,-163.7 435.5,-163.7"/>
<text text-anchor="start" x="458.3862" y="-169.8" font-family="Helvetica,sans-Serif" font-size="11.00" fill="#000000"> &#160;</text>
<polygon fill="#ffffff" stroke="transparent" points="467.5,-163.7 467.5,-182.7 499.5,-182.7 499.5,-163.7 467.5,-163.7"/>
<polygon fill="none" stroke="#000000" points="467.5,-163.7 467.5,-182.7 499.5,-182.7 499.5,-163.7 467.5,-163.7"/>
<text text-anchor="start" x="490.3862" y="-169.8" font-family="Helvetica,sans-Serif" font-size="11.00" fill="#000000"> &#160;</text>
</a>
</g>
</g>
<!-- blog_posts&#45;&gt;accounts -->
<g id="edge3" class="edge">
<title>blog_posts:w&#45;&gt;accounts:e</title>
<path fill="none" stroke="#000000" d="M360.0302,-234.655C258.466,-234.0123 227.9062,-226.7 119.5,-226.7"/>
<polygon fill="#000000" stroke="#000000" points="366.5,-234.6751 374.4888,-238.3 370.5,-234.6875 374.5,-234.7 374.5,-234.7 374.5,-234.7 370.5,-234.6875 374.5112,-231.1 366.5,-234.6751 366.5,-234.6751"/>
<ellipse fill="none" stroke="#000000" cx="363.3001" cy="-234.6651" rx="3.2" ry="3.2"/>
</g>
<!-- blog_posts&#45;&gt;avatars -->
<g id="edge4" class="edge">
<title>blog_posts:w&#45;&gt;avatars:e</title>
<path fill="none" stroke="#000000" d="M360.1495,-210.7107C334.5809,-203.0254 328.819,-175.7 295.5,-175.7"/>
<polygon fill="#000000" stroke="#000000" points="366.5758,-211.6015 374.0057,-216.2659 370.5379,-212.1507 374.5,-212.7 374.5,-212.7 374.5,-212.7 370.5379,-212.1507 374.9943,-209.1341 366.5758,-211.6015 366.5758,-211.6015"/>
<ellipse fill="none" stroke="#000000" cx="363.4061" cy="-211.1621" rx="3.2" ry="3.2"/>
</g>
<!-- avatars&#45;&gt;accounts -->
<g id="edge2" class="edge">
<title>avatars:w&#45;&gt;accounts:e</title>
<path fill="none" stroke="#000000" d="M168.264,-157.4204C144.6287,-172.2964 156.4968,-226.7 119.5,-226.7"/>
<polygon fill="#000000" stroke="#000000" points="174.76,-155.7228 183.4103,-157.183 178.63,-154.7114 182.5,-153.7 182.5,-153.7 182.5,-153.7 178.63,-154.7114 181.5897,-150.217 174.76,-155.7228 174.76,-155.7228"/>
<ellipse fill="none" stroke="#000000" cx="171.6639" cy="-156.532" rx="3.2" ry="3.2"/>
</g>
</g>
</svg>
