<?xml version="1.0" encoding="UTF-8" standalone="no"?>
<!DOCTYPE svg PUBLIC "-//W3C//DTD SVG 1.1//EN"
 "http://www.w3.org/Graphics/SVG/1.1/DTD/svg11.dtd">
<!-- Generated by graphviz version 2.40.1 (20161225.0304)
 -->
<!-- Title: largeRelationshipsDiagram Pages: 1 -->
<svg width="531pt" height="705pt"
 viewBox="0.00 0.00 531.00 705.20" xmlns="http://www.w3.org/2000/svg" xmlns:xlink="http://www.w3.org/1999/xlink">
<g id="graph0" class="graph" transform="scale(1 1) rotate(0) translate(4 701.2)">
<title>largeRelationshipsDiagram</title>
<polygon fill="#ffffff" stroke="transparent" points="-4,4 -4,-701.2 527,-701.2 527,4 -4,4"/>
<text text-anchor="middle" x="72.4936" y="-7.3" font-family="Helvetica,sans-Serif" font-size="11.00" fill="#000000">Generated by SchemaSpy</text>
<!-- avatar_inputs -->
<g id="node1" class="node">
<title>avatar_inputs</title>
<g id="a_node1"><a xlink:href="../../tables/avatar_inputs.html" xlink:title="avatar_inputs" target="_top">
<polygon fill="#ffffff" stroke="transparent" points="358,-38.2 358,-322.2 515,-322.2 515,-38.2 358,-38.2"/>
<polygon fill="#f5f5f5" stroke="transparent" points="358.5,-299.2 358.5,-322.2 515.5,-322.2 515.5,-299.2 358.5,-299.2"/>
<polygon fill="none" stroke="#000000" points="358.5,-299.2 358.5,-322.2 515.5,-322.2 515.5,-299.2 358.5,-299.2"/>
<text text-anchor="start" x="363.5" y="-307.8" font-family="Helvetica,sans-Serif" font-weight="bold" font-size="11.00" fill="#000000">avatar_inputs</text>
<text text-anchor="start" x="480.5437" y="-307.3" font-family="Helvetica,sans-Serif" font-size="11.00" fill="#000000">[table]</text>
<polygon fill="none" stroke="#000000" points="358.5,-277.2 358.5,-299.2 515.5,-299.2 515.5,-277.2 358.5,-277.2"/>
<image xlink:href="../../images/primaryKeys.png" width="11px" height="12px" preserveAspectRatio="xMinYMin meet" x="363.5" y="-294.2"/>
<text text-anchor="start" x="378.5" y="-284.3" font-family="Helvetica,sans-Serif" font-size="11.00" fill="#000000">id</text>
<polygon fill="none" stroke="#000000" points="358.5,-255.2 358.5,-277.2 515.5,-277.2 515.5,-255.2 358.5,-255.2"/>
<image xlink:href="../../images/foreignKeys.png" width="11px" height="12px" preserveAspectRatio="xMinYMin meet" x="363.5" y="-272.2"/>
<text text-anchor="start" x="378.5" y="-262.3" font-family="Helvetica,sans-Serif" font-size="11.00" fill="#000000">avatar_id</text>
<polygon fill="none" stroke="#000000" points="358.5,-233.2 358.5,-255.2 515.5,-255.2 515.5,-233.2 358.5,-233.2"/>
<text text-anchor="start" x="378.5" y="-240.3" font-family="Helvetica,sans-Serif" font-size="11.00" fill="#000000">youtube_url</text>
<polygon fill="none" stroke="#000000" points="358.5,-211.2 358.5,-233.2 515.5,-233.2 515.5,-211.2 358.5,-211.2"/>
<text text-anchor="start" x="378.5" y="-218.3" font-family="Helvetica,sans-Serif" font-size="11.00" fill="#000000">status</text>
<polygon fill="none" stroke="#000000" points="358.5,-189.2 358.5,-211.2 515.5,-211.2 515.5,-189.2 358.5,-189.2"/>
<text text-anchor="start" x="378.5" y="-196.3" font-family="Helvetica,sans-Serif" font-size="11.00" fill="#000000">filepath</text>
<polygon fill="none" stroke="#000000" points="358.5,-167.2 358.5,-189.2 515.5,-189.2 515.5,-167.2 358.5,-167.2"/>
<text text-anchor="start" x="378.5" y="-174.3" font-family="Helvetica,sans-Serif" font-size="11.00" fill="#000000">transcription</text>
<polygon fill="none" stroke="#000000" points="358.5,-145.2 358.5,-167.2 515.5,-167.2 515.5,-145.2 358.5,-145.2"/>
<text text-anchor="start" x="378.5" y="-152.3" font-family="Helvetica,sans-Serif" font-size="11.00" fill="#000000">final_text</text>
<polygon fill="none" stroke="#000000" points="358.5,-123.2 358.5,-145.2 515.5,-145.2 515.5,-123.2 358.5,-123.2"/>
<text text-anchor="start" x="378.5" y="-130.3" font-family="Helvetica,sans-Serif" font-size="11.00" fill="#000000">utc_last_modified_on</text>
<polygon fill="none" stroke="#000000" points="358.5,-101.2 358.5,-123.2 515.5,-123.2 515.5,-101.2 358.5,-101.2"/>
<text text-anchor="start" x="378.5" y="-108.3" font-family="Helvetica,sans-Serif" font-size="11.00" fill="#000000">utc_created_on</text>
<polygon fill="none" stroke="#000000" points="358.5,-79.2 358.5,-101.2 515.5,-101.2 515.5,-79.2 358.5,-79.2"/>
<text text-anchor="start" x="378.5" y="-86.3" font-family="Helvetica,sans-Serif" font-size="11.00" fill="#000000">final_title</text>
<polygon fill="none" stroke="#000000" points="358.5,-57.2 358.5,-79.2 515.5,-79.2 515.5,-57.2 358.5,-57.2"/>
<text text-anchor="start" x="378.5" y="-64.3" font-family="Helvetica,sans-Serif" font-size="11.00" fill="#000000">final_short_description</text>
<polygon fill="#ffffff" stroke="transparent" points="358.5,-38.2 358.5,-57.2 435.5,-57.2 435.5,-38.2 358.5,-38.2"/>
<polygon fill="none" stroke="#000000" points="358.5,-38.2 358.5,-57.2 435.5,-57.2 435.5,-38.2 358.5,-38.2"/>
<text text-anchor="start" x="361.5" y="-44.3" font-family="Helvetica,sans-Serif" font-size="11.00" fill="#000000">&lt; 1</text>
<polygon fill="#ffffff" stroke="transparent" points="435.5,-38.2 435.5,-57.2 475.5,-57.2 475.5,-38.2 435.5,-38.2"/>
<polygon fill="none" stroke="#000000" points="435.5,-38.2 435.5,-57.2 475.5,-57.2 475.5,-38.2 435.5,-38.2"/>
<text text-anchor="start" x="466.3862" y="-44.3" font-family="Helvetica,sans-Serif" font-size="11.00" fill="#000000"> &#160;</text>
<polygon fill="#ffffff" stroke="transparent" points="475.5,-38.2 475.5,-57.2 515.5,-57.2 515.5,-38.2 475.5,-38.2"/>
<polygon fill="none" stroke="#000000" points="475.5,-38.2 475.5,-57.2 515.5,-57.2 515.5,-38.2 475.5,-38.2"/>
<text text-anchor="start" x="506.3862" y="-44.3" font-family="Helvetica,sans-Serif" font-size="11.00" fill="#000000"> &#160;</text>
</a>
</g>
</g>
<!-- avatars -->
<g id="node5" class="node">
<title>avatars</title>
<g id="a_node5"><a xlink:href="../../tables/avatars.html" xlink:title="avatars" target="_top">
<polygon fill="#ffffff" stroke="transparent" points="182,-329.2 182,-481.2 295,-481.2 295,-329.2 182,-329.2"/>
<polygon fill="#f5f5f5" stroke="transparent" points="182.5,-458.2 182.5,-481.2 295.5,-481.2 295.5,-458.2 182.5,-458.2"/>
<polygon fill="none" stroke="#000000" points="182.5,-458.2 182.5,-481.2 295.5,-481.2 295.5,-458.2 182.5,-458.2"/>
<text text-anchor="start" x="187.5" y="-466.8" font-family="Helvetica,sans-Serif" font-weight="bold" font-size="11.00" fill="#000000">avatars</text>
<text text-anchor="start" x="260.5437" y="-466.3" font-family="Helvetica,sans-Serif" font-size="11.00" fill="#000000">[table]</text>
<polygon fill="none" stroke="#000000" points="182.5,-436.2 182.5,-458.2 295.5,-458.2 295.5,-436.2 182.5,-436.2"/>
<image xlink:href="../../images/primaryKeys.png" width="11px" height="12px" preserveAspectRatio="xMinYMin meet" x="187.5" y="-453.2"/>
<text text-anchor="start" x="202.5" y="-443.3" font-family="Helvetica,sans-Serif" font-size="11.00" fill="#000000">id</text>
<polygon fill="none" stroke="#000000" points="182.5,-414.2 182.5,-436.2 295.5,-436.2 295.5,-414.2 182.5,-414.2"/>
<image xlink:href="../../images/foreignKeys.png" width="11px" height="12px" preserveAspectRatio="xMinYMin meet" x="187.5" y="-431.2"/>
<text text-anchor="start" x="202.5" y="-421.3" font-family="Helvetica,sans-Serif" font-size="11.00" fill="#000000">account_id</text>
<polygon fill="none" stroke="#000000" points="182.5,-392.2 182.5,-414.2 295.5,-414.2 295.5,-392.2 182.5,-392.2"/>
<text text-anchor="start" x="202.5" y="-399.3" font-family="Helvetica,sans-Serif" font-size="11.00" fill="#000000">name</text>
<polygon fill="none" stroke="#000000" points="182.5,-370.2 182.5,-392.2 295.5,-392.2 295.5,-370.2 182.5,-370.2"/>
<text text-anchor="start" x="202.5" y="-377.3" font-family="Helvetica,sans-Serif" font-size="11.00" fill="#000000">system_prompt</text>
<polygon fill="none" stroke="#000000" points="182.5,-348.2 182.5,-370.2 295.5,-370.2 295.5,-348.2 182.5,-348.2"/>
<text text-anchor="start" x="202.5" y="-355.3" font-family="Helvetica,sans-Serif" font-size="11.00" fill="#000000">utc_created_on</text>
<polygon fill="#ffffff" stroke="transparent" points="182.5,-329.2 182.5,-348.2 232.5,-348.2 232.5,-329.2 182.5,-329.2"/>
<polygon fill="none" stroke="#000000" points="182.5,-329.2 182.5,-348.2 232.5,-348.2 232.5,-329.2 182.5,-329.2"/>
<text text-anchor="start" x="185.5" y="-335.3" font-family="Helvetica,sans-Serif" font-size="11.00" fill="#000000">&lt; 1</text>
<polygon fill="#ffffff" stroke="transparent" points="232.5,-329.2 232.5,-348.2 259.5,-348.2 259.5,-329.2 232.5,-329.2"/>
<polygon fill="none" stroke="#000000" points="232.5,-329.2 232.5,-348.2 259.5,-348.2 259.5,-329.2 232.5,-329.2"/>
<text text-anchor="start" x="250.3862" y="-335.3" font-family="Helvetica,sans-Serif" font-size="11.00" fill="#000000"> &#160;</text>
<polygon fill="#ffffff" stroke="transparent" points="259.5,-329.2 259.5,-348.2 295.5,-348.2 295.5,-329.2 259.5,-329.2"/>
<polygon fill="none" stroke="#000000" points="259.5,-329.2 259.5,-348.2 295.5,-348.2 295.5,-329.2 259.5,-329.2"/>
<text text-anchor="start" x="276.9053" y="-335.3" font-family="Helvetica,sans-Serif" font-size="11.00" fill="#000000">2 &gt;</text>
</a>
</g>
</g>
<!-- avatar_inputs&#45;&gt;avatars -->
<g id="edge1" class="edge">
<title>avatar_inputs:w&#45;&gt;avatars:e</title>
<path fill="none" stroke="#000000" d="M343.9653,-268.4885C286.7311,-289.4409 375.0217,-447.2 295.5,-447.2"/>
<polygon fill="#000000" stroke="#000000" points="350.5974,-267.4443 359.0599,-269.7562 354.5487,-266.8222 358.5,-266.2 358.5,-266.2 358.5,-266.2 354.5487,-266.8222 357.9401,-262.6438 350.5974,-267.4443 350.5974,-267.4443"/>
<ellipse fill="none" stroke="#000000" cx="347.4363" cy="-267.9421" rx="3.2" ry="3.2"/>
</g>
<!-- user_in_accounts -->
<g id="node2" class="node">
<title>user_in_accounts</title>
<g id="a_node2"><a xlink:href="../../tables/user_in_accounts.html" xlink:title="user_in_accounts" target="_top">
<polygon fill="#ffffff" stroke="transparent" points="168,-566.2 168,-674.2 309,-674.2 309,-566.2 168,-566.2"/>
<polygon fill="#f5f5f5" stroke="transparent" points="168.5,-651.2 168.5,-674.2 309.5,-674.2 309.5,-651.2 168.5,-651.2"/>
<polygon fill="none" stroke="#000000" points="168.5,-651.2 168.5,-674.2 309.5,-674.2 309.5,-651.2 168.5,-651.2"/>
<text text-anchor="start" x="173.5" y="-659.8" font-family="Helvetica,sans-Serif" font-weight="bold" font-size="11.00" fill="#000000">user_in_accounts</text>
<text text-anchor="start" x="275.0219" y="-659.3" font-family="Helvetica,sans-Serif" font-size="11.00" fill="#000000">[table]</text>
<polygon fill="none" stroke="#000000" points="168.5,-629.2 168.5,-651.2 309.5,-651.2 309.5,-629.2 168.5,-629.2"/>
<image xlink:href="../../images/primaryKeys.png" width="11px" height="12px" preserveAspectRatio="xMinYMin meet" x="173.5" y="-646.2"/>
<text text-anchor="start" x="197.5" y="-636.3" font-family="Helvetica,sans-Serif" font-size="11.00" fill="#000000">user_id</text>
<polygon fill="none" stroke="#000000" points="168.5,-607.2 168.5,-629.2 309.5,-629.2 309.5,-607.2 168.5,-607.2"/>
<image xlink:href="../../images/primaryKeys.png" width="11px" height="12px" preserveAspectRatio="xMinYMin meet" x="173.5" y="-624.2"/>
<text text-anchor="start" x="197.5" y="-614.3" font-family="Helvetica,sans-Serif" font-size="11.00" fill="#000000">account_id</text>
<polygon fill="none" stroke="#000000" points="168.5,-585.2 168.5,-607.2 309.5,-607.2 309.5,-585.2 168.5,-585.2"/>
<text text-anchor="start" x="197.5" y="-592.3" font-family="Helvetica,sans-Serif" font-size="11.00" fill="#000000">role</text>
<polygon fill="#ffffff" stroke="transparent" points="168.5,-566.2 168.5,-585.2 237.5,-585.2 237.5,-566.2 168.5,-566.2"/>
<polygon fill="none" stroke="#000000" points="168.5,-566.2 168.5,-585.2 237.5,-585.2 237.5,-566.2 168.5,-566.2"/>
<text text-anchor="start" x="171.5" y="-572.3" font-family="Helvetica,sans-Serif" font-size="11.00" fill="#000000">&lt; 2</text>
<polygon fill="#ffffff" stroke="transparent" points="237.5,-566.2 237.5,-585.2 273.5,-585.2 273.5,-566.2 237.5,-566.2"/>
<polygon fill="none" stroke="#000000" points="237.5,-566.2 237.5,-585.2 273.5,-585.2 273.5,-566.2 237.5,-566.2"/>
<text text-anchor="start" x="264.3862" y="-572.3" font-family="Helvetica,sans-Serif" font-size="11.00" fill="#000000"> &#160;</text>
<polygon fill="#ffffff" stroke="transparent" points="273.5,-566.2 273.5,-585.2 309.5,-585.2 309.5,-566.2 273.5,-566.2"/>
<polygon fill="none" stroke="#000000" points="273.5,-566.2 273.5,-585.2 309.5,-585.2 309.5,-566.2 273.5,-566.2"/>
<text text-anchor="start" x="300.3862" y="-572.3" font-family="Helvetica,sans-Serif" font-size="11.00" fill="#000000"> &#160;</text>
</a>
</g>
</g>
<!-- accounts -->
<g id="node3" class="node">
<title>accounts</title>
<g id="a_node3"><a xlink:href="../../tables/accounts.html" xlink:title="accounts" target="_top">
<polygon fill="#ffffff" stroke="transparent" points="8,-346.2 8,-520.2 119,-520.2 119,-346.2 8,-346.2"/>
<polygon fill="#f5f5f5" stroke="transparent" points="8.5,-497.2 8.5,-520.2 119.5,-520.2 119.5,-497.2 8.5,-497.2"/>
<polygon fill="none" stroke="#000000" points="8.5,-497.2 8.5,-520.2 119.5,-520.2 119.5,-497.2 8.5,-497.2"/>
<text text-anchor="start" x="13.5" y="-505.8" font-family="Helvetica,sans-Serif" font-weight="bold" font-size="11.00" fill="#000000">accounts</text>
<text text-anchor="start" x="84.5437" y="-505.3" font-family="Helvetica,sans-Serif" font-size="11.00" fill="#000000">[table]</text>
<polygon fill="none" stroke="#000000" points="8.5,-475.2 8.5,-497.2 119.5,-497.2 119.5,-475.2 8.5,-475.2"/>
<image xlink:href="../../images/primaryKeys.png" width="11px" height="12px" preserveAspectRatio="xMinYMin meet" x="13.5" y="-492.2"/>
<text text-anchor="start" x="28.5" y="-482.3" font-family="Helvetica,sans-Serif" font-size="11.00" fill="#000000">id</text>
<polygon fill="none" stroke="#000000" points="8.5,-453.2 8.5,-475.2 119.5,-475.2 119.5,-453.2 8.5,-453.2"/>
<text text-anchor="start" x="28.5" y="-460.3" font-family="Helvetica,sans-Serif" font-size="11.00" fill="#000000">title</text>
<polygon fill="#ffffff" stroke="transparent" points="8.5,-431.2 8.5,-453.2 119.5,-453.2 119.5,-431.2 8.5,-431.2"/>
<polygon fill="none" stroke="#000000" points="8.5,-431.2 8.5,-453.2 119.5,-453.2 119.5,-431.2 8.5,-431.2"/>
<text text-anchor="start" x="28.5" y="-438.3" font-family="Helvetica,sans-Serif" font-size="11.00" fill="#000000">link</text>
<polygon fill="none" stroke="#000000" points="8.5,-409.2 8.5,-431.2 119.5,-431.2 119.5,-409.2 8.5,-409.2"/>
<text text-anchor="start" x="28.5" y="-416.3" font-family="Helvetica,sans-Serif" font-size="11.00" fill="#000000">ai_provider</text>
<polygon fill="none" stroke="#000000" points="8.5,-387.2 8.5,-409.2 119.5,-409.2 119.5,-387.2 8.5,-387.2"/>
<text text-anchor="start" x="28.5" y="-394.3" font-family="Helvetica,sans-Serif" font-size="11.00" fill="#000000">ai_api_key</text>
<polygon fill="none" stroke="#000000" points="8.5,-365.2 8.5,-387.2 119.5,-387.2 119.5,-365.2 8.5,-365.2"/>
<text text-anchor="start" x="28.5" y="-372.3" font-family="Helvetica,sans-Serif" font-size="11.00" fill="#000000">utc_created_on</text>
<polygon fill="#ffffff" stroke="transparent" points="8.5,-346.2 8.5,-365.2 53.5,-365.2 53.5,-346.2 8.5,-346.2"/>
<polygon fill="none" stroke="#000000" points="8.5,-346.2 8.5,-365.2 53.5,-365.2 53.5,-346.2 8.5,-346.2"/>
<text text-anchor="start" x="11.5" y="-352.3" font-family="Helvetica,sans-Serif" font-size="11.00" fill="#000000"> &#160;</text>
<polygon fill="#ffffff" stroke="transparent" points="53.5,-346.2 53.5,-365.2 81.5,-365.2 81.5,-346.2 53.5,-346.2"/>
<polygon fill="none" stroke="#000000" points="53.5,-346.2 53.5,-365.2 81.5,-365.2 81.5,-346.2 53.5,-346.2"/>
<text text-anchor="start" x="72.3862" y="-352.3" font-family="Helvetica,sans-Serif" font-size="11.00" fill="#000000"> &#160;</text>
<polygon fill="#ffffff" stroke="transparent" points="81.5,-346.2 81.5,-365.2 119.5,-365.2 119.5,-346.2 81.5,-346.2"/>
<polygon fill="none" stroke="#000000" points="81.5,-346.2 81.5,-365.2 119.5,-365.2 119.5,-346.2 81.5,-346.2"/>
<text text-anchor="start" x="100.9053" y="-352.3" font-family="Helvetica,sans-Serif" font-size="11.00" fill="#000000">3 &gt;</text>
</a>
</g>
</g>
<!-- user_in_accounts&#45;&gt;accounts -->
<g id="edge5" class="edge">
<title>user_in_accounts:w&#45;&gt;accounts:e</title>
<path fill="none" stroke="#000000" d="M154.3293,-614.9371C118.9817,-594.6102 176.2116,-486.2 119.5,-486.2"/>
<polygon fill="#000000" stroke="#000000" points="160.704,-616.4049 167.6922,-621.7082 164.602,-617.3024 168.5,-618.2 168.5,-618.2 168.5,-618.2 164.602,-617.3024 169.3078,-614.6918 160.704,-616.4049 160.704,-616.4049"/>
<ellipse fill="none" stroke="#000000" cx="157.5856" cy="-615.6868" rx="3.2" ry="3.2"/>
</g>
<!-- users -->
<g id="node6" class="node">
<title>users</title>
<g id="a_node6"><a xlink:href="../../tables/users.html" xlink:title="users" target="_top">
<polygon fill="#ffffff" stroke="transparent" points="8,-541.2 8,-693.2 119,-693.2 119,-541.2 8,-541.2"/>
<polygon fill="#f5f5f5" stroke="transparent" points="8.5,-670.2 8.5,-693.2 119.5,-693.2 119.5,-670.2 8.5,-670.2"/>
<polygon fill="none" stroke="#000000" points="8.5,-670.2 8.5,-693.2 119.5,-693.2 119.5,-670.2 8.5,-670.2"/>
<text text-anchor="start" x="13.5" y="-678.8" font-family="Helvetica,sans-Serif" font-weight="bold" font-size="11.00" fill="#000000">users</text>
<text text-anchor="start" x="84.5437" y="-678.3" font-family="Helvetica,sans-Serif" font-size="11.00" fill="#000000">[table]</text>
<polygon fill="none" stroke="#000000" points="8.5,-648.2 8.5,-670.2 119.5,-670.2 119.5,-648.2 8.5,-648.2"/>
<image xlink:href="../../images/primaryKeys.png" width="11px" height="12px" preserveAspectRatio="xMinYMin meet" x="13.5" y="-665.2"/>
<text text-anchor="start" x="28.5" y="-655.3" font-family="Helvetica,sans-Serif" font-size="11.00" fill="#000000">id</text>
<polygon fill="#ffffff" stroke="transparent" points="8.5,-626.2 8.5,-648.2 119.5,-648.2 119.5,-626.2 8.5,-626.2"/>
<polygon fill="none" stroke="#000000" points="8.5,-626.2 8.5,-648.2 119.5,-648.2 119.5,-626.2 8.5,-626.2"/>
<text text-anchor="start" x="28.5" y="-633.3" font-family="Helvetica,sans-Serif" font-size="11.00" fill="#000000">email</text>
<polygon fill="none" stroke="#000000" points="8.5,-604.2 8.5,-626.2 119.5,-626.2 119.5,-604.2 8.5,-604.2"/>
<text text-anchor="start" x="28.5" y="-611.3" font-family="Helvetica,sans-Serif" font-size="11.00" fill="#000000">name</text>
<polygon fill="none" stroke="#000000" points="8.5,-582.2 8.5,-604.2 119.5,-604.2 119.5,-582.2 8.5,-582.2"/>
<text text-anchor="start" x="28.5" y="-589.3" font-family="Helvetica,sans-Serif" font-size="11.00" fill="#000000">password</text>
<polygon fill="none" stroke="#000000" points="8.5,-560.2 8.5,-582.2 119.5,-582.2 119.5,-560.2 8.5,-560.2"/>
<text text-anchor="start" x="28.5" y="-567.3" font-family="Helvetica,sans-Serif" font-size="11.00" fill="#000000">utc_created_on</text>
<polygon fill="#ffffff" stroke="transparent" points="8.5,-541.2 8.5,-560.2 53.5,-560.2 53.5,-541.2 8.5,-541.2"/>
<polygon fill="none" stroke="#000000" points="8.5,-541.2 8.5,-560.2 53.5,-560.2 53.5,-541.2 8.5,-541.2"/>
<text text-anchor="start" x="11.5" y="-547.3" font-family="Helvetica,sans-Serif" font-size="11.00" fill="#000000"> &#160;</text>
<polygon fill="#ffffff" stroke="transparent" points="53.5,-541.2 53.5,-560.2 81.5,-560.2 81.5,-541.2 53.5,-541.2"/>
<polygon fill="none" stroke="#000000" points="53.5,-541.2 53.5,-560.2 81.5,-560.2 81.5,-541.2 53.5,-541.2"/>
<text text-anchor="start" x="72.3862" y="-547.3" font-family="Helvetica,sans-Serif" font-size="11.00" fill="#000000"> &#160;</text>
<polygon fill="#ffffff" stroke="transparent" points="81.5,-541.2 81.5,-560.2 119.5,-560.2 119.5,-541.2 81.5,-541.2"/>
<polygon fill="none" stroke="#000000" points="81.5,-541.2 81.5,-560.2 119.5,-560.2 119.5,-541.2 81.5,-541.2"/>
<text text-anchor="start" x="100.9053" y="-547.3" font-family="Helvetica,sans-Serif" font-size="11.00" fill="#000000">1 &gt;</text>
</a>
</g>
</g>
<!-- user_in_accounts&#45;&gt;users -->
<g id="edge6" class="edge">
<title>user_in_accounts:w&#45;&gt;users:e</title>
<path fill="none" stroke="#000000" d="M154.2744,-643.1688C142.6829,-648.5125 137.0182,-659.2 119.5,-659.2"/>
<polygon fill="#000000" stroke="#000000" points="160.6687,-641.8344 169.2355,-643.7241 164.5844,-641.0172 168.5,-640.2 168.5,-640.2 168.5,-640.2 164.5844,-641.0172 167.7645,-636.6759 160.6687,-641.8344 160.6687,-641.8344"/>
<ellipse fill="none" stroke="#000000" cx="157.5362" cy="-642.4881" rx="3.2" ry="3.2"/>
</g>
<!-- blog_posts -->
<g id="node4" class="node">
<title>blog_posts</title>
<g id="a_node4"><a xlink:href="../../tables/blog_posts.html" xlink:title="blog_posts" target="_top">
<polygon fill="#ffffff" stroke="transparent" points="374,-343.2 374,-561.2 499,-561.2 499,-343.2 374,-343.2"/>
<polygon fill="#f5f5f5" stroke="transparent" points="374.5,-538.2 374.5,-561.2 499.5,-561.2 499.5,-538.2 374.5,-538.2"/>
<polygon fill="none" stroke="#000000" points="374.5,-538.2 374.5,-561.2 499.5,-561.2 499.5,-538.2 374.5,-538.2"/>
<text text-anchor="start" x="379.5" y="-546.8" font-family="Helvetica,sans-Serif" font-weight="bold" font-size="11.00" fill="#000000">blog_posts</text>
<text text-anchor="start" x="464.5437" y="-546.3" font-family="Helvetica,sans-Serif" font-size="11.00" fill="#000000">[table]</text>
<polygon fill="none" stroke="#000000" points="374.5,-516.2 374.5,-538.2 499.5,-538.2 499.5,-516.2 374.5,-516.2"/>
<image xlink:href="../../images/primaryKeys.png" width="11px" height="12px" preserveAspectRatio="xMinYMin meet" x="379.5" y="-533.2"/>
<text text-anchor="start" x="394.5" y="-523.3" font-family="Helvetica,sans-Serif" font-size="11.00" fill="#000000">id</text>
<polygon fill="none" stroke="#000000" points="374.5,-494.2 374.5,-516.2 499.5,-516.2 499.5,-494.2 374.5,-494.2"/>
<image xlink:href="../../images/foreignKeys.png" width="11px" height="12px" preserveAspectRatio="xMinYMin meet" x="379.5" y="-511.2"/>
<text text-anchor="start" x="394.5" y="-501.3" font-family="Helvetica,sans-Serif" font-size="11.00" fill="#000000">account_id</text>
<polygon fill="none" stroke="#000000" points="374.5,-472.2 374.5,-494.2 499.5,-494.2 499.5,-472.2 374.5,-472.2"/>
<image xlink:href="../../images/foreignKeys.png" width="11px" height="12px" preserveAspectRatio="xMinYMin meet" x="379.5" y="-489.2"/>
<text text-anchor="start" x="394.5" y="-479.3" font-family="Helvetica,sans-Serif" font-size="11.00" fill="#000000">avatar_id</text>
<polygon fill="none" stroke="#000000" points="374.5,-450.2 374.5,-472.2 499.5,-472.2 499.5,-450.2 374.5,-450.2"/>
<text text-anchor="start" x="394.5" y="-457.3" font-family="Helvetica,sans-Serif" font-size="11.00" fill="#000000">title</text>
<polygon fill="none" stroke="#000000" points="374.5,-428.2 374.5,-450.2 499.5,-450.2 499.5,-428.2 374.5,-428.2"/>
<text text-anchor="start" x="394.5" y="-435.3" font-family="Helvetica,sans-Serif" font-size="11.00" fill="#000000">description</text>
<polygon fill="none" stroke="#000000" points="374.5,-406.2 374.5,-428.2 499.5,-428.2 499.5,-406.2 374.5,-406.2"/>
<text text-anchor="start" x="394.5" y="-413.3" font-family="Helvetica,sans-Serif" font-size="11.00" fill="#000000">utc_created_on</text>
<polygon fill="none" stroke="#000000" points="374.5,-384.2 374.5,-406.2 499.5,-406.2 499.5,-384.2 374.5,-384.2"/>
<text text-anchor="start" x="394.5" y="-391.3" font-family="Helvetica,sans-Serif" font-size="11.00" fill="#000000">image_url</text>
<polygon fill="none" stroke="#000000" points="374.5,-362.2 374.5,-384.2 499.5,-384.2 499.5,-362.2 374.5,-362.2"/>
<text text-anchor="start" x="394.5" y="-369.3" font-family="Helvetica,sans-Serif" font-size="11.00" fill="#000000">short_description</text>
<polygon fill="#ffffff" stroke="transparent" points="374.5,-343.2 374.5,-362.2 435.5,-362.2 435.5,-343.2 374.5,-343.2"/>
<polygon fill="none" stroke="#000000" points="374.5,-343.2 374.5,-362.2 435.5,-362.2 435.5,-343.2 374.5,-343.2"/>
<text text-anchor="start" x="377.5" y="-349.3" font-family="Helvetica,sans-Serif" font-size="11.00" fill="#000000">&lt; 2</text>
<polygon fill="#ffffff" stroke="transparent" points="435.5,-343.2 435.5,-362.2 467.5,-362.2 467.5,-343.2 435.5,-343.2"/>
<polygon fill="none" stroke="#000000" points="435.5,-343.2 435.5,-362.2 467.5,-362.2 467.5,-343.2 435.5,-343.2"/>
<text text-anchor="start" x="458.3862" y="-349.3" font-family="Helvetica,sans-Serif" font-size="11.00" fill="#000000"> &#160;</text>
<polygon fill="#ffffff" stroke="transparent" points="467.5,-343.2 467.5,-362.2 499.5,-362.2 499.5,-343.2 467.5,-343.2"/>
<polygon fill="none" stroke="#000000" points="467.5,-343.2 467.5,-362.2 499.5,-362.2 499.5,-343.2 467.5,-343.2"/>
<text text-anchor="start" x="490.3862" y="-349.3" font-family="Helvetica,sans-Serif" font-size="11.00" fill="#000000"> &#160;</text>
</a>
</g>
</g>
<!-- blog_posts&#45;&gt;accounts -->
<g id="edge3" class="edge">
<title>blog_posts:w&#45;&gt;accounts:e</title>
<path fill="none" stroke="#000000" d="M359.966,-505.1736C276.2633,-504.8538 249.9847,-501.5746 160,-492.2 141.9015,-490.3145 137.6965,-486.2 119.5,-486.2"/>
<polygon fill="#000000" stroke="#000000" points="366.5,-505.1854 374.4934,-508.8 370.5,-505.1927 374.5,-505.2 374.5,-505.2 374.5,-505.2 370.5,-505.1927 374.5066,-501.6 366.5,-505.1854 366.5,-505.1854"/>
<ellipse fill="none" stroke="#000000" cx="363.3" cy="-505.1796" rx="3.2" ry="3.2"/>
</g>
<!-- blog_posts&#45;&gt;avatars -->
<g id="edge4" class="edge">
<title>blog_posts:w&#45;&gt;avatars:e</title>
<path fill="none" stroke="#000000" d="M360.1981,-481.2645C334.6735,-473.7869 328.6588,-447.2 295.5,-447.2"/>
<polygon fill="#000000" stroke="#000000" points="366.5723,-482.1271 374.0172,-486.7675 370.5361,-482.6635 374.5,-483.2 374.5,-483.2 374.5,-483.2 370.5361,-482.6635 374.9828,-479.6325 366.5723,-482.1271 366.5723,-482.1271"/>
<ellipse fill="none" stroke="#000000" cx="363.4012" cy="-481.6979" rx="3.2" ry="3.2"/>
</g>
<!-- avatars&#45;&gt;accounts -->
<g id="edge2" class="edge">
<title>avatars:w&#45;&gt;accounts:e</title>
<path fill="none" stroke="#000000" d="M168.3558,-428.8331C146.7753,-441.9653 152.6892,-486.2 119.5,-486.2"/>
<polygon fill="#000000" stroke="#000000" points="174.7515,-427.1904 183.3957,-428.6868 178.6258,-426.1952 182.5,-425.2 182.5,-425.2 182.5,-425.2 178.6258,-426.1952 181.6043,-421.7132 174.7515,-427.1904 174.7515,-427.1904"/>
<ellipse fill="none" stroke="#000000" cx="171.6522" cy="-427.9865" rx="3.2" ry="3.2"/>
</g>
</g>
</svg>
