<?xml version="1.0" encoding="UTF-8" standalone="no"?>
<!DOCTYPE svg PUBLIC "-//W3C//DTD SVG 1.1//EN"
 "http://www.w3.org/Graphics/SVG/1.1/DTD/svg11.dtd">
<!-- Generated by graphviz version 2.40.1 (20161225.0304)
 -->
<!-- Title: twoDegreesRelationshipsDiagram Pages: 1 -->
<svg width="625pt" height="347pt"
 viewBox="0.00 0.00 625.00 347.20" xmlns="http://www.w3.org/2000/svg" xmlns:xlink="http://www.w3.org/1999/xlink">
<g id="graph0" class="graph" transform="scale(1 1) rotate(0) translate(4 343.2)">
<title>twoDegreesRelationshipsDiagram</title>
<polygon fill="#ffffff" stroke="transparent" points="-4,4 -4,-343.2 621,-343.2 621,4 -4,4"/>
<text text-anchor="middle" x="72.4936" y="-7.3" font-family="Helvetica,sans-Serif" font-size="11.00" fill="#000000">Generated by SchemaSpy</text>
<!-- avatar_inputs -->
<g id="node1" class="node">
<title>avatar_inputs</title>
<g id="a_node1"><a xlink:href="../../tables/avatar_inputs.html" xlink:title="avatar_inputs" target="_top">
<polygon fill="#ffffff" stroke="transparent" points="489,-192.2 489,-253.2 609,-253.2 609,-192.2 489,-192.2"/>
<polygon fill="#f5f5f5" stroke="transparent" points="489,-229.7 489,-252.7 609,-252.7 609,-229.7 489,-229.7"/>
<polygon fill="none" stroke="#000000" points="489,-229.7 489,-252.7 609,-252.7 609,-229.7 489,-229.7"/>
<text text-anchor="start" x="494" y="-238.3" font-family="Helvetica,sans-Serif" font-weight="bold" font-size="11.00" fill="#000000">avatar_inputs</text>
<text text-anchor="start" x="574.5219" y="-237.8" font-family="Helvetica,sans-Serif" font-size="11.00" fill="#000000">[table]</text>
<polygon fill="none" stroke="#000000" points="489,-210.7 489,-229.7 609,-229.7 609,-210.7 489,-210.7"/>
<text text-anchor="start" x="492" y="-216.8" font-family="Helvetica,sans-Serif" font-size="11.00" fill="#000000">...</text>
<polygon fill="#ffffff" stroke="transparent" points="489,-191.7 489,-210.7 547,-210.7 547,-191.7 489,-191.7"/>
<polygon fill="none" stroke="#000000" points="489,-191.7 489,-210.7 547,-210.7 547,-191.7 489,-191.7"/>
<text text-anchor="start" x="492" y="-197.8" font-family="Helvetica,sans-Serif" font-size="11.00" fill="#000000">&lt; 1</text>
<polygon fill="#ffffff" stroke="transparent" points="547,-191.7 547,-210.7 578,-210.7 578,-191.7 547,-191.7"/>
<polygon fill="none" stroke="#000000" points="547,-191.7 547,-210.7 578,-210.7 578,-191.7 547,-191.7"/>
<text text-anchor="start" x="568.8862" y="-197.8" font-family="Helvetica,sans-Serif" font-size="11.00" fill="#000000"> &#160;</text>
<polygon fill="#ffffff" stroke="transparent" points="578,-191.7 578,-210.7 609,-210.7 609,-191.7 578,-191.7"/>
<polygon fill="none" stroke="#000000" points="578,-191.7 578,-210.7 609,-210.7 609,-191.7 578,-191.7"/>
<text text-anchor="start" x="599.8862" y="-197.8" font-family="Helvetica,sans-Serif" font-size="11.00" fill="#000000"> &#160;</text>
</a>
</g>
</g>
<!-- avatars -->
<g id="node2" class="node">
<title>avatars</title>
<g id="a_node2"><a xlink:href="../../tables/avatars.html" xlink:title="avatars" target="_top">
<polygon fill="#ffffff" stroke="transparent" points="328.5,-219.2 328.5,-280.2 410.5,-280.2 410.5,-219.2 328.5,-219.2"/>
<polygon fill="#f5f5f5" stroke="transparent" points="328.5,-256.7 328.5,-279.7 410.5,-279.7 410.5,-256.7 328.5,-256.7"/>
<polygon fill="none" stroke="#000000" points="328.5,-256.7 328.5,-279.7 410.5,-279.7 410.5,-256.7 328.5,-256.7"/>
<text text-anchor="start" x="333.5" y="-265.3" font-family="Helvetica,sans-Serif" font-weight="bold" font-size="11.00" fill="#000000">avatars</text>
<text text-anchor="start" x="376.0219" y="-264.8" font-family="Helvetica,sans-Serif" font-size="11.00" fill="#000000">[table]</text>
<polygon fill="none" stroke="#000000" points="328.5,-237.7 328.5,-256.7 410.5,-256.7 410.5,-237.7 328.5,-237.7"/>
<text text-anchor="start" x="331.5" y="-243.8" font-family="Helvetica,sans-Serif" font-size="11.00" fill="#000000">...</text>
<polygon fill="#ffffff" stroke="transparent" points="328.5,-218.7 328.5,-237.7 363.5,-237.7 363.5,-218.7 328.5,-218.7"/>
<polygon fill="none" stroke="#000000" points="328.5,-218.7 328.5,-237.7 363.5,-237.7 363.5,-218.7 328.5,-218.7"/>
<text text-anchor="start" x="331.5" y="-224.8" font-family="Helvetica,sans-Serif" font-size="11.00" fill="#000000">&lt; 1</text>
<polygon fill="#ffffff" stroke="transparent" points="363.5,-218.7 363.5,-237.7 382.5,-237.7 382.5,-218.7 363.5,-218.7"/>
<polygon fill="none" stroke="#000000" points="363.5,-218.7 363.5,-237.7 382.5,-237.7 382.5,-218.7 363.5,-218.7"/>
<text text-anchor="start" x="373.3862" y="-224.8" font-family="Helvetica,sans-Serif" font-size="11.00" fill="#000000"> &#160;</text>
<polygon fill="#ffffff" stroke="transparent" points="382.5,-218.7 382.5,-237.7 410.5,-237.7 410.5,-218.7 382.5,-218.7"/>
<polygon fill="none" stroke="#000000" points="382.5,-218.7 382.5,-237.7 410.5,-237.7 410.5,-218.7 382.5,-218.7"/>
<text text-anchor="start" x="391.9053" y="-224.8" font-family="Helvetica,sans-Serif" font-size="11.00" fill="#000000">2 &gt;</text>
</a>
</g>
</g>
<!-- avatar_inputs&#45;&gt;avatars -->
<g id="edge1" class="edge">
<title>avatar_inputs:w&#45;&gt;avatars:e</title>
<path fill="none" stroke="#000000" d="M474.4168,-220.3514C455.1772,-222.0022 435.5317,-226.58 418.5212,-231.643"/>
<polygon fill="#000000" stroke="#000000" points="481.008,-220.057 489.1607,-223.2964 485.004,-219.8785 489,-219.7 489,-219.7 489,-219.7 485.004,-219.8785 488.8393,-216.1036 481.008,-220.057 481.008,-220.057"/>
<ellipse fill="none" stroke="#000000" cx="477.8112" cy="-220.1999" rx="3.2" ry="3.2"/>
</g>
<!-- accounts -->
<g id="node3" class="node">
<title>accounts</title>
<g id="a_node3"><a xlink:href="../../tables/accounts.html" xlink:title="accounts" target="_top">
<polygon fill="#ffffff" stroke="transparent" points="8,-135.7 8,-313.7 250,-313.7 250,-135.7 8,-135.7"/>
<polygon fill="#f5f5f5" stroke="transparent" points="10,-288.7 10,-311.7 248,-311.7 248,-288.7 10,-288.7"/>
<polygon fill="none" stroke="#000000" points="10,-288.7 10,-311.7 248,-311.7 248,-288.7 10,-288.7"/>
<text text-anchor="start" x="15" y="-297.3" font-family="Helvetica,sans-Serif" font-weight="bold" font-size="11.00" fill="#000000">accounts</text>
<text text-anchor="start" x="213.0437" y="-296.8" font-family="Helvetica,sans-Serif" font-size="11.00" fill="#000000">[table]</text>
<polygon fill="none" stroke="#000000" points="10,-266.7 10,-288.7 121,-288.7 121,-266.7 10,-266.7"/>
<image xlink:href="../../images/primaryKeys.png" width="11px" height="12px" preserveAspectRatio="xMinYMin meet" x="15" y="-283.7"/>
<text text-anchor="start" x="30" y="-273.8" font-family="Helvetica,sans-Serif" font-size="11.00" fill="#000000">id</text>
<polygon fill="none" stroke="#000000" points="121,-266.7 121,-288.7 248,-288.7 248,-266.7 121,-266.7"/>
<text text-anchor="start" x="124" y="-274.4" font-family="Helvetica,sans-Serif" font-size="11.00" fill="#000000">uuid[2147483647]</text>
<polygon fill="none" stroke="#000000" points="10,-244.7 10,-266.7 121,-266.7 121,-244.7 10,-244.7"/>
<text text-anchor="start" x="30" y="-251.8" font-family="Helvetica,sans-Serif" font-size="11.00" fill="#000000">title</text>
<polygon fill="none" stroke="#000000" points="121,-244.7 121,-266.7 248,-266.7 248,-244.7 121,-244.7"/>
<text text-anchor="start" x="124" y="-252.4" font-family="Helvetica,sans-Serif" font-size="11.00" fill="#000000">text[2147483647]</text>
<polygon fill="#ffffff" stroke="transparent" points="10,-222.7 10,-244.7 121,-244.7 121,-222.7 10,-222.7"/>
<polygon fill="none" stroke="#000000" points="10,-222.7 10,-244.7 121,-244.7 121,-222.7 10,-222.7"/>
<text text-anchor="start" x="30" y="-229.8" font-family="Helvetica,sans-Serif" font-size="11.00" fill="#000000">link</text>
<polygon fill="none" stroke="#000000" points="121,-222.7 121,-244.7 248,-244.7 248,-222.7 121,-222.7"/>
<text text-anchor="start" x="124" y="-230.4" font-family="Helvetica,sans-Serif" font-size="11.00" fill="#000000">text[2147483647]</text>
<polygon fill="none" stroke="#000000" points="10,-200.7 10,-222.7 121,-222.7 121,-200.7 10,-200.7"/>
<text text-anchor="start" x="30" y="-207.8" font-family="Helvetica,sans-Serif" font-size="11.00" fill="#000000">ai_provider</text>
<polygon fill="none" stroke="#000000" points="121,-200.7 121,-222.7 248,-222.7 248,-200.7 121,-200.7"/>
<text text-anchor="start" x="123.6711" y="-208.4" font-family="Helvetica,sans-Serif" font-size="11.00" fill="#000000">ai_provider[2147483647]</text>
<polygon fill="none" stroke="#000000" points="10,-178.7 10,-200.7 121,-200.7 121,-178.7 10,-178.7"/>
<text text-anchor="start" x="30" y="-185.8" font-family="Helvetica,sans-Serif" font-size="11.00" fill="#000000">ai_api_key</text>
<polygon fill="none" stroke="#000000" points="121,-178.7 121,-200.7 248,-200.7 248,-178.7 121,-178.7"/>
<text text-anchor="start" x="124" y="-186.4" font-family="Helvetica,sans-Serif" font-size="11.00" fill="#000000">text[2147483647]</text>
<polygon fill="none" stroke="#000000" points="10,-156.7 10,-178.7 121,-178.7 121,-156.7 10,-156.7"/>
<text text-anchor="start" x="30" y="-163.8" font-family="Helvetica,sans-Serif" font-size="11.00" fill="#000000">utc_created_on</text>
<polygon fill="none" stroke="#000000" points="121,-156.7 121,-178.7 248,-178.7 248,-156.7 121,-156.7"/>
<text text-anchor="start" x="124" y="-164.4" font-family="Helvetica,sans-Serif" font-size="11.00" fill="#000000">timestamp[29,6]</text>
<polygon fill="#ffffff" stroke="transparent" points="10,-137.7 10,-156.7 70,-156.7 70,-137.7 10,-137.7"/>
<polygon fill="none" stroke="#000000" points="10,-137.7 10,-156.7 70,-156.7 70,-137.7 10,-137.7"/>
<text text-anchor="start" x="13" y="-143.8" font-family="Helvetica,sans-Serif" font-size="11.00" fill="#000000">&lt; 0</text>
<polygon fill="#ffffff" stroke="transparent" points="70,-137.7 70,-156.7 121,-156.7 121,-137.7 70,-137.7"/>
<polygon fill="none" stroke="#000000" points="70,-137.7 70,-156.7 121,-156.7 121,-137.7 70,-137.7"/>
<text text-anchor="start" x="111.8862" y="-143.8" font-family="Helvetica,sans-Serif" font-size="11.00" fill="#000000"> &#160;</text>
<polygon fill="#ffffff" stroke="transparent" points="121,-137.7 121,-156.7 248,-156.7 248,-137.7 121,-137.7"/>
<polygon fill="none" stroke="#000000" points="121,-137.7 121,-156.7 248,-156.7 248,-137.7 121,-137.7"/>
<text text-anchor="start" x="229.4053" y="-143.8" font-family="Helvetica,sans-Serif" font-size="11.00" fill="#000000">3 &gt;</text>
<polygon fill="none" stroke="#000000" stroke-width="2" points="9,-136.7 9,-312.7 249,-312.7 249,-136.7 9,-136.7"/>
</a>
</g>
</g>
<!-- avatars&#45;&gt;accounts -->
<g id="edge2" class="edge">
<title>avatars:w&#45;&gt;accounts:e</title>
<path fill="none" stroke="#000000" d="M306.3223,-269.9283C287.7339,-274.33 267.2249,-277.7 248,-277.7"/>
<polygon fill="#000000" stroke="#000000" points="312.6824,-268.2979 321.3258,-269.7986 316.5571,-267.3046 320.4318,-266.3113 320.4318,-266.3113 320.4318,-266.3113 316.5571,-267.3046 319.5378,-262.8241 312.6824,-268.2979 312.6824,-268.2979"/>
<ellipse fill="none" stroke="#000000" cx="309.5826" cy="-269.0926" rx="3.2" ry="3.2"/>
</g>
<!-- blog_posts -->
<g id="node4" class="node">
<title>blog_posts</title>
<g id="a_node4"><a xlink:href="../../tables/blog_posts.html" xlink:title="blog_posts" target="_top">
<polygon fill="#ffffff" stroke="transparent" points="497.5,-274.2 497.5,-335.2 600.5,-335.2 600.5,-274.2 497.5,-274.2"/>
<polygon fill="#f5f5f5" stroke="transparent" points="498,-311.7 498,-334.7 601,-334.7 601,-311.7 498,-311.7"/>
<polygon fill="none" stroke="#000000" points="498,-311.7 498,-334.7 601,-334.7 601,-311.7 498,-311.7"/>
<text text-anchor="start" x="503" y="-320.3" font-family="Helvetica,sans-Serif" font-weight="bold" font-size="11.00" fill="#000000">blog_posts</text>
<text text-anchor="start" x="566.5219" y="-319.8" font-family="Helvetica,sans-Serif" font-size="11.00" fill="#000000">[table]</text>
<polygon fill="none" stroke="#000000" points="498,-292.7 498,-311.7 601,-311.7 601,-292.7 498,-292.7"/>
<text text-anchor="start" x="501" y="-298.8" font-family="Helvetica,sans-Serif" font-size="11.00" fill="#000000">...</text>
<polygon fill="#ffffff" stroke="transparent" points="498,-273.7 498,-292.7 548,-292.7 548,-273.7 498,-273.7"/>
<polygon fill="none" stroke="#000000" points="498,-273.7 498,-292.7 548,-292.7 548,-273.7 498,-273.7"/>
<text text-anchor="start" x="501" y="-279.8" font-family="Helvetica,sans-Serif" font-size="11.00" fill="#000000">&lt; 2</text>
<polygon fill="#ffffff" stroke="transparent" points="548,-273.7 548,-292.7 574,-292.7 574,-273.7 548,-273.7"/>
<polygon fill="none" stroke="#000000" points="548,-273.7 548,-292.7 574,-292.7 574,-273.7 548,-273.7"/>
<text text-anchor="start" x="564.8862" y="-279.8" font-family="Helvetica,sans-Serif" font-size="11.00" fill="#000000"> &#160;</text>
<polygon fill="#ffffff" stroke="transparent" points="574,-273.7 574,-292.7 601,-292.7 601,-273.7 574,-273.7"/>
<polygon fill="none" stroke="#000000" points="574,-273.7 574,-292.7 601,-292.7 601,-273.7 574,-273.7"/>
<text text-anchor="start" x="591.8862" y="-279.8" font-family="Helvetica,sans-Serif" font-size="11.00" fill="#000000"> &#160;</text>
</a>
</g>
</g>
<!-- blog_posts&#45;&gt;avatars -->
<g id="edge4" class="edge">
<title>blog_posts:w&#45;&gt;avatars:e</title>
<path fill="none" stroke="#000000" d="M475.2187,-282.0929C456.1242,-276.2422 436.0333,-270.0863 418.5547,-264.7307"/>
<polygon fill="#000000" stroke="#000000" points="481.5801,-284.0421 488.1744,-289.8278 485.4046,-285.2139 489.2291,-286.3858 489.2291,-286.3858 489.2291,-286.3858 485.4046,-285.2139 490.2838,-282.9437 481.5801,-284.0421 481.5801,-284.0421"/>
<ellipse fill="none" stroke="#000000" cx="478.5205" cy="-283.1046" rx="3.2" ry="3.2"/>
</g>
<!-- blog_posts&#45;&gt;accounts -->
<g id="edge3" class="edge">
<title>blog_posts:w&#45;&gt;accounts:e</title>
<path fill="none" stroke="#000000" d="M474.9234,-305.3586C423.0626,-304.6827 352.3536,-301.4782 291,-290.7 271.3357,-287.2455 267.9654,-277.7 248,-277.7"/>
<polygon fill="#000000" stroke="#000000" points="481.3653,-305.4163 489.3327,-309.0879 485.3652,-305.4522 489.365,-305.4881 489.365,-305.4881 489.365,-305.4881 485.3652,-305.4522 489.3973,-301.8882 481.3653,-305.4163 481.3653,-305.4163"/>
<ellipse fill="none" stroke="#000000" cx="478.1654" cy="-305.3876" rx="3.2" ry="3.2"/>
</g>
<!-- user_in_accounts -->
<g id="node5" class="node">
<title>user_in_accounts</title>
<g id="a_node5"><a xlink:href="../../tables/user_in_accounts.html" xlink:title="user_in_accounts" target="_top">
<polygon fill="#ffffff" stroke="transparent" points="299,-38.2 299,-143.2 440,-143.2 440,-38.2 299,-38.2"/>
<polygon fill="#f5f5f5" stroke="transparent" points="299.5,-119.7 299.5,-142.7 440.5,-142.7 440.5,-119.7 299.5,-119.7"/>
<polygon fill="none" stroke="#000000" points="299.5,-119.7 299.5,-142.7 440.5,-142.7 440.5,-119.7 299.5,-119.7"/>
<text text-anchor="start" x="304.5" y="-128.3" font-family="Helvetica,sans-Serif" font-weight="bold" font-size="11.00" fill="#000000">user_in_accounts</text>
<text text-anchor="start" x="406.0219" y="-127.8" font-family="Helvetica,sans-Serif" font-size="11.00" fill="#000000">[table]</text>
<polygon fill="none" stroke="#000000" points="299.5,-97.7 299.5,-119.7 440.5,-119.7 440.5,-97.7 299.5,-97.7"/>
<image xlink:href="../../images/primaryKeys.png" width="11px" height="12px" preserveAspectRatio="xMinYMin meet" x="304.5" y="-114.7"/>
<text text-anchor="start" x="328.5" y="-104.8" font-family="Helvetica,sans-Serif" font-size="11.00" fill="#000000">user_id</text>
<polygon fill="none" stroke="#000000" points="299.5,-75.7 299.5,-97.7 440.5,-97.7 440.5,-75.7 299.5,-75.7"/>
<image xlink:href="../../images/primaryKeys.png" width="11px" height="12px" preserveAspectRatio="xMinYMin meet" x="304.5" y="-92.7"/>
<text text-anchor="start" x="328.5" y="-82.8" font-family="Helvetica,sans-Serif" font-size="11.00" fill="#000000">account_id</text>
<polygon fill="none" stroke="#000000" points="299.5,-56.7 299.5,-75.7 440.5,-75.7 440.5,-56.7 299.5,-56.7"/>
<text text-anchor="start" x="302.5" y="-62.8" font-family="Helvetica,sans-Serif" font-size="11.00" fill="#000000">...</text>
<polygon fill="#ffffff" stroke="transparent" points="299.5,-37.7 299.5,-56.7 368.5,-56.7 368.5,-37.7 299.5,-37.7"/>
<polygon fill="none" stroke="#000000" points="299.5,-37.7 299.5,-56.7 368.5,-56.7 368.5,-37.7 299.5,-37.7"/>
<text text-anchor="start" x="302.5" y="-43.8" font-family="Helvetica,sans-Serif" font-size="11.00" fill="#000000">&lt; 2</text>
<polygon fill="#ffffff" stroke="transparent" points="368.5,-37.7 368.5,-56.7 404.5,-56.7 404.5,-37.7 368.5,-37.7"/>
<polygon fill="none" stroke="#000000" points="368.5,-37.7 368.5,-56.7 404.5,-56.7 404.5,-37.7 368.5,-37.7"/>
<text text-anchor="start" x="395.3862" y="-43.8" font-family="Helvetica,sans-Serif" font-size="11.00" fill="#000000"> &#160;</text>
<polygon fill="#ffffff" stroke="transparent" points="404.5,-37.7 404.5,-56.7 440.5,-56.7 440.5,-37.7 404.5,-37.7"/>
<polygon fill="none" stroke="#000000" points="404.5,-37.7 404.5,-56.7 440.5,-56.7 440.5,-37.7 404.5,-37.7"/>
<text text-anchor="start" x="431.3862" y="-43.8" font-family="Helvetica,sans-Serif" font-size="11.00" fill="#000000"> &#160;</text>
</a>
</g>
</g>
<!-- user_in_accounts&#45;&gt;accounts -->
<g id="edge5" class="edge">
<title>user_in_accounts:w&#45;&gt;accounts:e</title>
<path fill="none" stroke="#000000" d="M285.0314,-88.9781C226.726,-110.5276 330.2538,-277.7 248,-277.7"/>
<polygon fill="#000000" stroke="#000000" points="291.5974,-87.9443 300.0599,-90.2562 295.5487,-87.3222 299.5,-86.7 299.5,-86.7 299.5,-86.7 295.5487,-87.3222 298.9401,-83.1438 291.5974,-87.9443 291.5974,-87.9443"/>
<ellipse fill="none" stroke="#000000" cx="288.4363" cy="-88.442" rx="3.2" ry="3.2"/>
</g>
<!-- users -->
<g id="node6" class="node">
<title>users</title>
<g id="a_node6"><a xlink:href="../../tables/users.html" xlink:title="users" target="_top">
<polygon fill="#ffffff" stroke="transparent" points="93.5,-53.2 93.5,-114.2 164.5,-114.2 164.5,-53.2 93.5,-53.2"/>
<polygon fill="#f5f5f5" stroke="transparent" points="94,-90.7 94,-113.7 165,-113.7 165,-90.7 94,-90.7"/>
<polygon fill="none" stroke="#000000" points="94,-90.7 94,-113.7 165,-113.7 165,-90.7 94,-90.7"/>
<text text-anchor="start" x="99" y="-99.3" font-family="Helvetica,sans-Serif" font-weight="bold" font-size="11.00" fill="#000000">users</text>
<text text-anchor="start" x="130.5219" y="-98.8" font-family="Helvetica,sans-Serif" font-size="11.00" fill="#000000">[table]</text>
<polygon fill="none" stroke="#000000" points="94,-71.7 94,-90.7 165,-90.7 165,-71.7 94,-71.7"/>
<text text-anchor="start" x="97" y="-77.8" font-family="Helvetica,sans-Serif" font-size="11.00" fill="#000000">...</text>
<polygon fill="#ffffff" stroke="transparent" points="94,-52.7 94,-71.7 119,-71.7 119,-52.7 94,-52.7"/>
<polygon fill="none" stroke="#000000" points="94,-52.7 94,-71.7 119,-71.7 119,-52.7 94,-52.7"/>
<text text-anchor="start" x="97" y="-58.8" font-family="Helvetica,sans-Serif" font-size="11.00" fill="#000000"> &#160;</text>
<polygon fill="#ffffff" stroke="transparent" points="119,-52.7 119,-71.7 137,-71.7 137,-52.7 119,-52.7"/>
<polygon fill="none" stroke="#000000" points="119,-52.7 119,-71.7 137,-71.7 137,-52.7 119,-52.7"/>
<text text-anchor="start" x="127.8862" y="-58.8" font-family="Helvetica,sans-Serif" font-size="11.00" fill="#000000"> &#160;</text>
<polygon fill="#ffffff" stroke="transparent" points="137,-52.7 137,-71.7 165,-71.7 165,-52.7 137,-52.7"/>
<polygon fill="none" stroke="#000000" points="137,-52.7 137,-71.7 165,-71.7 165,-52.7 137,-52.7"/>
<text text-anchor="start" x="146.4053" y="-58.8" font-family="Helvetica,sans-Serif" font-size="11.00" fill="#000000">1 &gt;</text>
</a>
</g>
</g>
<!-- user_in_accounts&#45;&gt;users -->
<g id="edge6" class="edge">
<title>user_in_accounts:w&#45;&gt;users:e</title>
<path fill="none" stroke="#000000" d="M285.0883,-108.1407C236.0176,-104.1944 220.9313,-80.7 165,-80.7"/>
<polygon fill="#000000" stroke="#000000" points="291.506,-108.3897 299.3604,-112.2973 295.503,-108.5449 299.5,-108.7 299.5,-108.7 299.5,-108.7 295.503,-108.5449 299.6396,-105.1027 291.506,-108.3897 291.506,-108.3897"/>
<ellipse fill="none" stroke="#000000" cx="288.3084" cy="-108.2656" rx="3.2" ry="3.2"/>
</g>
</g>
</svg>
