<?xml version="1.0" encoding="UTF-8" standalone="no"?>
<!DOCTYPE svg PUBLIC "-//W3C//DTD SVG 1.1//EN"
 "http://www.w3.org/Graphics/SVG/1.1/DTD/svg11.dtd">
<!-- Generated by graphviz version 2.40.1 (20161225.0304)
 -->
<!-- Title: oneDegreeRelationshipsDiagram Pages: 1 -->
<svg width="630pt" height="343pt"
 viewBox="0.00 0.00 630.00 343.20" xmlns="http://www.w3.org/2000/svg" xmlns:xlink="http://www.w3.org/1999/xlink">
<g id="graph0" class="graph" transform="scale(1 1) rotate(0) translate(4 339.2)">
<title>oneDegreeRelationshipsDiagram</title>
<polygon fill="#ffffff" stroke="transparent" points="-4,4 -4,-339.2 626,-339.2 626,4 -4,4"/>
<text text-anchor="middle" x="72.4936" y="-7.3" font-family="Helvetica,sans-Serif" font-size="11.00" fill="#000000">Generated by SchemaSpy</text>
<!-- avatars -->
<g id="node1" class="node">
<title>avatars</title>
<g id="a_node1"><a xlink:href="../../tables/avatars.html" xlink:title="avatars" target="_top">
<polygon fill="#ffffff" stroke="transparent" points="313,-164.2 313,-269.2 426,-269.2 426,-164.2 313,-164.2"/>
<polygon fill="#f5f5f5" stroke="transparent" points="313.5,-245.7 313.5,-268.7 426.5,-268.7 426.5,-245.7 313.5,-245.7"/>
<polygon fill="none" stroke="#000000" points="313.5,-245.7 313.5,-268.7 426.5,-268.7 426.5,-245.7 313.5,-245.7"/>
<text text-anchor="start" x="318.5" y="-254.3" font-family="Helvetica,sans-Serif" font-weight="bold" font-size="11.00" fill="#000000">avatars</text>
<text text-anchor="start" x="391.5437" y="-253.8" font-family="Helvetica,sans-Serif" font-size="11.00" fill="#000000">[table]</text>
<polygon fill="none" stroke="#000000" points="313.5,-223.7 313.5,-245.7 426.5,-245.7 426.5,-223.7 313.5,-223.7"/>
<image xlink:href="../../images/primaryKeys.png" width="11px" height="12px" preserveAspectRatio="xMinYMin meet" x="318.5" y="-240.7"/>
<text text-anchor="start" x="333.5" y="-230.8" font-family="Helvetica,sans-Serif" font-size="11.00" fill="#000000">id</text>
<polygon fill="none" stroke="#000000" points="313.5,-201.7 313.5,-223.7 426.5,-223.7 426.5,-201.7 313.5,-201.7"/>
<image xlink:href="../../images/foreignKeys.png" width="11px" height="12px" preserveAspectRatio="xMinYMin meet" x="318.5" y="-218.7"/>
<text text-anchor="start" x="333.5" y="-208.8" font-family="Helvetica,sans-Serif" font-size="11.00" fill="#000000">account_id</text>
<polygon fill="none" stroke="#000000" points="313.5,-182.7 313.5,-201.7 426.5,-201.7 426.5,-182.7 313.5,-182.7"/>
<text text-anchor="start" x="316.5" y="-188.8" font-family="Helvetica,sans-Serif" font-size="11.00" fill="#000000">...</text>
<polygon fill="#ffffff" stroke="transparent" points="313.5,-163.7 313.5,-182.7 363.5,-182.7 363.5,-163.7 313.5,-163.7"/>
<polygon fill="none" stroke="#000000" points="313.5,-163.7 313.5,-182.7 363.5,-182.7 363.5,-163.7 313.5,-163.7"/>
<text text-anchor="start" x="316.5" y="-169.8" font-family="Helvetica,sans-Serif" font-size="11.00" fill="#000000">&lt; 1</text>
<polygon fill="#ffffff" stroke="transparent" points="363.5,-163.7 363.5,-182.7 390.5,-182.7 390.5,-163.7 363.5,-163.7"/>
<polygon fill="none" stroke="#000000" points="363.5,-163.7 363.5,-182.7 390.5,-182.7 390.5,-163.7 363.5,-163.7"/>
<text text-anchor="start" x="381.3862" y="-169.8" font-family="Helvetica,sans-Serif" font-size="11.00" fill="#000000"> &#160;</text>
<polygon fill="#ffffff" stroke="transparent" points="390.5,-163.7 390.5,-182.7 426.5,-182.7 426.5,-163.7 390.5,-163.7"/>
<polygon fill="none" stroke="#000000" points="390.5,-163.7 390.5,-182.7 426.5,-182.7 426.5,-163.7 390.5,-163.7"/>
<text text-anchor="start" x="407.9053" y="-169.8" font-family="Helvetica,sans-Serif" font-size="11.00" fill="#000000">2 &gt;</text>
</a>
</g>
</g>
<!-- accounts -->
<g id="node2" class="node">
<title>accounts</title>
<g id="a_node2"><a xlink:href="../../tables/accounts.html" xlink:title="accounts" target="_top">
<polygon fill="#ffffff" stroke="transparent" points="8,-70.7 8,-248.7 250,-248.7 250,-70.7 8,-70.7"/>
<polygon fill="#f5f5f5" stroke="transparent" points="10,-223.7 10,-246.7 248,-246.7 248,-223.7 10,-223.7"/>
<polygon fill="none" stroke="#000000" points="10,-223.7 10,-246.7 248,-246.7 248,-223.7 10,-223.7"/>
<text text-anchor="start" x="15" y="-232.3" font-family="Helvetica,sans-Serif" font-weight="bold" font-size="11.00" fill="#000000">accounts</text>
<text text-anchor="start" x="213.0437" y="-231.8" font-family="Helvetica,sans-Serif" font-size="11.00" fill="#000000">[table]</text>
<polygon fill="none" stroke="#000000" points="10,-201.7 10,-223.7 121,-223.7 121,-201.7 10,-201.7"/>
<image xlink:href="../../images/primaryKeys.png" width="11px" height="12px" preserveAspectRatio="xMinYMin meet" x="15" y="-218.7"/>
<text text-anchor="start" x="30" y="-208.8" font-family="Helvetica,sans-Serif" font-size="11.00" fill="#000000">id</text>
<polygon fill="none" stroke="#000000" points="121,-201.7 121,-223.7 248,-223.7 248,-201.7 121,-201.7"/>
<text text-anchor="start" x="124" y="-209.4" font-family="Helvetica,sans-Serif" font-size="11.00" fill="#000000">uuid[2147483647]</text>
<polygon fill="none" stroke="#000000" points="10,-179.7 10,-201.7 121,-201.7 121,-179.7 10,-179.7"/>
<text text-anchor="start" x="30" y="-186.8" font-family="Helvetica,sans-Serif" font-size="11.00" fill="#000000">title</text>
<polygon fill="none" stroke="#000000" points="121,-179.7 121,-201.7 248,-201.7 248,-179.7 121,-179.7"/>
<text text-anchor="start" x="124" y="-187.4" font-family="Helvetica,sans-Serif" font-size="11.00" fill="#000000">text[2147483647]</text>
<polygon fill="#ffffff" stroke="transparent" points="10,-157.7 10,-179.7 121,-179.7 121,-157.7 10,-157.7"/>
<polygon fill="none" stroke="#000000" points="10,-157.7 10,-179.7 121,-179.7 121,-157.7 10,-157.7"/>
<text text-anchor="start" x="30" y="-164.8" font-family="Helvetica,sans-Serif" font-size="11.00" fill="#000000">link</text>
<polygon fill="none" stroke="#000000" points="121,-157.7 121,-179.7 248,-179.7 248,-157.7 121,-157.7"/>
<text text-anchor="start" x="124" y="-165.4" font-family="Helvetica,sans-Serif" font-size="11.00" fill="#000000">text[2147483647]</text>
<polygon fill="none" stroke="#000000" points="10,-135.7 10,-157.7 121,-157.7 121,-135.7 10,-135.7"/>
<text text-anchor="start" x="30" y="-142.8" font-family="Helvetica,sans-Serif" font-size="11.00" fill="#000000">ai_provider</text>
<polygon fill="none" stroke="#000000" points="121,-135.7 121,-157.7 248,-157.7 248,-135.7 121,-135.7"/>
<text text-anchor="start" x="123.6711" y="-143.4" font-family="Helvetica,sans-Serif" font-size="11.00" fill="#000000">ai_provider[2147483647]</text>
<polygon fill="none" stroke="#000000" points="10,-113.7 10,-135.7 121,-135.7 121,-113.7 10,-113.7"/>
<text text-anchor="start" x="30" y="-120.8" font-family="Helvetica,sans-Serif" font-size="11.00" fill="#000000">ai_api_key</text>
<polygon fill="none" stroke="#000000" points="121,-113.7 121,-135.7 248,-135.7 248,-113.7 121,-113.7"/>
<text text-anchor="start" x="124" y="-121.4" font-family="Helvetica,sans-Serif" font-size="11.00" fill="#000000">text[2147483647]</text>
<polygon fill="none" stroke="#000000" points="10,-91.7 10,-113.7 121,-113.7 121,-91.7 10,-91.7"/>
<text text-anchor="start" x="30" y="-98.8" font-family="Helvetica,sans-Serif" font-size="11.00" fill="#000000">utc_created_on</text>
<polygon fill="none" stroke="#000000" points="121,-91.7 121,-113.7 248,-113.7 248,-91.7 121,-91.7"/>
<text text-anchor="start" x="124" y="-99.4" font-family="Helvetica,sans-Serif" font-size="11.00" fill="#000000">timestamp[29,6]</text>
<polygon fill="#ffffff" stroke="transparent" points="10,-72.7 10,-91.7 70,-91.7 70,-72.7 10,-72.7"/>
<polygon fill="none" stroke="#000000" points="10,-72.7 10,-91.7 70,-91.7 70,-72.7 10,-72.7"/>
<text text-anchor="start" x="13" y="-78.8" font-family="Helvetica,sans-Serif" font-size="11.00" fill="#000000">&lt; 0</text>
<polygon fill="#ffffff" stroke="transparent" points="70,-72.7 70,-91.7 121,-91.7 121,-72.7 70,-72.7"/>
<polygon fill="none" stroke="#000000" points="70,-72.7 70,-91.7 121,-91.7 121,-72.7 70,-72.7"/>
<text text-anchor="start" x="111.8862" y="-78.8" font-family="Helvetica,sans-Serif" font-size="11.00" fill="#000000"> &#160;</text>
<polygon fill="#ffffff" stroke="transparent" points="121,-72.7 121,-91.7 248,-91.7 248,-72.7 121,-72.7"/>
<polygon fill="none" stroke="#000000" points="121,-72.7 121,-91.7 248,-91.7 248,-72.7 121,-72.7"/>
<text text-anchor="start" x="229.4053" y="-78.8" font-family="Helvetica,sans-Serif" font-size="11.00" fill="#000000">3 &gt;</text>
<polygon fill="none" stroke="#000000" stroke-width="2" points="9,-71.7 9,-247.7 249,-247.7 249,-71.7 9,-71.7"/>
</a>
</g>
</g>
<!-- avatars&#45;&gt;accounts -->
<g id="edge1" class="edge">
<title>avatars:w&#45;&gt;accounts:e</title>
<path fill="none" stroke="#000000" d="M298.8773,-212.7C280.803,-212.7 271.5391,-212.7 248,-212.7"/>
<polygon fill="#000000" stroke="#000000" points="305.5,-212.7001 313.5,-216.3 309.5,-212.7 313.5,-212.7 313.5,-212.7 313.5,-212.7 309.5,-212.7 313.5,-209.1 305.5,-212.7001 305.5,-212.7001"/>
<ellipse fill="none" stroke="#000000" cx="302.3" cy="-212.7001" rx="3.2" ry="3.2"/>
</g>
<!-- blog_posts -->
<g id="node3" class="node">
<title>blog_posts</title>
<g id="a_node3"><a xlink:href="../../tables/blog_posts.html" xlink:title="blog_posts" target="_top">
<polygon fill="#ffffff" stroke="transparent" points="489,-204.2 489,-331.2 614,-331.2 614,-204.2 489,-204.2"/>
<polygon fill="#f5f5f5" stroke="transparent" points="489.5,-307.7 489.5,-330.7 614.5,-330.7 614.5,-307.7 489.5,-307.7"/>
<polygon fill="none" stroke="#000000" points="489.5,-307.7 489.5,-330.7 614.5,-330.7 614.5,-307.7 489.5,-307.7"/>
<text text-anchor="start" x="494.5" y="-316.3" font-family="Helvetica,sans-Serif" font-weight="bold" font-size="11.00" fill="#000000">blog_posts</text>
<text text-anchor="start" x="579.5437" y="-315.8" font-family="Helvetica,sans-Serif" font-size="11.00" fill="#000000">[table]</text>
<polygon fill="none" stroke="#000000" points="489.5,-285.7 489.5,-307.7 614.5,-307.7 614.5,-285.7 489.5,-285.7"/>
<image xlink:href="../../images/primaryKeys.png" width="11px" height="12px" preserveAspectRatio="xMinYMin meet" x="494.5" y="-302.7"/>
<text text-anchor="start" x="509.5" y="-292.8" font-family="Helvetica,sans-Serif" font-size="11.00" fill="#000000">id</text>
<polygon fill="none" stroke="#000000" points="489.5,-263.7 489.5,-285.7 614.5,-285.7 614.5,-263.7 489.5,-263.7"/>
<image xlink:href="../../images/foreignKeys.png" width="11px" height="12px" preserveAspectRatio="xMinYMin meet" x="494.5" y="-280.7"/>
<text text-anchor="start" x="509.5" y="-270.8" font-family="Helvetica,sans-Serif" font-size="11.00" fill="#000000">account_id</text>
<polygon fill="none" stroke="#000000" points="489.5,-241.7 489.5,-263.7 614.5,-263.7 614.5,-241.7 489.5,-241.7"/>
<image xlink:href="../../images/foreignKeys.png" width="11px" height="12px" preserveAspectRatio="xMinYMin meet" x="494.5" y="-258.7"/>
<text text-anchor="start" x="509.5" y="-248.8" font-family="Helvetica,sans-Serif" font-size="11.00" fill="#000000">avatar_id</text>
<polygon fill="none" stroke="#000000" points="489.5,-222.7 489.5,-241.7 614.5,-241.7 614.5,-222.7 489.5,-222.7"/>
<text text-anchor="start" x="492.5" y="-228.8" font-family="Helvetica,sans-Serif" font-size="11.00" fill="#000000">...</text>
<polygon fill="#ffffff" stroke="transparent" points="489.5,-203.7 489.5,-222.7 550.5,-222.7 550.5,-203.7 489.5,-203.7"/>
<polygon fill="none" stroke="#000000" points="489.5,-203.7 489.5,-222.7 550.5,-222.7 550.5,-203.7 489.5,-203.7"/>
<text text-anchor="start" x="492.5" y="-209.8" font-family="Helvetica,sans-Serif" font-size="11.00" fill="#000000">&lt; 2</text>
<polygon fill="#ffffff" stroke="transparent" points="550.5,-203.7 550.5,-222.7 582.5,-222.7 582.5,-203.7 550.5,-203.7"/>
<polygon fill="none" stroke="#000000" points="550.5,-203.7 550.5,-222.7 582.5,-222.7 582.5,-203.7 550.5,-203.7"/>
<text text-anchor="start" x="573.3862" y="-209.8" font-family="Helvetica,sans-Serif" font-size="11.00" fill="#000000"> &#160;</text>
<polygon fill="#ffffff" stroke="transparent" points="582.5,-203.7 582.5,-222.7 614.5,-222.7 614.5,-203.7 582.5,-203.7"/>
<polygon fill="none" stroke="#000000" points="582.5,-203.7 582.5,-222.7 614.5,-222.7 614.5,-203.7 582.5,-203.7"/>
<text text-anchor="start" x="605.3862" y="-209.8" font-family="Helvetica,sans-Serif" font-size="11.00" fill="#000000"> &#160;</text>
</a>
</g>
</g>
<!-- blog_posts&#45;&gt;avatars -->
<g id="edge3" class="edge">
<title>blog_posts:w&#45;&gt;avatars:e</title>
<path fill="none" stroke="#000000" d="M475.1144,-250.9741C457.6652,-246.4688 450.0466,-234.7 426.5,-234.7"/>
<polygon fill="#000000" stroke="#000000" points="481.557,-251.747 489.0711,-256.2744 485.5285,-252.2235 489.5,-252.7 489.5,-252.7 489.5,-252.7 485.5285,-252.2235 489.9289,-249.1256 481.557,-251.747 481.557,-251.747"/>
<ellipse fill="none" stroke="#000000" cx="478.3797" cy="-251.3658" rx="3.2" ry="3.2"/>
</g>
<!-- blog_posts&#45;&gt;accounts -->
<g id="edge2" class="edge">
<title>blog_posts:w&#45;&gt;accounts:e</title>
<path fill="none" stroke="#000000" d="M475.0864,-275.6775C466.6642,-276.9054 460.6044,-278.9434 448,-279.7 378.3476,-283.8808 352.2322,-313.1598 291,-279.7 259.9504,-262.7332 283.3829,-212.7 248,-212.7"/>
<polygon fill="#000000" stroke="#000000" points="481.5183,-275.2413 489.7436,-278.2917 485.5092,-274.9707 489.5,-274.7 489.5,-274.7 489.5,-274.7 485.5092,-274.9707 489.2564,-271.1083 481.5183,-275.2413 481.5183,-275.2413"/>
<ellipse fill="none" stroke="#000000" cx="478.3257" cy="-275.4579" rx="3.2" ry="3.2"/>
</g>
<!-- user_in_accounts -->
<g id="node4" class="node">
<title>user_in_accounts</title>
<g id="a_node4"><a xlink:href="../../tables/user_in_accounts.html" xlink:title="user_in_accounts" target="_top">
<polygon fill="#ffffff" stroke="transparent" points="299,-38.2 299,-143.2 440,-143.2 440,-38.2 299,-38.2"/>
<polygon fill="#f5f5f5" stroke="transparent" points="299.5,-119.7 299.5,-142.7 440.5,-142.7 440.5,-119.7 299.5,-119.7"/>
<polygon fill="none" stroke="#000000" points="299.5,-119.7 299.5,-142.7 440.5,-142.7 440.5,-119.7 299.5,-119.7"/>
<text text-anchor="start" x="304.5" y="-128.3" font-family="Helvetica,sans-Serif" font-weight="bold" font-size="11.00" fill="#000000">user_in_accounts</text>
<text text-anchor="start" x="406.0219" y="-127.8" font-family="Helvetica,sans-Serif" font-size="11.00" fill="#000000">[table]</text>
<polygon fill="none" stroke="#000000" points="299.5,-97.7 299.5,-119.7 440.5,-119.7 440.5,-97.7 299.5,-97.7"/>
<image xlink:href="../../images/primaryKeys.png" width="11px" height="12px" preserveAspectRatio="xMinYMin meet" x="304.5" y="-114.7"/>
<text text-anchor="start" x="328.5" y="-104.8" font-family="Helvetica,sans-Serif" font-size="11.00" fill="#000000">user_id</text>
<polygon fill="none" stroke="#000000" points="299.5,-75.7 299.5,-97.7 440.5,-97.7 440.5,-75.7 299.5,-75.7"/>
<image xlink:href="../../images/primaryKeys.png" width="11px" height="12px" preserveAspectRatio="xMinYMin meet" x="304.5" y="-92.7"/>
<text text-anchor="start" x="328.5" y="-82.8" font-family="Helvetica,sans-Serif" font-size="11.00" fill="#000000">account_id</text>
<polygon fill="none" stroke="#000000" points="299.5,-56.7 299.5,-75.7 440.5,-75.7 440.5,-56.7 299.5,-56.7"/>
<text text-anchor="start" x="302.5" y="-62.8" font-family="Helvetica,sans-Serif" font-size="11.00" fill="#000000">...</text>
<polygon fill="#ffffff" stroke="transparent" points="299.5,-37.7 299.5,-56.7 368.5,-56.7 368.5,-37.7 299.5,-37.7"/>
<polygon fill="none" stroke="#000000" points="299.5,-37.7 299.5,-56.7 368.5,-56.7 368.5,-37.7 299.5,-37.7"/>
<text text-anchor="start" x="302.5" y="-43.8" font-family="Helvetica,sans-Serif" font-size="11.00" fill="#000000">&lt; 2</text>
<polygon fill="#ffffff" stroke="transparent" points="368.5,-37.7 368.5,-56.7 404.5,-56.7 404.5,-37.7 368.5,-37.7"/>
<polygon fill="none" stroke="#000000" points="368.5,-37.7 368.5,-56.7 404.5,-56.7 404.5,-37.7 368.5,-37.7"/>
<text text-anchor="start" x="395.3862" y="-43.8" font-family="Helvetica,sans-Serif" font-size="11.00" fill="#000000"> &#160;</text>
<polygon fill="#ffffff" stroke="transparent" points="404.5,-37.7 404.5,-56.7 440.5,-56.7 440.5,-37.7 404.5,-37.7"/>
<polygon fill="none" stroke="#000000" points="404.5,-37.7 404.5,-56.7 440.5,-56.7 440.5,-37.7 404.5,-37.7"/>
<text text-anchor="start" x="431.3862" y="-43.8" font-family="Helvetica,sans-Serif" font-size="11.00" fill="#000000"> &#160;</text>
</a>
</g>
</g>
<!-- user_in_accounts&#45;&gt;accounts -->
<g id="edge4" class="edge">
<title>user_in_accounts:w&#45;&gt;accounts:e</title>
<path fill="none" stroke="#000000" d="M285.2532,-90.0702C251.3363,-110.1077 302.5892,-212.7 248,-212.7"/>
<polygon fill="#000000" stroke="#000000" points="291.7149,-88.5417 300.3288,-90.2033 295.6074,-87.6208 299.5,-86.7 299.5,-86.7 299.5,-86.7 295.6074,-87.6208 298.6712,-83.1967 291.7149,-88.5417 291.7149,-88.5417"/>
<ellipse fill="none" stroke="#000000" cx="288.6008" cy="-89.2783" rx="3.2" ry="3.2"/>
</g>
</g>
</svg>
