<?xml version="1.0" encoding="UTF-8" standalone="no"?>
<!DOCTYPE svg PUBLIC "-//W3C//DTD SVG 1.1//EN"
 "http://www.w3.org/Graphics/SVG/1.1/DTD/svg11.dtd">
<!-- Generated by graphviz version 2.40.1 (20161225.0304)
 -->
<!-- Title: twoDegreesRelationshipsDiagram Pages: 1 -->
<svg width="582pt" height="336pt"
 viewBox="0.00 0.00 582.00 336.20" xmlns="http://www.w3.org/2000/svg" xmlns:xlink="http://www.w3.org/1999/xlink">
<g id="graph0" class="graph" transform="scale(1 1) rotate(0) translate(4 332.2)">
<title>twoDegreesRelationshipsDiagram</title>
<polygon fill="#ffffff" stroke="transparent" points="-4,4 -4,-332.2 578,-332.2 578,4 -4,4"/>
<text text-anchor="middle" x="72.4936" y="-7.3" font-family="Helvetica,sans-Serif" font-size="11.00" fill="#000000">Generated by SchemaSpy</text>
<!-- avatar_inputs -->
<g id="node1" class="node">
<title>avatar_inputs</title>
<g id="a_node1"><a xlink:href="../../tables/avatar_inputs.html" xlink:title="avatar_inputs" target="_top">
<polygon fill="#ffffff" stroke="transparent" points="409,-219.2 409,-324.2 566,-324.2 566,-219.2 409,-219.2"/>
<polygon fill="#f5f5f5" stroke="transparent" points="409.5,-300.7 409.5,-323.7 566.5,-323.7 566.5,-300.7 409.5,-300.7"/>
<polygon fill="none" stroke="#000000" points="409.5,-300.7 409.5,-323.7 566.5,-323.7 566.5,-300.7 409.5,-300.7"/>
<text text-anchor="start" x="414.5" y="-309.3" font-family="Helvetica,sans-Serif" font-weight="bold" font-size="11.00" fill="#000000">avatar_inputs</text>
<text text-anchor="start" x="531.5437" y="-308.8" font-family="Helvetica,sans-Serif" font-size="11.00" fill="#000000">[table]</text>
<polygon fill="none" stroke="#000000" points="409.5,-278.7 409.5,-300.7 566.5,-300.7 566.5,-278.7 409.5,-278.7"/>
<image xlink:href="../../images/primaryKeys.png" width="11px" height="12px" preserveAspectRatio="xMinYMin meet" x="414.5" y="-295.7"/>
<text text-anchor="start" x="429.5" y="-285.8" font-family="Helvetica,sans-Serif" font-size="11.00" fill="#000000">id</text>
<polygon fill="none" stroke="#000000" points="409.5,-256.7 409.5,-278.7 566.5,-278.7 566.5,-256.7 409.5,-256.7"/>
<image xlink:href="../../images/foreignKeys.png" width="11px" height="12px" preserveAspectRatio="xMinYMin meet" x="414.5" y="-273.7"/>
<text text-anchor="start" x="429.5" y="-263.8" font-family="Helvetica,sans-Serif" font-size="11.00" fill="#000000">avatar_id</text>
<polygon fill="none" stroke="#000000" points="409.5,-237.7 409.5,-256.7 566.5,-256.7 566.5,-237.7 409.5,-237.7"/>
<text text-anchor="start" x="412.5" y="-243.8" font-family="Helvetica,sans-Serif" font-size="11.00" fill="#000000">...</text>
<polygon fill="#ffffff" stroke="transparent" points="409.5,-218.7 409.5,-237.7 486.5,-237.7 486.5,-218.7 409.5,-218.7"/>
<polygon fill="none" stroke="#000000" points="409.5,-218.7 409.5,-237.7 486.5,-237.7 486.5,-218.7 409.5,-218.7"/>
<text text-anchor="start" x="412.5" y="-224.8" font-family="Helvetica,sans-Serif" font-size="11.00" fill="#000000">&lt; 1</text>
<polygon fill="#ffffff" stroke="transparent" points="486.5,-218.7 486.5,-237.7 526.5,-237.7 526.5,-218.7 486.5,-218.7"/>
<polygon fill="none" stroke="#000000" points="486.5,-218.7 486.5,-237.7 526.5,-237.7 526.5,-218.7 486.5,-218.7"/>
<text text-anchor="start" x="517.3862" y="-224.8" font-family="Helvetica,sans-Serif" font-size="11.00" fill="#000000"> &#160;</text>
<polygon fill="#ffffff" stroke="transparent" points="526.5,-218.7 526.5,-237.7 566.5,-237.7 566.5,-218.7 526.5,-218.7"/>
<polygon fill="none" stroke="#000000" points="526.5,-218.7 526.5,-237.7 566.5,-237.7 566.5,-218.7 526.5,-218.7"/>
<text text-anchor="start" x="557.3862" y="-224.8" font-family="Helvetica,sans-Serif" font-size="11.00" fill="#000000"> &#160;</text>
</a>
</g>
</g>
<!-- avatars -->
<g id="node2" class="node">
<title>avatars</title>
<g id="a_node2"><a xlink:href="../../tables/avatars.html" xlink:title="avatars" target="_top">
<polygon fill="#ffffff" stroke="transparent" points="149,-147.7 149,-303.7 360,-303.7 360,-147.7 149,-147.7"/>
<polygon fill="#f5f5f5" stroke="transparent" points="151.5,-278.7 151.5,-301.7 358.5,-301.7 358.5,-278.7 151.5,-278.7"/>
<polygon fill="none" stroke="#000000" points="151.5,-278.7 151.5,-301.7 358.5,-301.7 358.5,-278.7 151.5,-278.7"/>
<text text-anchor="start" x="156.5" y="-287.3" font-family="Helvetica,sans-Serif" font-weight="bold" font-size="11.00" fill="#000000">avatars</text>
<text text-anchor="start" x="323.5437" y="-286.8" font-family="Helvetica,sans-Serif" font-size="11.00" fill="#000000">[table]</text>
<polygon fill="none" stroke="#000000" points="151.5,-256.7 151.5,-278.7 264.5,-278.7 264.5,-256.7 151.5,-256.7"/>
<image xlink:href="../../images/primaryKeys.png" width="11px" height="12px" preserveAspectRatio="xMinYMin meet" x="156.5" y="-273.7"/>
<text text-anchor="start" x="171.5" y="-263.8" font-family="Helvetica,sans-Serif" font-size="11.00" fill="#000000">id</text>
<polygon fill="none" stroke="#000000" points="264.5,-256.7 264.5,-278.7 358.5,-278.7 358.5,-256.7 264.5,-256.7"/>
<text text-anchor="start" x="267.4758" y="-264.4" font-family="Helvetica,sans-Serif" font-size="11.00" fill="#000000">uuid[2147483647]</text>
<polygon fill="none" stroke="#000000" points="151.5,-234.7 151.5,-256.7 264.5,-256.7 264.5,-234.7 151.5,-234.7"/>
<image xlink:href="../../images/foreignKeys.png" width="11px" height="12px" preserveAspectRatio="xMinYMin meet" x="156.5" y="-251.7"/>
<text text-anchor="start" x="171.5" y="-241.8" font-family="Helvetica,sans-Serif" font-size="11.00" fill="#000000">account_id</text>
<polygon fill="none" stroke="#000000" points="264.5,-234.7 264.5,-256.7 358.5,-256.7 358.5,-234.7 264.5,-234.7"/>
<text text-anchor="start" x="267.4758" y="-242.4" font-family="Helvetica,sans-Serif" font-size="11.00" fill="#000000">uuid[2147483647]</text>
<polygon fill="none" stroke="#000000" points="151.5,-212.7 151.5,-234.7 264.5,-234.7 264.5,-212.7 151.5,-212.7"/>
<text text-anchor="start" x="171.5" y="-219.8" font-family="Helvetica,sans-Serif" font-size="11.00" fill="#000000">name</text>
<polygon fill="none" stroke="#000000" points="264.5,-212.7 264.5,-234.7 358.5,-234.7 358.5,-212.7 264.5,-212.7"/>
<text text-anchor="start" x="267.5" y="-220.4" font-family="Helvetica,sans-Serif" font-size="11.00" fill="#000000">text[2147483647]</text>
<polygon fill="none" stroke="#000000" points="151.5,-190.7 151.5,-212.7 264.5,-212.7 264.5,-190.7 151.5,-190.7"/>
<text text-anchor="start" x="171.5" y="-197.8" font-family="Helvetica,sans-Serif" font-size="11.00" fill="#000000">system_prompt</text>
<polygon fill="none" stroke="#000000" points="264.5,-190.7 264.5,-212.7 358.5,-212.7 358.5,-190.7 264.5,-190.7"/>
<text text-anchor="start" x="267.5" y="-198.4" font-family="Helvetica,sans-Serif" font-size="11.00" fill="#000000">text[2147483647]</text>
<polygon fill="none" stroke="#000000" points="151.5,-168.7 151.5,-190.7 264.5,-190.7 264.5,-168.7 151.5,-168.7"/>
<text text-anchor="start" x="171.5" y="-175.8" font-family="Helvetica,sans-Serif" font-size="11.00" fill="#000000">utc_created_on</text>
<polygon fill="none" stroke="#000000" points="264.5,-168.7 264.5,-190.7 358.5,-190.7 358.5,-168.7 264.5,-168.7"/>
<text text-anchor="start" x="267.5" y="-176.4" font-family="Helvetica,sans-Serif" font-size="11.00" fill="#000000">timestamp[29,6]</text>
<polygon fill="#ffffff" stroke="transparent" points="151.5,-149.7 151.5,-168.7 212.5,-168.7 212.5,-149.7 151.5,-149.7"/>
<polygon fill="none" stroke="#000000" points="151.5,-149.7 151.5,-168.7 212.5,-168.7 212.5,-149.7 151.5,-149.7"/>
<text text-anchor="start" x="154.5" y="-155.8" font-family="Helvetica,sans-Serif" font-size="11.00" fill="#000000">&lt; 1</text>
<polygon fill="#ffffff" stroke="transparent" points="212.5,-149.7 212.5,-168.7 264.5,-168.7 264.5,-149.7 212.5,-149.7"/>
<polygon fill="none" stroke="#000000" points="212.5,-149.7 212.5,-168.7 264.5,-168.7 264.5,-149.7 212.5,-149.7"/>
<text text-anchor="start" x="255.3862" y="-155.8" font-family="Helvetica,sans-Serif" font-size="11.00" fill="#000000"> &#160;</text>
<polygon fill="#ffffff" stroke="transparent" points="264.5,-149.7 264.5,-168.7 358.5,-168.7 358.5,-149.7 264.5,-149.7"/>
<polygon fill="none" stroke="#000000" points="264.5,-149.7 264.5,-168.7 358.5,-168.7 358.5,-149.7 264.5,-149.7"/>
<text text-anchor="start" x="339.9053" y="-155.8" font-family="Helvetica,sans-Serif" font-size="11.00" fill="#000000">2 &gt;</text>
<polygon fill="none" stroke="#000000" stroke-width="2" points="150,-148.7 150,-302.7 359,-302.7 359,-148.7 150,-148.7"/>
</a>
</g>
</g>
<!-- avatar_inputs&#45;&gt;avatars -->
<g id="edge1" class="edge">
<title>avatar_inputs:w&#45;&gt;avatars:e</title>
<path fill="none" stroke="#000000" d="M394.776,-267.7C382.7815,-267.7 375.3229,-267.7 358.5,-267.7"/>
<polygon fill="#000000" stroke="#000000" points="401.5,-267.7001 409.5,-271.3 405.5,-267.7 409.5,-267.7 409.5,-267.7 409.5,-267.7 405.5,-267.7 409.5,-264.1 401.5,-267.7001 401.5,-267.7001"/>
<ellipse fill="none" stroke="#000000" cx="398.3" cy="-267.7001" rx="3.2" ry="3.2"/>
</g>
<!-- accounts -->
<g id="node3" class="node">
<title>accounts</title>
<g id="a_node3"><a xlink:href="../../tables/accounts.html" xlink:title="accounts" target="_top">
<polygon fill="#ffffff" stroke="transparent" points="8,-93.2 8,-154.2 100,-154.2 100,-93.2 8,-93.2"/>
<polygon fill="#f5f5f5" stroke="transparent" points="8,-130.7 8,-153.7 100,-153.7 100,-130.7 8,-130.7"/>
<polygon fill="none" stroke="#000000" points="8,-130.7 8,-153.7 100,-153.7 100,-130.7 8,-130.7"/>
<text text-anchor="start" x="13" y="-139.3" font-family="Helvetica,sans-Serif" font-weight="bold" font-size="11.00" fill="#000000">accounts</text>
<text text-anchor="start" x="65.5219" y="-138.8" font-family="Helvetica,sans-Serif" font-size="11.00" fill="#000000">[table]</text>
<polygon fill="none" stroke="#000000" points="8,-111.7 8,-130.7 100,-130.7 100,-111.7 8,-111.7"/>
<text text-anchor="start" x="11" y="-117.8" font-family="Helvetica,sans-Serif" font-size="11.00" fill="#000000">...</text>
<polygon fill="#ffffff" stroke="transparent" points="8,-92.7 8,-111.7 43,-111.7 43,-92.7 8,-92.7"/>
<polygon fill="none" stroke="#000000" points="8,-92.7 8,-111.7 43,-111.7 43,-92.7 8,-92.7"/>
<text text-anchor="start" x="11" y="-98.8" font-family="Helvetica,sans-Serif" font-size="11.00" fill="#000000"> &#160;</text>
<polygon fill="#ffffff" stroke="transparent" points="43,-92.7 43,-111.7 67,-111.7 67,-92.7 43,-92.7"/>
<polygon fill="none" stroke="#000000" points="43,-92.7 43,-111.7 67,-111.7 67,-92.7 43,-92.7"/>
<text text-anchor="start" x="57.8862" y="-98.8" font-family="Helvetica,sans-Serif" font-size="11.00" fill="#000000"> &#160;</text>
<polygon fill="#ffffff" stroke="transparent" points="67,-92.7 67,-111.7 100,-111.7 100,-92.7 67,-92.7"/>
<polygon fill="none" stroke="#000000" points="67,-92.7 67,-111.7 100,-111.7 100,-92.7 67,-92.7"/>
<text text-anchor="start" x="81.4053" y="-98.8" font-family="Helvetica,sans-Serif" font-size="11.00" fill="#000000">3 &gt;</text>
</a>
</g>
</g>
<!-- avatars&#45;&gt;accounts -->
<g id="edge2" class="edge">
<title>avatars:w&#45;&gt;accounts:e</title>
<path fill="none" stroke="#000000" d="M136.8678,-243.8219C100.4074,-234.2733 77.2866,-190.3166 64.9902,-158.334"/>
<polygon fill="#000000" stroke="#000000" points="143.5651,-244.6815 151.0417,-249.2707 147.5325,-245.1907 151.5,-245.7 151.5,-245.7 151.5,-245.7 147.5325,-245.1907 151.9583,-242.1293 143.5651,-244.6815 143.5651,-244.6815"/>
<ellipse fill="none" stroke="#000000" cx="140.3911" cy="-244.274" rx="3.2" ry="3.2"/>
</g>
<!-- blog_posts -->
<g id="node4" class="node">
<title>blog_posts</title>
<g id="a_node4"><a xlink:href="../../tables/blog_posts.html" xlink:title="blog_posts" target="_top">
<polygon fill="#ffffff" stroke="transparent" points="436,-115.2 436,-176.2 539,-176.2 539,-115.2 436,-115.2"/>
<polygon fill="#f5f5f5" stroke="transparent" points="436.5,-152.7 436.5,-175.7 539.5,-175.7 539.5,-152.7 436.5,-152.7"/>
<polygon fill="none" stroke="#000000" points="436.5,-152.7 436.5,-175.7 539.5,-175.7 539.5,-152.7 436.5,-152.7"/>
<text text-anchor="start" x="441.5" y="-161.3" font-family="Helvetica,sans-Serif" font-weight="bold" font-size="11.00" fill="#000000">blog_posts</text>
<text text-anchor="start" x="505.0219" y="-160.8" font-family="Helvetica,sans-Serif" font-size="11.00" fill="#000000">[table]</text>
<polygon fill="none" stroke="#000000" points="436.5,-133.7 436.5,-152.7 539.5,-152.7 539.5,-133.7 436.5,-133.7"/>
<text text-anchor="start" x="439.5" y="-139.8" font-family="Helvetica,sans-Serif" font-size="11.00" fill="#000000">...</text>
<polygon fill="#ffffff" stroke="transparent" points="436.5,-114.7 436.5,-133.7 486.5,-133.7 486.5,-114.7 436.5,-114.7"/>
<polygon fill="none" stroke="#000000" points="436.5,-114.7 436.5,-133.7 486.5,-133.7 486.5,-114.7 436.5,-114.7"/>
<text text-anchor="start" x="439.5" y="-120.8" font-family="Helvetica,sans-Serif" font-size="11.00" fill="#000000">&lt; 2</text>
<polygon fill="#ffffff" stroke="transparent" points="486.5,-114.7 486.5,-133.7 512.5,-133.7 512.5,-114.7 486.5,-114.7"/>
<polygon fill="none" stroke="#000000" points="486.5,-114.7 486.5,-133.7 512.5,-133.7 512.5,-114.7 486.5,-114.7"/>
<text text-anchor="start" x="503.3862" y="-120.8" font-family="Helvetica,sans-Serif" font-size="11.00" fill="#000000"> &#160;</text>
<polygon fill="#ffffff" stroke="transparent" points="512.5,-114.7 512.5,-133.7 539.5,-133.7 539.5,-114.7 512.5,-114.7"/>
<polygon fill="none" stroke="#000000" points="512.5,-114.7 512.5,-133.7 539.5,-133.7 539.5,-114.7 512.5,-114.7"/>
<text text-anchor="start" x="530.3862" y="-120.8" font-family="Helvetica,sans-Serif" font-size="11.00" fill="#000000"> &#160;</text>
</a>
</g>
</g>
<!-- blog_posts&#45;&gt;avatars -->
<g id="edge4" class="edge">
<title>blog_posts:w&#45;&gt;avatars:e</title>
<path fill="none" stroke="#000000" d="M422.5471,-189.4657C414.9798,-195.5778 407.6126,-202.0527 401,-208.7 378.2083,-231.6114 390.8171,-267.7 358.5,-267.7"/>
<polygon fill="#000000" stroke="#000000" points="427.7924,-185.3965 436.32,-183.3373 430.9529,-182.9447 434.1133,-180.4929 434.1133,-180.4929 434.1133,-180.4929 430.9529,-182.9447 431.9067,-177.6484 427.7924,-185.3965 427.7924,-185.3965"/>
<ellipse fill="none" stroke="#000000" cx="425.264" cy="-187.358" rx="3.2" ry="3.2"/>
</g>
<!-- blog_posts&#45;&gt;accounts -->
<g id="edge3" class="edge">
<title>blog_posts:w&#45;&gt;accounts:e</title>
<path fill="none" stroke="#000000" d="M413.2517,-140.4715C398.2741,-139.4894 382.6363,-138.5161 368,-137.7 276.8765,-132.6191 170.7948,-128.2015 108.194,-125.7492"/>
<polygon fill="#000000" stroke="#000000" points="419.9655,-140.9189 427.7084,-145.043 423.9567,-141.1849 427.9478,-141.451 427.9478,-141.451 427.9478,-141.451 423.9567,-141.1849 428.1872,-137.8589 419.9655,-140.9189 419.9655,-140.9189"/>
<ellipse fill="none" stroke="#000000" cx="416.7726" cy="-140.7061" rx="3.2" ry="3.2"/>
</g>
<!-- user_in_accounts -->
<g id="node5" class="node">
<title>user_in_accounts</title>
<g id="a_node5"><a xlink:href="../../tables/user_in_accounts.html" xlink:title="user_in_accounts" target="_top">
<polygon fill="#ffffff" stroke="transparent" points="184,-38.2 184,-99.2 325,-99.2 325,-38.2 184,-38.2"/>
<polygon fill="#f5f5f5" stroke="transparent" points="184.5,-75.7 184.5,-98.7 325.5,-98.7 325.5,-75.7 184.5,-75.7"/>
<polygon fill="none" stroke="#000000" points="184.5,-75.7 184.5,-98.7 325.5,-98.7 325.5,-75.7 184.5,-75.7"/>
<text text-anchor="start" x="189.5" y="-84.3" font-family="Helvetica,sans-Serif" font-weight="bold" font-size="11.00" fill="#000000">user_in_accounts</text>
<text text-anchor="start" x="291.0219" y="-83.8" font-family="Helvetica,sans-Serif" font-size="11.00" fill="#000000">[table]</text>
<polygon fill="none" stroke="#000000" points="184.5,-56.7 184.5,-75.7 325.5,-75.7 325.5,-56.7 184.5,-56.7"/>
<text text-anchor="start" x="187.5" y="-62.8" font-family="Helvetica,sans-Serif" font-size="11.00" fill="#000000">...</text>
<polygon fill="#ffffff" stroke="transparent" points="184.5,-37.7 184.5,-56.7 253.5,-56.7 253.5,-37.7 184.5,-37.7"/>
<polygon fill="none" stroke="#000000" points="184.5,-37.7 184.5,-56.7 253.5,-56.7 253.5,-37.7 184.5,-37.7"/>
<text text-anchor="start" x="187.5" y="-43.8" font-family="Helvetica,sans-Serif" font-size="11.00" fill="#000000">&lt; 2</text>
<polygon fill="#ffffff" stroke="transparent" points="253.5,-37.7 253.5,-56.7 289.5,-56.7 289.5,-37.7 253.5,-37.7"/>
<polygon fill="none" stroke="#000000" points="253.5,-37.7 253.5,-56.7 289.5,-56.7 289.5,-37.7 253.5,-37.7"/>
<text text-anchor="start" x="280.3862" y="-43.8" font-family="Helvetica,sans-Serif" font-size="11.00" fill="#000000"> &#160;</text>
<polygon fill="#ffffff" stroke="transparent" points="289.5,-37.7 289.5,-56.7 325.5,-56.7 325.5,-37.7 289.5,-37.7"/>
<polygon fill="none" stroke="#000000" points="289.5,-37.7 289.5,-56.7 325.5,-56.7 325.5,-37.7 289.5,-37.7"/>
<text text-anchor="start" x="316.3862" y="-43.8" font-family="Helvetica,sans-Serif" font-size="11.00" fill="#000000"> &#160;</text>
</a>
</g>
</g>
<!-- user_in_accounts&#45;&gt;accounts -->
<g id="edge5" class="edge">
<title>user_in_accounts:w&#45;&gt;accounts:e</title>
<path fill="none" stroke="#000000" d="M169.891,-66.6679C147.0589,-69.6119 124.4646,-78.886 105.3737,-89.1236"/>
<polygon fill="#000000" stroke="#000000" points="176.5175,-66.2289 184.738,-69.2921 180.5087,-65.9644 184.5,-65.7 184.5,-65.7 184.5,-65.7 180.5087,-65.9644 184.262,-62.1079 176.5175,-66.2289 176.5175,-66.2289"/>
<ellipse fill="none" stroke="#000000" cx="173.3245" cy="-66.4405" rx="3.2" ry="3.2"/>
</g>
</g>
</svg>
