<?xml version="1.0" encoding="UTF-8" standalone="no"?>
<!DOCTYPE svg PUBLIC "-//W3C//DTD SVG 1.1//EN"
 "http://www.w3.org/Graphics/SVG/1.1/DTD/svg11.dtd">
<!-- Generated by graphviz version 2.40.1 (20161225.0304)
 -->
<!-- Title: oneDegreeRelationshipsDiagram Pages: 1 -->
<svg width="601pt" height="303pt"
 viewBox="0.00 0.00 601.00 303.20" xmlns="http://www.w3.org/2000/svg" xmlns:xlink="http://www.w3.org/1999/xlink">
<g id="graph0" class="graph" transform="scale(1 1) rotate(0) translate(4 299.2)">
<title>oneDegreeRelationshipsDiagram</title>
<polygon fill="#ffffff" stroke="transparent" points="-4,4 -4,-299.2 597,-299.2 597,4 -4,4"/>
<text text-anchor="middle" x="72.4936" y="-7.3" font-family="Helvetica,sans-Serif" font-size="11.00" fill="#000000">Generated by SchemaSpy</text>
<!-- avatar_inputs -->
<g id="node1" class="node">
<title>avatar_inputs</title>
<g id="a_node1"><a xlink:href="../../tables/avatar_inputs.html" xlink:title="avatar_inputs" target="_top">
<polygon fill="#ffffff" stroke="transparent" points="428,-38.2 428,-143.2 585,-143.2 585,-38.2 428,-38.2"/>
<polygon fill="#f5f5f5" stroke="transparent" points="428.5,-119.7 428.5,-142.7 585.5,-142.7 585.5,-119.7 428.5,-119.7"/>
<polygon fill="none" stroke="#000000" points="428.5,-119.7 428.5,-142.7 585.5,-142.7 585.5,-119.7 428.5,-119.7"/>
<text text-anchor="start" x="433.5" y="-128.3" font-family="Helvetica,sans-Serif" font-weight="bold" font-size="11.00" fill="#000000">avatar_inputs</text>
<text text-anchor="start" x="550.5437" y="-127.8" font-family="Helvetica,sans-Serif" font-size="11.00" fill="#000000">[table]</text>
<polygon fill="none" stroke="#000000" points="428.5,-97.7 428.5,-119.7 585.5,-119.7 585.5,-97.7 428.5,-97.7"/>
<image xlink:href="../../images/primaryKeys.png" width="11px" height="12px" preserveAspectRatio="xMinYMin meet" x="433.5" y="-114.7"/>
<text text-anchor="start" x="448.5" y="-104.8" font-family="Helvetica,sans-Serif" font-size="11.00" fill="#000000">id</text>
<polygon fill="none" stroke="#000000" points="428.5,-75.7 428.5,-97.7 585.5,-97.7 585.5,-75.7 428.5,-75.7"/>
<image xlink:href="../../images/foreignKeys.png" width="11px" height="12px" preserveAspectRatio="xMinYMin meet" x="433.5" y="-92.7"/>
<text text-anchor="start" x="448.5" y="-82.8" font-family="Helvetica,sans-Serif" font-size="11.00" fill="#000000">avatar_id</text>
<polygon fill="none" stroke="#000000" points="428.5,-56.7 428.5,-75.7 585.5,-75.7 585.5,-56.7 428.5,-56.7"/>
<text text-anchor="start" x="431.5" y="-62.8" font-family="Helvetica,sans-Serif" font-size="11.00" fill="#000000">...</text>
<polygon fill="#ffffff" stroke="transparent" points="428.5,-37.7 428.5,-56.7 505.5,-56.7 505.5,-37.7 428.5,-37.7"/>
<polygon fill="none" stroke="#000000" points="428.5,-37.7 428.5,-56.7 505.5,-56.7 505.5,-37.7 428.5,-37.7"/>
<text text-anchor="start" x="431.5" y="-43.8" font-family="Helvetica,sans-Serif" font-size="11.00" fill="#000000">&lt; 1</text>
<polygon fill="#ffffff" stroke="transparent" points="505.5,-37.7 505.5,-56.7 545.5,-56.7 545.5,-37.7 505.5,-37.7"/>
<polygon fill="none" stroke="#000000" points="505.5,-37.7 505.5,-56.7 545.5,-56.7 545.5,-37.7 505.5,-37.7"/>
<text text-anchor="start" x="536.3862" y="-43.8" font-family="Helvetica,sans-Serif" font-size="11.00" fill="#000000"> &#160;</text>
<polygon fill="#ffffff" stroke="transparent" points="545.5,-37.7 545.5,-56.7 585.5,-56.7 585.5,-37.7 545.5,-37.7"/>
<polygon fill="none" stroke="#000000" points="545.5,-37.7 545.5,-56.7 585.5,-56.7 585.5,-37.7 545.5,-37.7"/>
<text text-anchor="start" x="576.3862" y="-43.8" font-family="Helvetica,sans-Serif" font-size="11.00" fill="#000000"> &#160;</text>
</a>
</g>
</g>
<!-- avatars -->
<g id="node2" class="node">
<title>avatars</title>
<g id="a_node2"><a xlink:href="../../tables/avatars.html" xlink:title="avatars" target="_top">
<polygon fill="#ffffff" stroke="transparent" points="168,-54.7 168,-210.7 379,-210.7 379,-54.7 168,-54.7"/>
<polygon fill="#f5f5f5" stroke="transparent" points="170.5,-185.7 170.5,-208.7 377.5,-208.7 377.5,-185.7 170.5,-185.7"/>
<polygon fill="none" stroke="#000000" points="170.5,-185.7 170.5,-208.7 377.5,-208.7 377.5,-185.7 170.5,-185.7"/>
<text text-anchor="start" x="175.5" y="-194.3" font-family="Helvetica,sans-Serif" font-weight="bold" font-size="11.00" fill="#000000">avatars</text>
<text text-anchor="start" x="342.5437" y="-193.8" font-family="Helvetica,sans-Serif" font-size="11.00" fill="#000000">[table]</text>
<polygon fill="none" stroke="#000000" points="170.5,-163.7 170.5,-185.7 283.5,-185.7 283.5,-163.7 170.5,-163.7"/>
<image xlink:href="../../images/primaryKeys.png" width="11px" height="12px" preserveAspectRatio="xMinYMin meet" x="175.5" y="-180.7"/>
<text text-anchor="start" x="190.5" y="-170.8" font-family="Helvetica,sans-Serif" font-size="11.00" fill="#000000">id</text>
<polygon fill="none" stroke="#000000" points="283.5,-163.7 283.5,-185.7 377.5,-185.7 377.5,-163.7 283.5,-163.7"/>
<text text-anchor="start" x="286.4758" y="-171.4" font-family="Helvetica,sans-Serif" font-size="11.00" fill="#000000">uuid[2147483647]</text>
<polygon fill="none" stroke="#000000" points="170.5,-141.7 170.5,-163.7 283.5,-163.7 283.5,-141.7 170.5,-141.7"/>
<image xlink:href="../../images/foreignKeys.png" width="11px" height="12px" preserveAspectRatio="xMinYMin meet" x="175.5" y="-158.7"/>
<text text-anchor="start" x="190.5" y="-148.8" font-family="Helvetica,sans-Serif" font-size="11.00" fill="#000000">account_id</text>
<polygon fill="none" stroke="#000000" points="283.5,-141.7 283.5,-163.7 377.5,-163.7 377.5,-141.7 283.5,-141.7"/>
<text text-anchor="start" x="286.4758" y="-149.4" font-family="Helvetica,sans-Serif" font-size="11.00" fill="#000000">uuid[2147483647]</text>
<polygon fill="none" stroke="#000000" points="170.5,-119.7 170.5,-141.7 283.5,-141.7 283.5,-119.7 170.5,-119.7"/>
<text text-anchor="start" x="190.5" y="-126.8" font-family="Helvetica,sans-Serif" font-size="11.00" fill="#000000">name</text>
<polygon fill="none" stroke="#000000" points="283.5,-119.7 283.5,-141.7 377.5,-141.7 377.5,-119.7 283.5,-119.7"/>
<text text-anchor="start" x="286.5" y="-127.4" font-family="Helvetica,sans-Serif" font-size="11.00" fill="#000000">text[2147483647]</text>
<polygon fill="none" stroke="#000000" points="170.5,-97.7 170.5,-119.7 283.5,-119.7 283.5,-97.7 170.5,-97.7"/>
<text text-anchor="start" x="190.5" y="-104.8" font-family="Helvetica,sans-Serif" font-size="11.00" fill="#000000">system_prompt</text>
<polygon fill="none" stroke="#000000" points="283.5,-97.7 283.5,-119.7 377.5,-119.7 377.5,-97.7 283.5,-97.7"/>
<text text-anchor="start" x="286.5" y="-105.4" font-family="Helvetica,sans-Serif" font-size="11.00" fill="#000000">text[2147483647]</text>
<polygon fill="none" stroke="#000000" points="170.5,-75.7 170.5,-97.7 283.5,-97.7 283.5,-75.7 170.5,-75.7"/>
<text text-anchor="start" x="190.5" y="-82.8" font-family="Helvetica,sans-Serif" font-size="11.00" fill="#000000">utc_created_on</text>
<polygon fill="none" stroke="#000000" points="283.5,-75.7 283.5,-97.7 377.5,-97.7 377.5,-75.7 283.5,-75.7"/>
<text text-anchor="start" x="286.5" y="-83.4" font-family="Helvetica,sans-Serif" font-size="11.00" fill="#000000">timestamp[29,6]</text>
<polygon fill="#ffffff" stroke="transparent" points="170.5,-56.7 170.5,-75.7 231.5,-75.7 231.5,-56.7 170.5,-56.7"/>
<polygon fill="none" stroke="#000000" points="170.5,-56.7 170.5,-75.7 231.5,-75.7 231.5,-56.7 170.5,-56.7"/>
<text text-anchor="start" x="173.5" y="-62.8" font-family="Helvetica,sans-Serif" font-size="11.00" fill="#000000">&lt; 1</text>
<polygon fill="#ffffff" stroke="transparent" points="231.5,-56.7 231.5,-75.7 283.5,-75.7 283.5,-56.7 231.5,-56.7"/>
<polygon fill="none" stroke="#000000" points="231.5,-56.7 231.5,-75.7 283.5,-75.7 283.5,-56.7 231.5,-56.7"/>
<text text-anchor="start" x="274.3862" y="-62.8" font-family="Helvetica,sans-Serif" font-size="11.00" fill="#000000"> &#160;</text>
<polygon fill="#ffffff" stroke="transparent" points="283.5,-56.7 283.5,-75.7 377.5,-75.7 377.5,-56.7 283.5,-56.7"/>
<polygon fill="none" stroke="#000000" points="283.5,-56.7 283.5,-75.7 377.5,-75.7 377.5,-56.7 283.5,-56.7"/>
<text text-anchor="start" x="358.9053" y="-62.8" font-family="Helvetica,sans-Serif" font-size="11.00" fill="#000000">2 &gt;</text>
<polygon fill="none" stroke="#000000" stroke-width="2" points="169,-55.7 169,-209.7 378,-209.7 378,-55.7 169,-55.7"/>
</a>
</g>
</g>
<!-- avatar_inputs&#45;&gt;avatars -->
<g id="edge1" class="edge">
<title>avatar_inputs:w&#45;&gt;avatars:e</title>
<path fill="none" stroke="#000000" d="M414.5699,-90.9444C392.2709,-108.5228 416.7009,-174.7 377.5,-174.7"/>
<polygon fill="#000000" stroke="#000000" points="420.8473,-89.0318 429.5493,-90.1437 424.6737,-87.8659 428.5,-86.7 428.5,-86.7 428.5,-86.7 424.6737,-87.8659 427.4507,-83.2563 420.8473,-89.0318 420.8473,-89.0318"/>
<ellipse fill="none" stroke="#000000" cx="417.7863" cy="-89.9645" rx="3.2" ry="3.2"/>
</g>
<!-- accounts -->
<g id="node3" class="node">
<title>accounts</title>
<g id="a_node3"><a xlink:href="../../tables/accounts.html" xlink:title="accounts" target="_top">
<polygon fill="#ffffff" stroke="transparent" points="8,-123.2 8,-228.2 119,-228.2 119,-123.2 8,-123.2"/>
<polygon fill="#f5f5f5" stroke="transparent" points="8.5,-204.7 8.5,-227.7 119.5,-227.7 119.5,-204.7 8.5,-204.7"/>
<polygon fill="none" stroke="#000000" points="8.5,-204.7 8.5,-227.7 119.5,-227.7 119.5,-204.7 8.5,-204.7"/>
<text text-anchor="start" x="13.5" y="-213.3" font-family="Helvetica,sans-Serif" font-weight="bold" font-size="11.00" fill="#000000">accounts</text>
<text text-anchor="start" x="84.5437" y="-212.8" font-family="Helvetica,sans-Serif" font-size="11.00" fill="#000000">[table]</text>
<polygon fill="none" stroke="#000000" points="8.5,-182.7 8.5,-204.7 119.5,-204.7 119.5,-182.7 8.5,-182.7"/>
<image xlink:href="../../images/primaryKeys.png" width="11px" height="12px" preserveAspectRatio="xMinYMin meet" x="13.5" y="-199.7"/>
<text text-anchor="start" x="28.5" y="-189.8" font-family="Helvetica,sans-Serif" font-size="11.00" fill="#000000">id</text>
<polygon fill="#ffffff" stroke="transparent" points="8.5,-160.7 8.5,-182.7 119.5,-182.7 119.5,-160.7 8.5,-160.7"/>
<polygon fill="none" stroke="#000000" points="8.5,-160.7 8.5,-182.7 119.5,-182.7 119.5,-160.7 8.5,-160.7"/>
<text text-anchor="start" x="28.5" y="-167.8" font-family="Helvetica,sans-Serif" font-size="11.00" fill="#000000">link</text>
<polygon fill="none" stroke="#000000" points="8.5,-141.7 8.5,-160.7 119.5,-160.7 119.5,-141.7 8.5,-141.7"/>
<text text-anchor="start" x="11.5" y="-147.8" font-family="Helvetica,sans-Serif" font-size="11.00" fill="#000000">...</text>
<polygon fill="#ffffff" stroke="transparent" points="8.5,-122.7 8.5,-141.7 53.5,-141.7 53.5,-122.7 8.5,-122.7"/>
<polygon fill="none" stroke="#000000" points="8.5,-122.7 8.5,-141.7 53.5,-141.7 53.5,-122.7 8.5,-122.7"/>
<text text-anchor="start" x="11.5" y="-128.8" font-family="Helvetica,sans-Serif" font-size="11.00" fill="#000000"> &#160;</text>
<polygon fill="#ffffff" stroke="transparent" points="53.5,-122.7 53.5,-141.7 81.5,-141.7 81.5,-122.7 53.5,-122.7"/>
<polygon fill="none" stroke="#000000" points="53.5,-122.7 53.5,-141.7 81.5,-141.7 81.5,-122.7 53.5,-122.7"/>
<text text-anchor="start" x="72.3862" y="-128.8" font-family="Helvetica,sans-Serif" font-size="11.00" fill="#000000"> &#160;</text>
<polygon fill="#ffffff" stroke="transparent" points="81.5,-122.7 81.5,-141.7 119.5,-141.7 119.5,-122.7 81.5,-122.7"/>
<polygon fill="none" stroke="#000000" points="81.5,-122.7 81.5,-141.7 119.5,-141.7 119.5,-122.7 81.5,-122.7"/>
<text text-anchor="start" x="100.9053" y="-128.8" font-family="Helvetica,sans-Serif" font-size="11.00" fill="#000000">3 &gt;</text>
</a>
</g>
</g>
<!-- avatars&#45;&gt;accounts -->
<g id="edge2" class="edge">
<title>avatars:w&#45;&gt;accounts:e</title>
<path fill="none" stroke="#000000" d="M156.6568,-157.0877C142.8325,-167.6646 142.6756,-193.7 119.5,-193.7"/>
<polygon fill="#000000" stroke="#000000" points="162.8739,-155.1172 171.5877,-156.1317 166.6869,-153.9086 170.5,-152.7 170.5,-152.7 170.5,-152.7 166.6869,-153.9086 169.4123,-149.2683 162.8739,-155.1172 162.8739,-155.1172"/>
<ellipse fill="none" stroke="#000000" cx="159.8235" cy="-156.0841" rx="3.2" ry="3.2"/>
</g>
<!-- blog_posts -->
<g id="node4" class="node">
<title>blog_posts</title>
<g id="a_node4"><a xlink:href="../../tables/blog_posts.html" xlink:title="blog_posts" target="_top">
<polygon fill="#ffffff" stroke="transparent" points="444,-164.2 444,-291.2 569,-291.2 569,-164.2 444,-164.2"/>
<polygon fill="#f5f5f5" stroke="transparent" points="444.5,-267.7 444.5,-290.7 569.5,-290.7 569.5,-267.7 444.5,-267.7"/>
<polygon fill="none" stroke="#000000" points="444.5,-267.7 444.5,-290.7 569.5,-290.7 569.5,-267.7 444.5,-267.7"/>
<text text-anchor="start" x="449.5" y="-276.3" font-family="Helvetica,sans-Serif" font-weight="bold" font-size="11.00" fill="#000000">blog_posts</text>
<text text-anchor="start" x="534.5437" y="-275.8" font-family="Helvetica,sans-Serif" font-size="11.00" fill="#000000">[table]</text>
<polygon fill="none" stroke="#000000" points="444.5,-245.7 444.5,-267.7 569.5,-267.7 569.5,-245.7 444.5,-245.7"/>
<image xlink:href="../../images/primaryKeys.png" width="11px" height="12px" preserveAspectRatio="xMinYMin meet" x="449.5" y="-262.7"/>
<text text-anchor="start" x="464.5" y="-252.8" font-family="Helvetica,sans-Serif" font-size="11.00" fill="#000000">id</text>
<polygon fill="none" stroke="#000000" points="444.5,-223.7 444.5,-245.7 569.5,-245.7 569.5,-223.7 444.5,-223.7"/>
<image xlink:href="../../images/foreignKeys.png" width="11px" height="12px" preserveAspectRatio="xMinYMin meet" x="449.5" y="-240.7"/>
<text text-anchor="start" x="464.5" y="-230.8" font-family="Helvetica,sans-Serif" font-size="11.00" fill="#000000">account_id</text>
<polygon fill="none" stroke="#000000" points="444.5,-201.7 444.5,-223.7 569.5,-223.7 569.5,-201.7 444.5,-201.7"/>
<image xlink:href="../../images/foreignKeys.png" width="11px" height="12px" preserveAspectRatio="xMinYMin meet" x="449.5" y="-218.7"/>
<text text-anchor="start" x="464.5" y="-208.8" font-family="Helvetica,sans-Serif" font-size="11.00" fill="#000000">avatar_id</text>
<polygon fill="none" stroke="#000000" points="444.5,-182.7 444.5,-201.7 569.5,-201.7 569.5,-182.7 444.5,-182.7"/>
<text text-anchor="start" x="447.5" y="-188.8" font-family="Helvetica,sans-Serif" font-size="11.00" fill="#000000">...</text>
<polygon fill="#ffffff" stroke="transparent" points="444.5,-163.7 444.5,-182.7 505.5,-182.7 505.5,-163.7 444.5,-163.7"/>
<polygon fill="none" stroke="#000000" points="444.5,-163.7 444.5,-182.7 505.5,-182.7 505.5,-163.7 444.5,-163.7"/>
<text text-anchor="start" x="447.5" y="-169.8" font-family="Helvetica,sans-Serif" font-size="11.00" fill="#000000">&lt; 2</text>
<polygon fill="#ffffff" stroke="transparent" points="505.5,-163.7 505.5,-182.7 537.5,-182.7 537.5,-163.7 505.5,-163.7"/>
<polygon fill="none" stroke="#000000" points="505.5,-163.7 505.5,-182.7 537.5,-182.7 537.5,-163.7 505.5,-163.7"/>
<text text-anchor="start" x="528.3862" y="-169.8" font-family="Helvetica,sans-Serif" font-size="11.00" fill="#000000"> &#160;</text>
<polygon fill="#ffffff" stroke="transparent" points="537.5,-163.7 537.5,-182.7 569.5,-182.7 569.5,-163.7 537.5,-163.7"/>
<polygon fill="none" stroke="#000000" points="537.5,-163.7 537.5,-182.7 569.5,-182.7 569.5,-163.7 537.5,-163.7"/>
<text text-anchor="start" x="560.3862" y="-169.8" font-family="Helvetica,sans-Serif" font-size="11.00" fill="#000000"> &#160;</text>
</a>
</g>
</g>
<!-- blog_posts&#45;&gt;avatars -->
<g id="edge4" class="edge">
<title>blog_posts:w&#45;&gt;avatars:e</title>
<path fill="none" stroke="#000000" d="M430.2181,-209.9671C409.7868,-201.2541 406.1173,-174.7 377.5,-174.7"/>
<polygon fill="#000000" stroke="#000000" points="436.6426,-211.1964 443.8234,-216.2358 440.5713,-211.9482 444.5,-212.7 444.5,-212.7 444.5,-212.7 440.5713,-211.9482 445.1766,-209.1642 436.6426,-211.1964 436.6426,-211.1964"/>
<ellipse fill="none" stroke="#000000" cx="433.4996" cy="-210.595" rx="3.2" ry="3.2"/>
</g>
<!-- blog_posts&#45;&gt;accounts -->
<g id="edge3" class="edge">
<title>blog_posts:w&#45;&gt;accounts:e</title>
<path fill="none" stroke="#000000" d="M430.0622,-234.82C314.831,-236.741 275.2537,-260.5707 160,-221.7 139.2646,-214.7067 141.383,-193.7 119.5,-193.7"/>
<polygon fill="#000000" stroke="#000000" points="436.5003,-234.7665 444.5299,-238.2999 440.5001,-234.7333 444.5,-234.7 444.5,-234.7 444.5,-234.7 440.5001,-234.7333 444.4701,-231.1001 436.5003,-234.7665 436.5003,-234.7665"/>
<ellipse fill="none" stroke="#000000" cx="433.3004" cy="-234.7931" rx="3.2" ry="3.2"/>
</g>
</g>
</svg>
