<?xml version="1.0" encoding="UTF-8" standalone="no"?>
<!DOCTYPE svg PUBLIC "-//W3C//DTD SVG 1.1//EN"
 "http://www.w3.org/Graphics/SVG/1.1/DTD/svg11.dtd">
<!-- Generated by graphviz version 2.40.1 (20161225.0304)
 -->
<!-- Title: twoDegreesRelationshipsDiagram Pages: 1 -->
<svg width="657pt" height="421pt"
 viewBox="0.00 0.00 657.00 420.70" xmlns="http://www.w3.org/2000/svg" xmlns:xlink="http://www.w3.org/1999/xlink">
<g id="graph0" class="graph" transform="scale(1 1) rotate(0) translate(4 416.7)">
<title>twoDegreesRelationshipsDiagram</title>
<polygon fill="#ffffff" stroke="transparent" points="-4,4 -4,-416.7 653,-416.7 653,4 -4,4"/>
<text text-anchor="middle" x="72.4936" y="-7.3" font-family="Helvetica,sans-Serif" font-size="11.00" fill="#000000">Generated by SchemaSpy</text>
<!-- avatar_inputs -->
<g id="node1" class="node">
<title>avatar_inputs</title>
<g id="a_node1"><a xlink:href="../../tables/avatar_inputs.html" xlink:title="avatar_inputs" target="_top">
<polygon fill="#ffffff" stroke="transparent" points="311,-120.7 311,-408.7 641,-408.7 641,-120.7 311,-120.7"/>
<polygon fill="#f5f5f5" stroke="transparent" points="313,-383.7 313,-406.7 639,-406.7 639,-383.7 313,-383.7"/>
<polygon fill="none" stroke="#000000" points="313,-383.7 313,-406.7 639,-406.7 639,-383.7 313,-383.7"/>
<text text-anchor="start" x="318" y="-392.3" font-family="Helvetica,sans-Serif" font-weight="bold" font-size="11.00" fill="#000000">avatar_inputs</text>
<text text-anchor="start" x="604.0437" y="-391.8" font-family="Helvetica,sans-Serif" font-size="11.00" fill="#000000">[table]</text>
<polygon fill="none" stroke="#000000" points="313,-361.7 313,-383.7 470,-383.7 470,-361.7 313,-361.7"/>
<image xlink:href="../../images/primaryKeys.png" width="11px" height="12px" preserveAspectRatio="xMinYMin meet" x="318" y="-378.7"/>
<text text-anchor="start" x="333" y="-368.8" font-family="Helvetica,sans-Serif" font-size="11.00" fill="#000000">id</text>
<polygon fill="none" stroke="#000000" points="470,-361.7 470,-383.7 639,-383.7 639,-361.7 470,-361.7"/>
<text text-anchor="start" x="473" y="-369.4" font-family="Helvetica,sans-Serif" font-size="11.00" fill="#000000">uuid[2147483647]</text>
<polygon fill="none" stroke="#000000" points="313,-339.7 313,-361.7 470,-361.7 470,-339.7 313,-339.7"/>
<image xlink:href="../../images/foreignKeys.png" width="11px" height="12px" preserveAspectRatio="xMinYMin meet" x="318" y="-356.7"/>
<text text-anchor="start" x="333" y="-346.8" font-family="Helvetica,sans-Serif" font-size="11.00" fill="#000000">avatar_id</text>
<polygon fill="none" stroke="#000000" points="470,-339.7 470,-361.7 639,-361.7 639,-339.7 470,-339.7"/>
<text text-anchor="start" x="473" y="-347.4" font-family="Helvetica,sans-Serif" font-size="11.00" fill="#000000">uuid[2147483647]</text>
<polygon fill="none" stroke="#000000" points="313,-317.7 313,-339.7 470,-339.7 470,-317.7 313,-317.7"/>
<text text-anchor="start" x="333" y="-324.8" font-family="Helvetica,sans-Serif" font-size="11.00" fill="#000000">youtube_url</text>
<polygon fill="none" stroke="#000000" points="470,-317.7 470,-339.7 639,-339.7 639,-317.7 470,-317.7"/>
<text text-anchor="start" x="473" y="-325.4" font-family="Helvetica,sans-Serif" font-size="11.00" fill="#000000">text[2147483647]</text>
<polygon fill="none" stroke="#000000" points="313,-295.7 313,-317.7 470,-317.7 470,-295.7 313,-295.7"/>
<text text-anchor="start" x="333" y="-302.8" font-family="Helvetica,sans-Serif" font-size="11.00" fill="#000000">status</text>
<polygon fill="none" stroke="#000000" points="470,-295.7 470,-317.7 639,-317.7 639,-295.7 470,-295.7"/>
<text text-anchor="start" x="472.8789" y="-303.4" font-family="Helvetica,sans-Serif" font-size="11.00" fill="#000000">avatar_input_status[2147483647]</text>
<polygon fill="none" stroke="#000000" points="313,-273.7 313,-295.7 470,-295.7 470,-273.7 313,-273.7"/>
<text text-anchor="start" x="333" y="-280.8" font-family="Helvetica,sans-Serif" font-size="11.00" fill="#000000">filepath</text>
<polygon fill="none" stroke="#000000" points="470,-273.7 470,-295.7 639,-295.7 639,-273.7 470,-273.7"/>
<text text-anchor="start" x="473" y="-281.4" font-family="Helvetica,sans-Serif" font-size="11.00" fill="#000000">text[2147483647]</text>
<polygon fill="none" stroke="#000000" points="313,-251.7 313,-273.7 470,-273.7 470,-251.7 313,-251.7"/>
<text text-anchor="start" x="333" y="-258.8" font-family="Helvetica,sans-Serif" font-size="11.00" fill="#000000">transcription</text>
<polygon fill="none" stroke="#000000" points="470,-251.7 470,-273.7 639,-273.7 639,-251.7 470,-251.7"/>
<text text-anchor="start" x="473" y="-259.4" font-family="Helvetica,sans-Serif" font-size="11.00" fill="#000000">text[2147483647]</text>
<polygon fill="none" stroke="#000000" points="313,-229.7 313,-251.7 470,-251.7 470,-229.7 313,-229.7"/>
<text text-anchor="start" x="333" y="-236.8" font-family="Helvetica,sans-Serif" font-size="11.00" fill="#000000">final_text</text>
<polygon fill="none" stroke="#000000" points="470,-229.7 470,-251.7 639,-251.7 639,-229.7 470,-229.7"/>
<text text-anchor="start" x="473" y="-237.4" font-family="Helvetica,sans-Serif" font-size="11.00" fill="#000000">text[2147483647]</text>
<polygon fill="none" stroke="#000000" points="313,-207.7 313,-229.7 470,-229.7 470,-207.7 313,-207.7"/>
<text text-anchor="start" x="333" y="-214.8" font-family="Helvetica,sans-Serif" font-size="11.00" fill="#000000">utc_last_modified_on</text>
<polygon fill="none" stroke="#000000" points="470,-207.7 470,-229.7 639,-229.7 639,-207.7 470,-207.7"/>
<text text-anchor="start" x="473" y="-215.4" font-family="Helvetica,sans-Serif" font-size="11.00" fill="#000000">timestamp[29,6]</text>
<polygon fill="none" stroke="#000000" points="313,-185.7 313,-207.7 470,-207.7 470,-185.7 313,-185.7"/>
<text text-anchor="start" x="333" y="-192.8" font-family="Helvetica,sans-Serif" font-size="11.00" fill="#000000">utc_created_on</text>
<polygon fill="none" stroke="#000000" points="470,-185.7 470,-207.7 639,-207.7 639,-185.7 470,-185.7"/>
<text text-anchor="start" x="473" y="-193.4" font-family="Helvetica,sans-Serif" font-size="11.00" fill="#000000">timestamp[29,6]</text>
<polygon fill="none" stroke="#000000" points="313,-163.7 313,-185.7 470,-185.7 470,-163.7 313,-163.7"/>
<text text-anchor="start" x="333" y="-170.8" font-family="Helvetica,sans-Serif" font-size="11.00" fill="#000000">final_title</text>
<polygon fill="none" stroke="#000000" points="470,-163.7 470,-185.7 639,-185.7 639,-163.7 470,-163.7"/>
<text text-anchor="start" x="473" y="-171.4" font-family="Helvetica,sans-Serif" font-size="11.00" fill="#000000">text[2147483647]</text>
<polygon fill="none" stroke="#000000" points="313,-141.7 313,-163.7 470,-163.7 470,-141.7 313,-141.7"/>
<text text-anchor="start" x="333" y="-148.8" font-family="Helvetica,sans-Serif" font-size="11.00" fill="#000000">final_short_description</text>
<polygon fill="none" stroke="#000000" points="470,-141.7 470,-163.7 639,-163.7 639,-141.7 470,-141.7"/>
<text text-anchor="start" x="473" y="-149.4" font-family="Helvetica,sans-Serif" font-size="11.00" fill="#000000">text[2147483647]</text>
<polygon fill="#ffffff" stroke="transparent" points="313,-122.7 313,-141.7 396,-141.7 396,-122.7 313,-122.7"/>
<polygon fill="none" stroke="#000000" points="313,-122.7 313,-141.7 396,-141.7 396,-122.7 313,-122.7"/>
<text text-anchor="start" x="316" y="-128.8" font-family="Helvetica,sans-Serif" font-size="11.00" fill="#000000">&lt; 1</text>
<polygon fill="#ffffff" stroke="transparent" points="396,-122.7 396,-141.7 470,-141.7 470,-122.7 396,-122.7"/>
<polygon fill="none" stroke="#000000" points="396,-122.7 396,-141.7 470,-141.7 470,-122.7 396,-122.7"/>
<text text-anchor="start" x="460.8862" y="-128.8" font-family="Helvetica,sans-Serif" font-size="11.00" fill="#000000"> &#160;</text>
<polygon fill="#ffffff" stroke="transparent" points="470,-122.7 470,-141.7 639,-141.7 639,-122.7 470,-122.7"/>
<polygon fill="none" stroke="#000000" points="470,-122.7 470,-141.7 639,-141.7 639,-122.7 470,-122.7"/>
<text text-anchor="start" x="620.4053" y="-128.8" font-family="Helvetica,sans-Serif" font-size="11.00" fill="#000000">0 &gt;</text>
<polygon fill="none" stroke="#000000" stroke-width="2" points="312,-121.7 312,-407.7 640,-407.7 640,-121.7 312,-121.7"/>
</a>
</g>
</g>
<!-- avatars -->
<g id="node2" class="node">
<title>avatars</title>
<g id="a_node2"><a xlink:href="../../tables/avatars.html" xlink:title="avatars" target="_top">
<polygon fill="#ffffff" stroke="transparent" points="149,-90.2 149,-195.2 262,-195.2 262,-90.2 149,-90.2"/>
<polygon fill="#f5f5f5" stroke="transparent" points="149.5,-171.7 149.5,-194.7 262.5,-194.7 262.5,-171.7 149.5,-171.7"/>
<polygon fill="none" stroke="#000000" points="149.5,-171.7 149.5,-194.7 262.5,-194.7 262.5,-171.7 149.5,-171.7"/>
<text text-anchor="start" x="154.5" y="-180.3" font-family="Helvetica,sans-Serif" font-weight="bold" font-size="11.00" fill="#000000">avatars</text>
<text text-anchor="start" x="227.5437" y="-179.8" font-family="Helvetica,sans-Serif" font-size="11.00" fill="#000000">[table]</text>
<polygon fill="none" stroke="#000000" points="149.5,-149.7 149.5,-171.7 262.5,-171.7 262.5,-149.7 149.5,-149.7"/>
<image xlink:href="../../images/primaryKeys.png" width="11px" height="12px" preserveAspectRatio="xMinYMin meet" x="154.5" y="-166.7"/>
<text text-anchor="start" x="169.5" y="-156.8" font-family="Helvetica,sans-Serif" font-size="11.00" fill="#000000">id</text>
<polygon fill="none" stroke="#000000" points="149.5,-127.7 149.5,-149.7 262.5,-149.7 262.5,-127.7 149.5,-127.7"/>
<image xlink:href="../../images/foreignKeys.png" width="11px" height="12px" preserveAspectRatio="xMinYMin meet" x="154.5" y="-144.7"/>
<text text-anchor="start" x="169.5" y="-134.8" font-family="Helvetica,sans-Serif" font-size="11.00" fill="#000000">account_id</text>
<polygon fill="none" stroke="#000000" points="149.5,-108.7 149.5,-127.7 262.5,-127.7 262.5,-108.7 149.5,-108.7"/>
<text text-anchor="start" x="152.5" y="-114.8" font-family="Helvetica,sans-Serif" font-size="11.00" fill="#000000">...</text>
<polygon fill="#ffffff" stroke="transparent" points="149.5,-89.7 149.5,-108.7 199.5,-108.7 199.5,-89.7 149.5,-89.7"/>
<polygon fill="none" stroke="#000000" points="149.5,-89.7 149.5,-108.7 199.5,-108.7 199.5,-89.7 149.5,-89.7"/>
<text text-anchor="start" x="152.5" y="-95.8" font-family="Helvetica,sans-Serif" font-size="11.00" fill="#000000">&lt; 1</text>
<polygon fill="#ffffff" stroke="transparent" points="199.5,-89.7 199.5,-108.7 226.5,-108.7 226.5,-89.7 199.5,-89.7"/>
<polygon fill="none" stroke="#000000" points="199.5,-89.7 199.5,-108.7 226.5,-108.7 226.5,-89.7 199.5,-89.7"/>
<text text-anchor="start" x="217.3862" y="-95.8" font-family="Helvetica,sans-Serif" font-size="11.00" fill="#000000"> &#160;</text>
<polygon fill="#ffffff" stroke="transparent" points="226.5,-89.7 226.5,-108.7 262.5,-108.7 262.5,-89.7 226.5,-89.7"/>
<polygon fill="none" stroke="#000000" points="226.5,-89.7 226.5,-108.7 262.5,-108.7 262.5,-89.7 226.5,-89.7"/>
<text text-anchor="start" x="243.9053" y="-95.8" font-family="Helvetica,sans-Serif" font-size="11.00" fill="#000000">2 &gt;</text>
</a>
</g>
</g>
<!-- avatar_inputs&#45;&gt;avatars -->
<g id="edge1" class="edge">
<title>avatar_inputs:w&#45;&gt;avatars:e</title>
<path fill="none" stroke="#000000" d="M298.6291,-348.4338C240.7615,-326.9971 344.2446,-160.7 262.5,-160.7"/>
<polygon fill="#000000" stroke="#000000" points="305.0976,-349.4538 312.4392,-354.2561 309.0488,-350.0769 313,-350.7 313,-350.7 313,-350.7 309.0488,-350.0769 313.5608,-347.1439 305.0976,-349.4538 305.0976,-349.4538"/>
<ellipse fill="none" stroke="#000000" cx="301.9367" cy="-348.9554" rx="3.2" ry="3.2"/>
</g>
<!-- accounts -->
<g id="node3" class="node">
<title>accounts</title>
<g id="a_node3"><a xlink:href="../../tables/accounts.html" xlink:title="accounts" target="_top">
<polygon fill="#ffffff" stroke="transparent" points="8,-74.2 8,-135.2 100,-135.2 100,-74.2 8,-74.2"/>
<polygon fill="#f5f5f5" stroke="transparent" points="8,-111.7 8,-134.7 100,-134.7 100,-111.7 8,-111.7"/>
<polygon fill="none" stroke="#000000" points="8,-111.7 8,-134.7 100,-134.7 100,-111.7 8,-111.7"/>
<text text-anchor="start" x="13" y="-120.3" font-family="Helvetica,sans-Serif" font-weight="bold" font-size="11.00" fill="#000000">accounts</text>
<text text-anchor="start" x="65.5219" y="-119.8" font-family="Helvetica,sans-Serif" font-size="11.00" fill="#000000">[table]</text>
<polygon fill="none" stroke="#000000" points="8,-92.7 8,-111.7 100,-111.7 100,-92.7 8,-92.7"/>
<text text-anchor="start" x="11" y="-98.8" font-family="Helvetica,sans-Serif" font-size="11.00" fill="#000000">...</text>
<polygon fill="#ffffff" stroke="transparent" points="8,-73.7 8,-92.7 43,-92.7 43,-73.7 8,-73.7"/>
<polygon fill="none" stroke="#000000" points="8,-73.7 8,-92.7 43,-92.7 43,-73.7 8,-73.7"/>
<text text-anchor="start" x="11" y="-79.8" font-family="Helvetica,sans-Serif" font-size="11.00" fill="#000000"> &#160;</text>
<polygon fill="#ffffff" stroke="transparent" points="43,-73.7 43,-92.7 67,-92.7 67,-73.7 43,-73.7"/>
<polygon fill="none" stroke="#000000" points="43,-73.7 43,-92.7 67,-92.7 67,-73.7 43,-73.7"/>
<text text-anchor="start" x="57.8862" y="-79.8" font-family="Helvetica,sans-Serif" font-size="11.00" fill="#000000"> &#160;</text>
<polygon fill="#ffffff" stroke="transparent" points="67,-73.7 67,-92.7 100,-92.7 100,-73.7 67,-73.7"/>
<polygon fill="none" stroke="#000000" points="67,-73.7 67,-92.7 100,-92.7 100,-73.7 67,-73.7"/>
<text text-anchor="start" x="81.4053" y="-79.8" font-family="Helvetica,sans-Serif" font-size="11.00" fill="#000000">3 &gt;</text>
</a>
</g>
</g>
<!-- avatars&#45;&gt;accounts -->
<g id="edge2" class="edge">
<title>avatars:w&#45;&gt;accounts:e</title>
<path fill="none" stroke="#000000" d="M135.5092,-134.1631C122.8361,-124.283 121.4584,-101.7 100,-101.7"/>
<polygon fill="#000000" stroke="#000000" points="141.8901,-136.2322 148.3895,-142.1244 145.6951,-137.4661 149.5,-138.7 149.5,-138.7 149.5,-138.7 145.6951,-137.4661 150.6105,-135.2756 141.8901,-136.2322 141.8901,-136.2322"/>
<ellipse fill="none" stroke="#000000" cx="138.8462" cy="-135.2451" rx="3.2" ry="3.2"/>
</g>
<!-- blog_posts -->
<g id="node4" class="node">
<title>blog_posts</title>
<g id="a_node4"><a xlink:href="../../tables/blog_posts.html" xlink:title="blog_posts" target="_top">
<polygon fill="#ffffff" stroke="transparent" points="424.5,-38.2 424.5,-99.2 527.5,-99.2 527.5,-38.2 424.5,-38.2"/>
<polygon fill="#f5f5f5" stroke="transparent" points="425,-75.7 425,-98.7 528,-98.7 528,-75.7 425,-75.7"/>
<polygon fill="none" stroke="#000000" points="425,-75.7 425,-98.7 528,-98.7 528,-75.7 425,-75.7"/>
<text text-anchor="start" x="430" y="-84.3" font-family="Helvetica,sans-Serif" font-weight="bold" font-size="11.00" fill="#000000">blog_posts</text>
<text text-anchor="start" x="493.5219" y="-83.8" font-family="Helvetica,sans-Serif" font-size="11.00" fill="#000000">[table]</text>
<polygon fill="none" stroke="#000000" points="425,-56.7 425,-75.7 528,-75.7 528,-56.7 425,-56.7"/>
<text text-anchor="start" x="428" y="-62.8" font-family="Helvetica,sans-Serif" font-size="11.00" fill="#000000">...</text>
<polygon fill="#ffffff" stroke="transparent" points="425,-37.7 425,-56.7 475,-56.7 475,-37.7 425,-37.7"/>
<polygon fill="none" stroke="#000000" points="425,-37.7 425,-56.7 475,-56.7 475,-37.7 425,-37.7"/>
<text text-anchor="start" x="428" y="-43.8" font-family="Helvetica,sans-Serif" font-size="11.00" fill="#000000">&lt; 2</text>
<polygon fill="#ffffff" stroke="transparent" points="475,-37.7 475,-56.7 501,-56.7 501,-37.7 475,-37.7"/>
<polygon fill="none" stroke="#000000" points="475,-37.7 475,-56.7 501,-56.7 501,-37.7 475,-37.7"/>
<text text-anchor="start" x="491.8862" y="-43.8" font-family="Helvetica,sans-Serif" font-size="11.00" fill="#000000"> &#160;</text>
<polygon fill="#ffffff" stroke="transparent" points="501,-37.7 501,-56.7 528,-56.7 528,-37.7 501,-37.7"/>
<polygon fill="none" stroke="#000000" points="501,-37.7 501,-56.7 528,-56.7 528,-37.7 501,-37.7"/>
<text text-anchor="start" x="518.8862" y="-43.8" font-family="Helvetica,sans-Serif" font-size="11.00" fill="#000000"> &#160;</text>
</a>
</g>
</g>
<!-- blog_posts&#45;&gt;avatars -->
<g id="edge4" class="edge">
<title>blog_posts:w&#45;&gt;avatars:e</title>
<path fill="none" stroke="#000000" d="M410.3543,-65.9826C363.8713,-67.918 345.7593,-80.0653 303,-110.7 279.7529,-127.3553 291.0977,-160.7 262.5,-160.7"/>
<polygon fill="#000000" stroke="#000000" points="417.0015,-65.8544 425.0695,-69.2993 421.0007,-65.7772 425,-65.7 425,-65.7 425,-65.7 421.0007,-65.7772 424.9305,-62.1007 417.0015,-65.8544 417.0015,-65.8544"/>
<ellipse fill="none" stroke="#000000" cx="413.8021" cy="-65.9161" rx="3.2" ry="3.2"/>
</g>
<!-- blog_posts&#45;&gt;accounts -->
<g id="edge3" class="edge">
<title>blog_posts:w&#45;&gt;accounts:e</title>
<path fill="none" stroke="#000000" d="M410.5942,-65.6137C295.6921,-64.2338 258.0111,-47.2065 141,-79.7 121.0742,-85.2333 120.6798,-101.7 100,-101.7"/>
<polygon fill="#000000" stroke="#000000" points="417.0001,-65.652 424.9784,-69.2999 421.0001,-65.676 425,-65.7 425,-65.7 425,-65.7 421.0001,-65.676 425.0216,-62.1001 417.0001,-65.652 417.0001,-65.652"/>
<ellipse fill="none" stroke="#000000" cx="413.8002" cy="-65.6328" rx="3.2" ry="3.2"/>
</g>
</g>
</svg>
