<?xml version="1.0" encoding="UTF-8" standalone="no"?>
<!DOCTYPE svg PUBLIC "-//W3C//DTD SVG 1.1//EN"
 "http://www.w3.org/Graphics/SVG/1.1/DTD/svg11.dtd">
<!-- Generated by graphviz version 2.40.1 (20161225.0304)
 -->
<!-- Title: oneDegreeRelationshipsDiagram Pages: 1 -->
<svg width="516pt" height="338pt"
 viewBox="0.00 0.00 516.00 338.20" xmlns="http://www.w3.org/2000/svg" xmlns:xlink="http://www.w3.org/1999/xlink">
<g id="graph0" class="graph" transform="scale(1 1) rotate(0) translate(4 334.2)">
<title>oneDegreeRelationshipsDiagram</title>
<polygon fill="#ffffff" stroke="transparent" points="-4,4 -4,-334.2 512,-334.2 512,4 -4,4"/>
<text text-anchor="middle" x="72.4936" y="-7.3" font-family="Helvetica,sans-Serif" font-size="11.00" fill="#000000">Generated by SchemaSpy</text>
<!-- avatar_inputs -->
<g id="node1" class="node">
<title>avatar_inputs</title>
<g id="a_node1"><a xlink:href="../../tables/avatar_inputs.html" xlink:title="avatar_inputs" target="_top">
<polygon fill="#ffffff" stroke="transparent" points="170,-38.2 170,-326.2 500,-326.2 500,-38.2 170,-38.2"/>
<polygon fill="#f5f5f5" stroke="transparent" points="172,-301.2 172,-324.2 498,-324.2 498,-301.2 172,-301.2"/>
<polygon fill="none" stroke="#000000" points="172,-301.2 172,-324.2 498,-324.2 498,-301.2 172,-301.2"/>
<text text-anchor="start" x="177" y="-309.8" font-family="Helvetica,sans-Serif" font-weight="bold" font-size="11.00" fill="#000000">avatar_inputs</text>
<text text-anchor="start" x="463.0437" y="-309.3" font-family="Helvetica,sans-Serif" font-size="11.00" fill="#000000">[table]</text>
<polygon fill="none" stroke="#000000" points="172,-279.2 172,-301.2 329,-301.2 329,-279.2 172,-279.2"/>
<image xlink:href="../../images/primaryKeys.png" width="11px" height="12px" preserveAspectRatio="xMinYMin meet" x="177" y="-296.2"/>
<text text-anchor="start" x="192" y="-286.3" font-family="Helvetica,sans-Serif" font-size="11.00" fill="#000000">id</text>
<polygon fill="none" stroke="#000000" points="329,-279.2 329,-301.2 498,-301.2 498,-279.2 329,-279.2"/>
<text text-anchor="start" x="332" y="-286.9" font-family="Helvetica,sans-Serif" font-size="11.00" fill="#000000">uuid[2147483647]</text>
<polygon fill="none" stroke="#000000" points="172,-257.2 172,-279.2 329,-279.2 329,-257.2 172,-257.2"/>
<image xlink:href="../../images/foreignKeys.png" width="11px" height="12px" preserveAspectRatio="xMinYMin meet" x="177" y="-274.2"/>
<text text-anchor="start" x="192" y="-264.3" font-family="Helvetica,sans-Serif" font-size="11.00" fill="#000000">avatar_id</text>
<polygon fill="none" stroke="#000000" points="329,-257.2 329,-279.2 498,-279.2 498,-257.2 329,-257.2"/>
<text text-anchor="start" x="332" y="-264.9" font-family="Helvetica,sans-Serif" font-size="11.00" fill="#000000">uuid[2147483647]</text>
<polygon fill="none" stroke="#000000" points="172,-235.2 172,-257.2 329,-257.2 329,-235.2 172,-235.2"/>
<text text-anchor="start" x="192" y="-242.3" font-family="Helvetica,sans-Serif" font-size="11.00" fill="#000000">youtube_url</text>
<polygon fill="none" stroke="#000000" points="329,-235.2 329,-257.2 498,-257.2 498,-235.2 329,-235.2"/>
<text text-anchor="start" x="332" y="-242.9" font-family="Helvetica,sans-Serif" font-size="11.00" fill="#000000">text[2147483647]</text>
<polygon fill="none" stroke="#000000" points="172,-213.2 172,-235.2 329,-235.2 329,-213.2 172,-213.2"/>
<text text-anchor="start" x="192" y="-220.3" font-family="Helvetica,sans-Serif" font-size="11.00" fill="#000000">status</text>
<polygon fill="none" stroke="#000000" points="329,-213.2 329,-235.2 498,-235.2 498,-213.2 329,-213.2"/>
<text text-anchor="start" x="331.8789" y="-220.9" font-family="Helvetica,sans-Serif" font-size="11.00" fill="#000000">avatar_input_status[2147483647]</text>
<polygon fill="none" stroke="#000000" points="172,-191.2 172,-213.2 329,-213.2 329,-191.2 172,-191.2"/>
<text text-anchor="start" x="192" y="-198.3" font-family="Helvetica,sans-Serif" font-size="11.00" fill="#000000">filepath</text>
<polygon fill="none" stroke="#000000" points="329,-191.2 329,-213.2 498,-213.2 498,-191.2 329,-191.2"/>
<text text-anchor="start" x="332" y="-198.9" font-family="Helvetica,sans-Serif" font-size="11.00" fill="#000000">text[2147483647]</text>
<polygon fill="none" stroke="#000000" points="172,-169.2 172,-191.2 329,-191.2 329,-169.2 172,-169.2"/>
<text text-anchor="start" x="192" y="-176.3" font-family="Helvetica,sans-Serif" font-size="11.00" fill="#000000">transcription</text>
<polygon fill="none" stroke="#000000" points="329,-169.2 329,-191.2 498,-191.2 498,-169.2 329,-169.2"/>
<text text-anchor="start" x="332" y="-176.9" font-family="Helvetica,sans-Serif" font-size="11.00" fill="#000000">text[2147483647]</text>
<polygon fill="none" stroke="#000000" points="172,-147.2 172,-169.2 329,-169.2 329,-147.2 172,-147.2"/>
<text text-anchor="start" x="192" y="-154.3" font-family="Helvetica,sans-Serif" font-size="11.00" fill="#000000">final_text</text>
<polygon fill="none" stroke="#000000" points="329,-147.2 329,-169.2 498,-169.2 498,-147.2 329,-147.2"/>
<text text-anchor="start" x="332" y="-154.9" font-family="Helvetica,sans-Serif" font-size="11.00" fill="#000000">text[2147483647]</text>
<polygon fill="none" stroke="#000000" points="172,-125.2 172,-147.2 329,-147.2 329,-125.2 172,-125.2"/>
<text text-anchor="start" x="192" y="-132.3" font-family="Helvetica,sans-Serif" font-size="11.00" fill="#000000">utc_last_modified_on</text>
<polygon fill="none" stroke="#000000" points="329,-125.2 329,-147.2 498,-147.2 498,-125.2 329,-125.2"/>
<text text-anchor="start" x="332" y="-132.9" font-family="Helvetica,sans-Serif" font-size="11.00" fill="#000000">timestamp[29,6]</text>
<polygon fill="none" stroke="#000000" points="172,-103.2 172,-125.2 329,-125.2 329,-103.2 172,-103.2"/>
<text text-anchor="start" x="192" y="-110.3" font-family="Helvetica,sans-Serif" font-size="11.00" fill="#000000">utc_created_on</text>
<polygon fill="none" stroke="#000000" points="329,-103.2 329,-125.2 498,-125.2 498,-103.2 329,-103.2"/>
<text text-anchor="start" x="332" y="-110.9" font-family="Helvetica,sans-Serif" font-size="11.00" fill="#000000">timestamp[29,6]</text>
<polygon fill="none" stroke="#000000" points="172,-81.2 172,-103.2 329,-103.2 329,-81.2 172,-81.2"/>
<text text-anchor="start" x="192" y="-88.3" font-family="Helvetica,sans-Serif" font-size="11.00" fill="#000000">final_title</text>
<polygon fill="none" stroke="#000000" points="329,-81.2 329,-103.2 498,-103.2 498,-81.2 329,-81.2"/>
<text text-anchor="start" x="332" y="-88.9" font-family="Helvetica,sans-Serif" font-size="11.00" fill="#000000">text[2147483647]</text>
<polygon fill="none" stroke="#000000" points="172,-59.2 172,-81.2 329,-81.2 329,-59.2 172,-59.2"/>
<text text-anchor="start" x="192" y="-66.3" font-family="Helvetica,sans-Serif" font-size="11.00" fill="#000000">final_short_description</text>
<polygon fill="none" stroke="#000000" points="329,-59.2 329,-81.2 498,-81.2 498,-59.2 329,-59.2"/>
<text text-anchor="start" x="332" y="-66.9" font-family="Helvetica,sans-Serif" font-size="11.00" fill="#000000">text[2147483647]</text>
<polygon fill="#ffffff" stroke="transparent" points="172,-40.2 172,-59.2 255,-59.2 255,-40.2 172,-40.2"/>
<polygon fill="none" stroke="#000000" points="172,-40.2 172,-59.2 255,-59.2 255,-40.2 172,-40.2"/>
<text text-anchor="start" x="175" y="-46.3" font-family="Helvetica,sans-Serif" font-size="11.00" fill="#000000">&lt; 1</text>
<polygon fill="#ffffff" stroke="transparent" points="255,-40.2 255,-59.2 329,-59.2 329,-40.2 255,-40.2"/>
<polygon fill="none" stroke="#000000" points="255,-40.2 255,-59.2 329,-59.2 329,-40.2 255,-40.2"/>
<text text-anchor="start" x="319.8862" y="-46.3" font-family="Helvetica,sans-Serif" font-size="11.00" fill="#000000"> &#160;</text>
<polygon fill="#ffffff" stroke="transparent" points="329,-40.2 329,-59.2 498,-59.2 498,-40.2 329,-40.2"/>
<polygon fill="none" stroke="#000000" points="329,-40.2 329,-59.2 498,-59.2 498,-40.2 329,-40.2"/>
<text text-anchor="start" x="479.4053" y="-46.3" font-family="Helvetica,sans-Serif" font-size="11.00" fill="#000000">0 &gt;</text>
<polygon fill="none" stroke="#000000" stroke-width="2" points="171,-39.2 171,-325.2 499,-325.2 499,-39.2 171,-39.2"/>
</a>
</g>
</g>
<!-- avatars -->
<g id="node2" class="node">
<title>avatars</title>
<g id="a_node2"><a xlink:href="../../tables/avatars.html" xlink:title="avatars" target="_top">
<polygon fill="#ffffff" stroke="transparent" points="8,-197.7 8,-302.7 121,-302.7 121,-197.7 8,-197.7"/>
<polygon fill="#f5f5f5" stroke="transparent" points="8.5,-279.2 8.5,-302.2 121.5,-302.2 121.5,-279.2 8.5,-279.2"/>
<polygon fill="none" stroke="#000000" points="8.5,-279.2 8.5,-302.2 121.5,-302.2 121.5,-279.2 8.5,-279.2"/>
<text text-anchor="start" x="13.5" y="-287.8" font-family="Helvetica,sans-Serif" font-weight="bold" font-size="11.00" fill="#000000">avatars</text>
<text text-anchor="start" x="86.5437" y="-287.3" font-family="Helvetica,sans-Serif" font-size="11.00" fill="#000000">[table]</text>
<polygon fill="none" stroke="#000000" points="8.5,-257.2 8.5,-279.2 121.5,-279.2 121.5,-257.2 8.5,-257.2"/>
<image xlink:href="../../images/primaryKeys.png" width="11px" height="12px" preserveAspectRatio="xMinYMin meet" x="13.5" y="-274.2"/>
<text text-anchor="start" x="28.5" y="-264.3" font-family="Helvetica,sans-Serif" font-size="11.00" fill="#000000">id</text>
<polygon fill="none" stroke="#000000" points="8.5,-235.2 8.5,-257.2 121.5,-257.2 121.5,-235.2 8.5,-235.2"/>
<image xlink:href="../../images/foreignKeys.png" width="11px" height="12px" preserveAspectRatio="xMinYMin meet" x="13.5" y="-252.2"/>
<text text-anchor="start" x="28.5" y="-242.3" font-family="Helvetica,sans-Serif" font-size="11.00" fill="#000000">account_id</text>
<polygon fill="none" stroke="#000000" points="8.5,-216.2 8.5,-235.2 121.5,-235.2 121.5,-216.2 8.5,-216.2"/>
<text text-anchor="start" x="11.5" y="-222.3" font-family="Helvetica,sans-Serif" font-size="11.00" fill="#000000">...</text>
<polygon fill="#ffffff" stroke="transparent" points="8.5,-197.2 8.5,-216.2 58.5,-216.2 58.5,-197.2 8.5,-197.2"/>
<polygon fill="none" stroke="#000000" points="8.5,-197.2 8.5,-216.2 58.5,-216.2 58.5,-197.2 8.5,-197.2"/>
<text text-anchor="start" x="11.5" y="-203.3" font-family="Helvetica,sans-Serif" font-size="11.00" fill="#000000">&lt; 1</text>
<polygon fill="#ffffff" stroke="transparent" points="58.5,-197.2 58.5,-216.2 85.5,-216.2 85.5,-197.2 58.5,-197.2"/>
<polygon fill="none" stroke="#000000" points="58.5,-197.2 58.5,-216.2 85.5,-216.2 85.5,-197.2 58.5,-197.2"/>
<text text-anchor="start" x="76.3862" y="-203.3" font-family="Helvetica,sans-Serif" font-size="11.00" fill="#000000"> &#160;</text>
<polygon fill="#ffffff" stroke="transparent" points="85.5,-197.2 85.5,-216.2 121.5,-216.2 121.5,-197.2 85.5,-197.2"/>
<polygon fill="none" stroke="#000000" points="85.5,-197.2 85.5,-216.2 121.5,-216.2 121.5,-197.2 85.5,-197.2"/>
<text text-anchor="start" x="102.9053" y="-203.3" font-family="Helvetica,sans-Serif" font-size="11.00" fill="#000000">2 &gt;</text>
</a>
</g>
</g>
<!-- avatar_inputs&#45;&gt;avatars -->
<g id="edge1" class="edge">
<title>avatar_inputs:w&#45;&gt;avatars:e</title>
<path fill="none" stroke="#000000" d="M157.4203,-268.2C145.5435,-268.2 138.158,-268.2 121.5,-268.2"/>
<polygon fill="#000000" stroke="#000000" points="164,-268.2001 172,-271.8 168,-268.2 172,-268.2 172,-268.2 172,-268.2 168,-268.2 172,-264.6 164,-268.2001 164,-268.2001"/>
<ellipse fill="none" stroke="#000000" cx="160.8" cy="-268.2001" rx="3.2" ry="3.2"/>
</g>
</g>
</svg>
