<?xml version="1.0" encoding="UTF-8" standalone="no"?>
<!DOCTYPE svg PUBLIC "-//W3C//DTD SVG 1.1//EN"
 "http://www.w3.org/Graphics/SVG/1.1/DTD/svg11.dtd">
<!-- Generated by graphviz version 2.40.1 (20161225.0304)
 -->
<!-- Title: oneDegreeRelationshipsDiagram Pages: 1 -->
<svg width="569pt" height="272pt"
 viewBox="0.00 0.00 569.00 272.20" xmlns="http://www.w3.org/2000/svg" xmlns:xlink="http://www.w3.org/1999/xlink">
<g id="graph0" class="graph" transform="scale(1 1) rotate(0) translate(4 268.2)">
<title>oneDegreeRelationshipsDiagram</title>
<polygon fill="#ffffff" stroke="transparent" points="-4,4 -4,-268.2 565,-268.2 565,4 -4,4"/>
<text text-anchor="middle" x="72.4936" y="-7.3" font-family="Helvetica,sans-Serif" font-size="11.00" fill="#000000">Generated by SchemaSpy</text>
<!-- avatars -->
<g id="node1" class="node">
<title>avatars</title>
<g id="a_node1"><a xlink:href="../../tables/avatars.html" xlink:title="avatars" target="_top">
<polygon fill="#ffffff" stroke="transparent" points="168,-91.7 168,-196.7 281,-196.7 281,-91.7 168,-91.7"/>
<polygon fill="#f5f5f5" stroke="transparent" points="168.5,-173.2 168.5,-196.2 281.5,-196.2 281.5,-173.2 168.5,-173.2"/>
<polygon fill="none" stroke="#000000" points="168.5,-173.2 168.5,-196.2 281.5,-196.2 281.5,-173.2 168.5,-173.2"/>
<text text-anchor="start" x="173.5" y="-181.8" font-family="Helvetica,sans-Serif" font-weight="bold" font-size="11.00" fill="#000000">avatars</text>
<text text-anchor="start" x="246.5437" y="-181.3" font-family="Helvetica,sans-Serif" font-size="11.00" fill="#000000">[table]</text>
<polygon fill="none" stroke="#000000" points="168.5,-151.2 168.5,-173.2 281.5,-173.2 281.5,-151.2 168.5,-151.2"/>
<image xlink:href="../../images/primaryKeys.png" width="11px" height="12px" preserveAspectRatio="xMinYMin meet" x="173.5" y="-168.2"/>
<text text-anchor="start" x="188.5" y="-158.3" font-family="Helvetica,sans-Serif" font-size="11.00" fill="#000000">id</text>
<polygon fill="none" stroke="#000000" points="168.5,-129.2 168.5,-151.2 281.5,-151.2 281.5,-129.2 168.5,-129.2"/>
<image xlink:href="../../images/foreignKeys.png" width="11px" height="12px" preserveAspectRatio="xMinYMin meet" x="173.5" y="-146.2"/>
<text text-anchor="start" x="188.5" y="-136.3" font-family="Helvetica,sans-Serif" font-size="11.00" fill="#000000">account_id</text>
<polygon fill="none" stroke="#000000" points="168.5,-110.2 168.5,-129.2 281.5,-129.2 281.5,-110.2 168.5,-110.2"/>
<text text-anchor="start" x="171.5" y="-116.3" font-family="Helvetica,sans-Serif" font-size="11.00" fill="#000000">...</text>
<polygon fill="#ffffff" stroke="transparent" points="168.5,-91.2 168.5,-110.2 218.5,-110.2 218.5,-91.2 168.5,-91.2"/>
<polygon fill="none" stroke="#000000" points="168.5,-91.2 168.5,-110.2 218.5,-110.2 218.5,-91.2 168.5,-91.2"/>
<text text-anchor="start" x="171.5" y="-97.3" font-family="Helvetica,sans-Serif" font-size="11.00" fill="#000000">&lt; 1</text>
<polygon fill="#ffffff" stroke="transparent" points="218.5,-91.2 218.5,-110.2 245.5,-110.2 245.5,-91.2 218.5,-91.2"/>
<polygon fill="none" stroke="#000000" points="218.5,-91.2 218.5,-110.2 245.5,-110.2 245.5,-91.2 218.5,-91.2"/>
<text text-anchor="start" x="236.3862" y="-97.3" font-family="Helvetica,sans-Serif" font-size="11.00" fill="#000000"> &#160;</text>
<polygon fill="#ffffff" stroke="transparent" points="245.5,-91.2 245.5,-110.2 281.5,-110.2 281.5,-91.2 245.5,-91.2"/>
<polygon fill="none" stroke="#000000" points="245.5,-91.2 245.5,-110.2 281.5,-110.2 281.5,-91.2 245.5,-91.2"/>
<text text-anchor="start" x="262.9053" y="-97.3" font-family="Helvetica,sans-Serif" font-size="11.00" fill="#000000">2 &gt;</text>
</a>
</g>
</g>
<!-- accounts -->
<g id="node2" class="node">
<title>accounts</title>
<g id="a_node2"><a xlink:href="../../tables/accounts.html" xlink:title="accounts" target="_top">
<polygon fill="#ffffff" stroke="transparent" points="8,-109.7 8,-214.7 119,-214.7 119,-109.7 8,-109.7"/>
<polygon fill="#f5f5f5" stroke="transparent" points="8.5,-191.2 8.5,-214.2 119.5,-214.2 119.5,-191.2 8.5,-191.2"/>
<polygon fill="none" stroke="#000000" points="8.5,-191.2 8.5,-214.2 119.5,-214.2 119.5,-191.2 8.5,-191.2"/>
<text text-anchor="start" x="13.5" y="-199.8" font-family="Helvetica,sans-Serif" font-weight="bold" font-size="11.00" fill="#000000">accounts</text>
<text text-anchor="start" x="84.5437" y="-199.3" font-family="Helvetica,sans-Serif" font-size="11.00" fill="#000000">[table]</text>
<polygon fill="none" stroke="#000000" points="8.5,-169.2 8.5,-191.2 119.5,-191.2 119.5,-169.2 8.5,-169.2"/>
<image xlink:href="../../images/primaryKeys.png" width="11px" height="12px" preserveAspectRatio="xMinYMin meet" x="13.5" y="-186.2"/>
<text text-anchor="start" x="28.5" y="-176.3" font-family="Helvetica,sans-Serif" font-size="11.00" fill="#000000">id</text>
<polygon fill="#ffffff" stroke="transparent" points="8.5,-147.2 8.5,-169.2 119.5,-169.2 119.5,-147.2 8.5,-147.2"/>
<polygon fill="none" stroke="#000000" points="8.5,-147.2 8.5,-169.2 119.5,-169.2 119.5,-147.2 8.5,-147.2"/>
<text text-anchor="start" x="28.5" y="-154.3" font-family="Helvetica,sans-Serif" font-size="11.00" fill="#000000">link</text>
<polygon fill="none" stroke="#000000" points="8.5,-128.2 8.5,-147.2 119.5,-147.2 119.5,-128.2 8.5,-128.2"/>
<text text-anchor="start" x="11.5" y="-134.3" font-family="Helvetica,sans-Serif" font-size="11.00" fill="#000000">...</text>
<polygon fill="#ffffff" stroke="transparent" points="8.5,-109.2 8.5,-128.2 53.5,-128.2 53.5,-109.2 8.5,-109.2"/>
<polygon fill="none" stroke="#000000" points="8.5,-109.2 8.5,-128.2 53.5,-128.2 53.5,-109.2 8.5,-109.2"/>
<text text-anchor="start" x="11.5" y="-115.3" font-family="Helvetica,sans-Serif" font-size="11.00" fill="#000000"> &#160;</text>
<polygon fill="#ffffff" stroke="transparent" points="53.5,-109.2 53.5,-128.2 81.5,-128.2 81.5,-109.2 53.5,-109.2"/>
<polygon fill="none" stroke="#000000" points="53.5,-109.2 53.5,-128.2 81.5,-128.2 81.5,-109.2 53.5,-109.2"/>
<text text-anchor="start" x="72.3862" y="-115.3" font-family="Helvetica,sans-Serif" font-size="11.00" fill="#000000"> &#160;</text>
<polygon fill="#ffffff" stroke="transparent" points="81.5,-109.2 81.5,-128.2 119.5,-128.2 119.5,-109.2 81.5,-109.2"/>
<polygon fill="none" stroke="#000000" points="81.5,-109.2 81.5,-128.2 119.5,-128.2 119.5,-109.2 81.5,-109.2"/>
<text text-anchor="start" x="100.9053" y="-115.3" font-family="Helvetica,sans-Serif" font-size="11.00" fill="#000000">3 &gt;</text>
</a>
</g>
</g>
<!-- avatars&#45;&gt;accounts -->
<g id="edge1" class="edge">
<title>avatars:w&#45;&gt;accounts:e</title>
<path fill="none" stroke="#000000" d="M154.7637,-144.7885C141.8632,-155.2952 141.6826,-180.2 119.5,-180.2"/>
<polygon fill="#000000" stroke="#000000" points="160.9121,-142.7347 169.6406,-143.6145 164.7061,-141.4673 168.5,-140.2 168.5,-140.2 168.5,-140.2 164.7061,-141.4673 167.3594,-136.7855 160.9121,-142.7347 160.9121,-142.7347"/>
<ellipse fill="none" stroke="#000000" cx="157.877" cy="-143.7486" rx="3.2" ry="3.2"/>
</g>
<!-- blog_posts -->
<g id="node3" class="node">
<title>blog_posts</title>
<g id="a_node3"><a xlink:href="../../tables/blog_posts.html" xlink:title="blog_posts" target="_top">
<polygon fill="#ffffff" stroke="transparent" points="330,-38.2 330,-260.2 553,-260.2 553,-38.2 330,-38.2"/>
<polygon fill="#f5f5f5" stroke="transparent" points="332.5,-235.2 332.5,-258.2 551.5,-258.2 551.5,-235.2 332.5,-235.2"/>
<polygon fill="none" stroke="#000000" points="332.5,-235.2 332.5,-258.2 551.5,-258.2 551.5,-235.2 332.5,-235.2"/>
<text text-anchor="start" x="337.5" y="-243.8" font-family="Helvetica,sans-Serif" font-weight="bold" font-size="11.00" fill="#000000">blog_posts</text>
<text text-anchor="start" x="516.5437" y="-243.3" font-family="Helvetica,sans-Serif" font-size="11.00" fill="#000000">[table]</text>
<polygon fill="none" stroke="#000000" points="332.5,-213.2 332.5,-235.2 457.5,-235.2 457.5,-213.2 332.5,-213.2"/>
<image xlink:href="../../images/primaryKeys.png" width="11px" height="12px" preserveAspectRatio="xMinYMin meet" x="337.5" y="-230.2"/>
<text text-anchor="start" x="352.5" y="-220.3" font-family="Helvetica,sans-Serif" font-size="11.00" fill="#000000">id</text>
<polygon fill="none" stroke="#000000" points="457.5,-213.2 457.5,-235.2 551.5,-235.2 551.5,-213.2 457.5,-213.2"/>
<text text-anchor="start" x="460.4758" y="-220.9" font-family="Helvetica,sans-Serif" font-size="11.00" fill="#000000">uuid[2147483647]</text>
<polygon fill="none" stroke="#000000" points="332.5,-191.2 332.5,-213.2 457.5,-213.2 457.5,-191.2 332.5,-191.2"/>
<image xlink:href="../../images/foreignKeys.png" width="11px" height="12px" preserveAspectRatio="xMinYMin meet" x="337.5" y="-208.2"/>
<text text-anchor="start" x="352.5" y="-198.3" font-family="Helvetica,sans-Serif" font-size="11.00" fill="#000000">account_id</text>
<polygon fill="none" stroke="#000000" points="457.5,-191.2 457.5,-213.2 551.5,-213.2 551.5,-191.2 457.5,-191.2"/>
<text text-anchor="start" x="460.4758" y="-198.9" font-family="Helvetica,sans-Serif" font-size="11.00" fill="#000000">uuid[2147483647]</text>
<polygon fill="none" stroke="#000000" points="332.5,-169.2 332.5,-191.2 457.5,-191.2 457.5,-169.2 332.5,-169.2"/>
<image xlink:href="../../images/foreignKeys.png" width="11px" height="12px" preserveAspectRatio="xMinYMin meet" x="337.5" y="-186.2"/>
<text text-anchor="start" x="352.5" y="-176.3" font-family="Helvetica,sans-Serif" font-size="11.00" fill="#000000">avatar_id</text>
<polygon fill="none" stroke="#000000" points="457.5,-169.2 457.5,-191.2 551.5,-191.2 551.5,-169.2 457.5,-169.2"/>
<text text-anchor="start" x="460.4758" y="-176.9" font-family="Helvetica,sans-Serif" font-size="11.00" fill="#000000">uuid[2147483647]</text>
<polygon fill="none" stroke="#000000" points="332.5,-147.2 332.5,-169.2 457.5,-169.2 457.5,-147.2 332.5,-147.2"/>
<text text-anchor="start" x="352.5" y="-154.3" font-family="Helvetica,sans-Serif" font-size="11.00" fill="#000000">title</text>
<polygon fill="none" stroke="#000000" points="457.5,-147.2 457.5,-169.2 551.5,-169.2 551.5,-147.2 457.5,-147.2"/>
<text text-anchor="start" x="460.5" y="-154.9" font-family="Helvetica,sans-Serif" font-size="11.00" fill="#000000">text[2147483647]</text>
<polygon fill="none" stroke="#000000" points="332.5,-125.2 332.5,-147.2 457.5,-147.2 457.5,-125.2 332.5,-125.2"/>
<text text-anchor="start" x="352.5" y="-132.3" font-family="Helvetica,sans-Serif" font-size="11.00" fill="#000000">description</text>
<polygon fill="none" stroke="#000000" points="457.5,-125.2 457.5,-147.2 551.5,-147.2 551.5,-125.2 457.5,-125.2"/>
<text text-anchor="start" x="460.5" y="-132.9" font-family="Helvetica,sans-Serif" font-size="11.00" fill="#000000">text[2147483647]</text>
<polygon fill="none" stroke="#000000" points="332.5,-103.2 332.5,-125.2 457.5,-125.2 457.5,-103.2 332.5,-103.2"/>
<text text-anchor="start" x="352.5" y="-110.3" font-family="Helvetica,sans-Serif" font-size="11.00" fill="#000000">utc_created_on</text>
<polygon fill="none" stroke="#000000" points="457.5,-103.2 457.5,-125.2 551.5,-125.2 551.5,-103.2 457.5,-103.2"/>
<text text-anchor="start" x="460.5" y="-110.9" font-family="Helvetica,sans-Serif" font-size="11.00" fill="#000000">timestamp[29,6]</text>
<polygon fill="none" stroke="#000000" points="332.5,-81.2 332.5,-103.2 457.5,-103.2 457.5,-81.2 332.5,-81.2"/>
<text text-anchor="start" x="352.5" y="-88.3" font-family="Helvetica,sans-Serif" font-size="11.00" fill="#000000">image_url</text>
<polygon fill="none" stroke="#000000" points="457.5,-81.2 457.5,-103.2 551.5,-103.2 551.5,-81.2 457.5,-81.2"/>
<text text-anchor="start" x="460.5" y="-88.9" font-family="Helvetica,sans-Serif" font-size="11.00" fill="#000000">text[2147483647]</text>
<polygon fill="none" stroke="#000000" points="332.5,-59.2 332.5,-81.2 457.5,-81.2 457.5,-59.2 332.5,-59.2"/>
<text text-anchor="start" x="352.5" y="-66.3" font-family="Helvetica,sans-Serif" font-size="11.00" fill="#000000">short_description</text>
<polygon fill="none" stroke="#000000" points="457.5,-59.2 457.5,-81.2 551.5,-81.2 551.5,-59.2 457.5,-59.2"/>
<text text-anchor="start" x="460.5" y="-66.9" font-family="Helvetica,sans-Serif" font-size="11.00" fill="#000000">text[2147483647]</text>
<polygon fill="#ffffff" stroke="transparent" points="332.5,-40.2 332.5,-59.2 399.5,-59.2 399.5,-40.2 332.5,-40.2"/>
<polygon fill="none" stroke="#000000" points="332.5,-40.2 332.5,-59.2 399.5,-59.2 399.5,-40.2 332.5,-40.2"/>
<text text-anchor="start" x="335.5" y="-46.3" font-family="Helvetica,sans-Serif" font-size="11.00" fill="#000000">&lt; 2</text>
<polygon fill="#ffffff" stroke="transparent" points="399.5,-40.2 399.5,-59.2 457.5,-59.2 457.5,-40.2 399.5,-40.2"/>
<polygon fill="none" stroke="#000000" points="399.5,-40.2 399.5,-59.2 457.5,-59.2 457.5,-40.2 399.5,-40.2"/>
<text text-anchor="start" x="448.3862" y="-46.3" font-family="Helvetica,sans-Serif" font-size="11.00" fill="#000000"> &#160;</text>
<polygon fill="#ffffff" stroke="transparent" points="457.5,-40.2 457.5,-59.2 551.5,-59.2 551.5,-40.2 457.5,-40.2"/>
<polygon fill="none" stroke="#000000" points="457.5,-40.2 457.5,-59.2 551.5,-59.2 551.5,-40.2 457.5,-40.2"/>
<text text-anchor="start" x="532.9053" y="-46.3" font-family="Helvetica,sans-Serif" font-size="11.00" fill="#000000">0 &gt;</text>
<polygon fill="none" stroke="#000000" stroke-width="2" points="331,-39.2 331,-259.2 552,-259.2 552,-39.2 331,-39.2"/>
</a>
</g>
</g>
<!-- blog_posts&#45;&gt;avatars -->
<g id="edge3" class="edge">
<title>blog_posts:w&#45;&gt;avatars:e</title>
<path fill="none" stroke="#000000" d="M318.1506,-177.544C305.8075,-172.537 299.7155,-162.2 281.5,-162.2"/>
<polygon fill="#000000" stroke="#000000" points="324.6336,-178.7439 331.8448,-183.7399 328.5668,-179.472 332.5,-180.2 332.5,-180.2 332.5,-180.2 328.5668,-179.472 333.1552,-176.6601 324.6336,-178.7439 324.6336,-178.7439"/>
<ellipse fill="none" stroke="#000000" cx="321.4871" cy="-178.1615" rx="3.2" ry="3.2"/>
</g>
<!-- blog_posts&#45;&gt;accounts -->
<g id="edge2" class="edge">
<title>blog_posts:w&#45;&gt;accounts:e</title>
<path fill="none" stroke="#000000" d="M318.0084,-203.0941C308.8542,-204.3111 302.5091,-206.4262 289,-207.2 231.7605,-210.4788 214.8733,-223.8143 160,-207.2 139.2949,-200.931 141.1333,-180.2 119.5,-180.2"/>
<polygon fill="#000000" stroke="#000000" points="324.5152,-202.6927 332.7217,-205.7932 328.5076,-202.4464 332.5,-202.2 332.5,-202.2 332.5,-202.2 328.5076,-202.4464 332.2783,-198.6068 324.5152,-202.6927 324.5152,-202.6927"/>
<ellipse fill="none" stroke="#000000" cx="321.3213" cy="-202.8898" rx="3.2" ry="3.2"/>
</g>
</g>
</svg>
