<?xml version="1.0" encoding="UTF-8" standalone="no"?>
<!DOCTYPE svg PUBLIC "-//W3C//DTD SVG 1.1//EN"
 "http://www.w3.org/Graphics/SVG/1.1/DTD/svg11.dtd">
<!-- Generated by graphviz version 2.40.1 (20161225.0304)
 -->
<!-- Title: twoDegreesRelationshipsDiagram Pages: 1 -->
<svg width="578pt" height="355pt"
 viewBox="0.00 0.00 578.00 354.70" xmlns="http://www.w3.org/2000/svg" xmlns:xlink="http://www.w3.org/1999/xlink">
<g id="graph0" class="graph" transform="scale(1 1) rotate(0) translate(4 350.7)">
<title>twoDegreesRelationshipsDiagram</title>
<polygon fill="#ffffff" stroke="transparent" points="-4,4 -4,-350.7 574,-350.7 574,4 -4,4"/>
<text text-anchor="middle" x="72.4936" y="-7.3" font-family="Helvetica,sans-Serif" font-size="11.00" fill="#000000">Generated by SchemaSpy</text>
<!-- avatar_inputs -->
<g id="node1" class="node">
<title>avatar_inputs</title>
<g id="a_node1"><a xlink:href="../../tables/avatar_inputs.html" xlink:title="avatar_inputs" target="_top">
<polygon fill="#ffffff" stroke="transparent" points="390.5,-38.2 390.5,-99.2 510.5,-99.2 510.5,-38.2 390.5,-38.2"/>
<polygon fill="#f5f5f5" stroke="transparent" points="390.5,-75.7 390.5,-98.7 510.5,-98.7 510.5,-75.7 390.5,-75.7"/>
<polygon fill="none" stroke="#000000" points="390.5,-75.7 390.5,-98.7 510.5,-98.7 510.5,-75.7 390.5,-75.7"/>
<text text-anchor="start" x="395.5" y="-84.3" font-family="Helvetica,sans-Serif" font-weight="bold" font-size="11.00" fill="#000000">avatar_inputs</text>
<text text-anchor="start" x="476.0219" y="-83.8" font-family="Helvetica,sans-Serif" font-size="11.00" fill="#000000">[table]</text>
<polygon fill="none" stroke="#000000" points="390.5,-56.7 390.5,-75.7 510.5,-75.7 510.5,-56.7 390.5,-56.7"/>
<text text-anchor="start" x="393.5" y="-62.8" font-family="Helvetica,sans-Serif" font-size="11.00" fill="#000000">...</text>
<polygon fill="#ffffff" stroke="transparent" points="390.5,-37.7 390.5,-56.7 448.5,-56.7 448.5,-37.7 390.5,-37.7"/>
<polygon fill="none" stroke="#000000" points="390.5,-37.7 390.5,-56.7 448.5,-56.7 448.5,-37.7 390.5,-37.7"/>
<text text-anchor="start" x="393.5" y="-43.8" font-family="Helvetica,sans-Serif" font-size="11.00" fill="#000000">&lt; 1</text>
<polygon fill="#ffffff" stroke="transparent" points="448.5,-37.7 448.5,-56.7 479.5,-56.7 479.5,-37.7 448.5,-37.7"/>
<polygon fill="none" stroke="#000000" points="448.5,-37.7 448.5,-56.7 479.5,-56.7 479.5,-37.7 448.5,-37.7"/>
<text text-anchor="start" x="470.3862" y="-43.8" font-family="Helvetica,sans-Serif" font-size="11.00" fill="#000000"> &#160;</text>
<polygon fill="#ffffff" stroke="transparent" points="479.5,-37.7 479.5,-56.7 510.5,-56.7 510.5,-37.7 479.5,-37.7"/>
<polygon fill="none" stroke="#000000" points="479.5,-37.7 479.5,-56.7 510.5,-56.7 510.5,-37.7 479.5,-37.7"/>
<text text-anchor="start" x="501.3862" y="-43.8" font-family="Helvetica,sans-Serif" font-size="11.00" fill="#000000"> &#160;</text>
</a>
</g>
</g>
<!-- avatars -->
<g id="node2" class="node">
<title>avatars</title>
<g id="a_node2"><a xlink:href="../../tables/avatars.html" xlink:title="avatars" target="_top">
<polygon fill="#ffffff" stroke="transparent" points="178.5,-199.2 178.5,-260.2 260.5,-260.2 260.5,-199.2 178.5,-199.2"/>
<polygon fill="#f5f5f5" stroke="transparent" points="178.5,-236.7 178.5,-259.7 260.5,-259.7 260.5,-236.7 178.5,-236.7"/>
<polygon fill="none" stroke="#000000" points="178.5,-236.7 178.5,-259.7 260.5,-259.7 260.5,-236.7 178.5,-236.7"/>
<text text-anchor="start" x="183.5" y="-245.3" font-family="Helvetica,sans-Serif" font-weight="bold" font-size="11.00" fill="#000000">avatars</text>
<text text-anchor="start" x="226.0219" y="-244.8" font-family="Helvetica,sans-Serif" font-size="11.00" fill="#000000">[table]</text>
<polygon fill="none" stroke="#000000" points="178.5,-217.7 178.5,-236.7 260.5,-236.7 260.5,-217.7 178.5,-217.7"/>
<text text-anchor="start" x="181.5" y="-223.8" font-family="Helvetica,sans-Serif" font-size="11.00" fill="#000000">...</text>
<polygon fill="#ffffff" stroke="transparent" points="178.5,-198.7 178.5,-217.7 213.5,-217.7 213.5,-198.7 178.5,-198.7"/>
<polygon fill="none" stroke="#000000" points="178.5,-198.7 178.5,-217.7 213.5,-217.7 213.5,-198.7 178.5,-198.7"/>
<text text-anchor="start" x="181.5" y="-204.8" font-family="Helvetica,sans-Serif" font-size="11.00" fill="#000000">&lt; 1</text>
<polygon fill="#ffffff" stroke="transparent" points="213.5,-198.7 213.5,-217.7 232.5,-217.7 232.5,-198.7 213.5,-198.7"/>
<polygon fill="none" stroke="#000000" points="213.5,-198.7 213.5,-217.7 232.5,-217.7 232.5,-198.7 213.5,-198.7"/>
<text text-anchor="start" x="223.3862" y="-204.8" font-family="Helvetica,sans-Serif" font-size="11.00" fill="#000000"> &#160;</text>
<polygon fill="#ffffff" stroke="transparent" points="232.5,-198.7 232.5,-217.7 260.5,-217.7 260.5,-198.7 232.5,-198.7"/>
<polygon fill="none" stroke="#000000" points="232.5,-198.7 232.5,-217.7 260.5,-217.7 260.5,-198.7 232.5,-198.7"/>
<text text-anchor="start" x="241.9053" y="-204.8" font-family="Helvetica,sans-Serif" font-size="11.00" fill="#000000">2 &gt;</text>
</a>
</g>
</g>
<!-- avatar_inputs&#45;&gt;avatars -->
<g id="edge1" class="edge">
<title>avatar_inputs:w&#45;&gt;avatars:e</title>
<path fill="none" stroke="#000000" d="M375.9835,-67.1843C355.0934,-72.005 347.8832,-88.1637 331,-109.7 307.524,-139.6462 323.73,-160.6666 298,-188.7 289.8906,-197.5354 279.4353,-204.7929 268.8166,-210.6139"/>
<polygon fill="#000000" stroke="#000000" points="382.5415,-66.5138 390.8662,-69.2813 386.5207,-66.1069 390.5,-65.7 390.5,-65.7 390.5,-65.7 386.5207,-66.1069 390.1338,-62.1187 382.5415,-66.5138 382.5415,-66.5138"/>
<ellipse fill="none" stroke="#000000" cx="379.3581" cy="-66.8393" rx="3.2" ry="3.2"/>
</g>
<!-- accounts -->
<g id="node3" class="node">
<title>accounts</title>
<g id="a_node3"><a xlink:href="../../tables/accounts.html" xlink:title="accounts" target="_top">
<polygon fill="#ffffff" stroke="transparent" points="8,-199.2 8,-260.2 100,-260.2 100,-199.2 8,-199.2"/>
<polygon fill="#f5f5f5" stroke="transparent" points="8,-236.7 8,-259.7 100,-259.7 100,-236.7 8,-236.7"/>
<polygon fill="none" stroke="#000000" points="8,-236.7 8,-259.7 100,-259.7 100,-236.7 8,-236.7"/>
<text text-anchor="start" x="13" y="-245.3" font-family="Helvetica,sans-Serif" font-weight="bold" font-size="11.00" fill="#000000">accounts</text>
<text text-anchor="start" x="65.5219" y="-244.8" font-family="Helvetica,sans-Serif" font-size="11.00" fill="#000000">[table]</text>
<polygon fill="none" stroke="#000000" points="8,-217.7 8,-236.7 100,-236.7 100,-217.7 8,-217.7"/>
<text text-anchor="start" x="11" y="-223.8" font-family="Helvetica,sans-Serif" font-size="11.00" fill="#000000">...</text>
<polygon fill="#ffffff" stroke="transparent" points="8,-198.7 8,-217.7 43,-217.7 43,-198.7 8,-198.7"/>
<polygon fill="none" stroke="#000000" points="8,-198.7 8,-217.7 43,-217.7 43,-198.7 8,-198.7"/>
<text text-anchor="start" x="11" y="-204.8" font-family="Helvetica,sans-Serif" font-size="11.00" fill="#000000"> &#160;</text>
<polygon fill="#ffffff" stroke="transparent" points="43,-198.7 43,-217.7 67,-217.7 67,-198.7 43,-198.7"/>
<polygon fill="none" stroke="#000000" points="43,-198.7 43,-217.7 67,-217.7 67,-198.7 43,-198.7"/>
<text text-anchor="start" x="57.8862" y="-204.8" font-family="Helvetica,sans-Serif" font-size="11.00" fill="#000000"> &#160;</text>
<polygon fill="#ffffff" stroke="transparent" points="67,-198.7 67,-217.7 100,-217.7 100,-198.7 67,-198.7"/>
<polygon fill="none" stroke="#000000" points="67,-198.7 67,-217.7 100,-217.7 100,-198.7 67,-198.7"/>
<text text-anchor="start" x="81.4053" y="-204.8" font-family="Helvetica,sans-Serif" font-size="11.00" fill="#000000">3 &gt;</text>
</a>
</g>
</g>
<!-- avatars&#45;&gt;accounts -->
<g id="edge2" class="edge">
<title>avatars:w&#45;&gt;accounts:e</title>
<path fill="none" stroke="#000000" d="M155.6511,-229.7C139.9931,-229.7 123.3811,-229.7 108.224,-229.7"/>
<polygon fill="#000000" stroke="#000000" points="162.2926,-229.7001 170.2927,-233.3 166.2926,-229.7 170.2926,-229.7 170.2926,-229.7 170.2926,-229.7 166.2926,-229.7 170.2926,-226.1 162.2926,-229.7001 162.2926,-229.7001"/>
<ellipse fill="none" stroke="#000000" cx="159.0926" cy="-229.7001" rx="3.2" ry="3.2"/>
</g>
<!-- blog_posts -->
<g id="node4" class="node">
<title>blog_posts</title>
<g id="a_node4"><a xlink:href="../../tables/blog_posts.html" xlink:title="blog_posts" target="_top">
<polygon fill="#ffffff" stroke="transparent" points="339,-120.7 339,-342.7 562,-342.7 562,-120.7 339,-120.7"/>
<polygon fill="#f5f5f5" stroke="transparent" points="341.5,-317.7 341.5,-340.7 560.5,-340.7 560.5,-317.7 341.5,-317.7"/>
<polygon fill="none" stroke="#000000" points="341.5,-317.7 341.5,-340.7 560.5,-340.7 560.5,-317.7 341.5,-317.7"/>
<text text-anchor="start" x="346.5" y="-326.3" font-family="Helvetica,sans-Serif" font-weight="bold" font-size="11.00" fill="#000000">blog_posts</text>
<text text-anchor="start" x="525.5437" y="-325.8" font-family="Helvetica,sans-Serif" font-size="11.00" fill="#000000">[table]</text>
<polygon fill="none" stroke="#000000" points="341.5,-295.7 341.5,-317.7 466.5,-317.7 466.5,-295.7 341.5,-295.7"/>
<image xlink:href="../../images/primaryKeys.png" width="11px" height="12px" preserveAspectRatio="xMinYMin meet" x="346.5" y="-312.7"/>
<text text-anchor="start" x="361.5" y="-302.8" font-family="Helvetica,sans-Serif" font-size="11.00" fill="#000000">id</text>
<polygon fill="none" stroke="#000000" points="466.5,-295.7 466.5,-317.7 560.5,-317.7 560.5,-295.7 466.5,-295.7"/>
<text text-anchor="start" x="469.4758" y="-303.4" font-family="Helvetica,sans-Serif" font-size="11.00" fill="#000000">uuid[2147483647]</text>
<polygon fill="none" stroke="#000000" points="341.5,-273.7 341.5,-295.7 466.5,-295.7 466.5,-273.7 341.5,-273.7"/>
<image xlink:href="../../images/foreignKeys.png" width="11px" height="12px" preserveAspectRatio="xMinYMin meet" x="346.5" y="-290.7"/>
<text text-anchor="start" x="361.5" y="-280.8" font-family="Helvetica,sans-Serif" font-size="11.00" fill="#000000">account_id</text>
<polygon fill="none" stroke="#000000" points="466.5,-273.7 466.5,-295.7 560.5,-295.7 560.5,-273.7 466.5,-273.7"/>
<text text-anchor="start" x="469.4758" y="-281.4" font-family="Helvetica,sans-Serif" font-size="11.00" fill="#000000">uuid[2147483647]</text>
<polygon fill="none" stroke="#000000" points="341.5,-251.7 341.5,-273.7 466.5,-273.7 466.5,-251.7 341.5,-251.7"/>
<image xlink:href="../../images/foreignKeys.png" width="11px" height="12px" preserveAspectRatio="xMinYMin meet" x="346.5" y="-268.7"/>
<text text-anchor="start" x="361.5" y="-258.8" font-family="Helvetica,sans-Serif" font-size="11.00" fill="#000000">avatar_id</text>
<polygon fill="none" stroke="#000000" points="466.5,-251.7 466.5,-273.7 560.5,-273.7 560.5,-251.7 466.5,-251.7"/>
<text text-anchor="start" x="469.4758" y="-259.4" font-family="Helvetica,sans-Serif" font-size="11.00" fill="#000000">uuid[2147483647]</text>
<polygon fill="none" stroke="#000000" points="341.5,-229.7 341.5,-251.7 466.5,-251.7 466.5,-229.7 341.5,-229.7"/>
<text text-anchor="start" x="361.5" y="-236.8" font-family="Helvetica,sans-Serif" font-size="11.00" fill="#000000">title</text>
<polygon fill="none" stroke="#000000" points="466.5,-229.7 466.5,-251.7 560.5,-251.7 560.5,-229.7 466.5,-229.7"/>
<text text-anchor="start" x="469.5" y="-237.4" font-family="Helvetica,sans-Serif" font-size="11.00" fill="#000000">text[2147483647]</text>
<polygon fill="none" stroke="#000000" points="341.5,-207.7 341.5,-229.7 466.5,-229.7 466.5,-207.7 341.5,-207.7"/>
<text text-anchor="start" x="361.5" y="-214.8" font-family="Helvetica,sans-Serif" font-size="11.00" fill="#000000">description</text>
<polygon fill="none" stroke="#000000" points="466.5,-207.7 466.5,-229.7 560.5,-229.7 560.5,-207.7 466.5,-207.7"/>
<text text-anchor="start" x="469.5" y="-215.4" font-family="Helvetica,sans-Serif" font-size="11.00" fill="#000000">text[2147483647]</text>
<polygon fill="none" stroke="#000000" points="341.5,-185.7 341.5,-207.7 466.5,-207.7 466.5,-185.7 341.5,-185.7"/>
<text text-anchor="start" x="361.5" y="-192.8" font-family="Helvetica,sans-Serif" font-size="11.00" fill="#000000">utc_created_on</text>
<polygon fill="none" stroke="#000000" points="466.5,-185.7 466.5,-207.7 560.5,-207.7 560.5,-185.7 466.5,-185.7"/>
<text text-anchor="start" x="469.5" y="-193.4" font-family="Helvetica,sans-Serif" font-size="11.00" fill="#000000">timestamp[29,6]</text>
<polygon fill="none" stroke="#000000" points="341.5,-163.7 341.5,-185.7 466.5,-185.7 466.5,-163.7 341.5,-163.7"/>
<text text-anchor="start" x="361.5" y="-170.8" font-family="Helvetica,sans-Serif" font-size="11.00" fill="#000000">image_url</text>
<polygon fill="none" stroke="#000000" points="466.5,-163.7 466.5,-185.7 560.5,-185.7 560.5,-163.7 466.5,-163.7"/>
<text text-anchor="start" x="469.5" y="-171.4" font-family="Helvetica,sans-Serif" font-size="11.00" fill="#000000">text[2147483647]</text>
<polygon fill="none" stroke="#000000" points="341.5,-141.7 341.5,-163.7 466.5,-163.7 466.5,-141.7 341.5,-141.7"/>
<text text-anchor="start" x="361.5" y="-148.8" font-family="Helvetica,sans-Serif" font-size="11.00" fill="#000000">short_description</text>
<polygon fill="none" stroke="#000000" points="466.5,-141.7 466.5,-163.7 560.5,-163.7 560.5,-141.7 466.5,-141.7"/>
<text text-anchor="start" x="469.5" y="-149.4" font-family="Helvetica,sans-Serif" font-size="11.00" fill="#000000">text[2147483647]</text>
<polygon fill="#ffffff" stroke="transparent" points="341.5,-122.7 341.5,-141.7 408.5,-141.7 408.5,-122.7 341.5,-122.7"/>
<polygon fill="none" stroke="#000000" points="341.5,-122.7 341.5,-141.7 408.5,-141.7 408.5,-122.7 341.5,-122.7"/>
<text text-anchor="start" x="344.5" y="-128.8" font-family="Helvetica,sans-Serif" font-size="11.00" fill="#000000">&lt; 2</text>
<polygon fill="#ffffff" stroke="transparent" points="408.5,-122.7 408.5,-141.7 466.5,-141.7 466.5,-122.7 408.5,-122.7"/>
<polygon fill="none" stroke="#000000" points="408.5,-122.7 408.5,-141.7 466.5,-141.7 466.5,-122.7 408.5,-122.7"/>
<text text-anchor="start" x="457.3862" y="-128.8" font-family="Helvetica,sans-Serif" font-size="11.00" fill="#000000"> &#160;</text>
<polygon fill="#ffffff" stroke="transparent" points="466.5,-122.7 466.5,-141.7 560.5,-141.7 560.5,-122.7 466.5,-122.7"/>
<polygon fill="none" stroke="#000000" points="466.5,-122.7 466.5,-141.7 560.5,-141.7 560.5,-122.7 466.5,-122.7"/>
<text text-anchor="start" x="541.9053" y="-128.8" font-family="Helvetica,sans-Serif" font-size="11.00" fill="#000000">0 &gt;</text>
<polygon fill="none" stroke="#000000" stroke-width="2" points="340,-121.7 340,-341.7 561,-341.7 561,-121.7 340,-121.7"/>
</a>
</g>
</g>
<!-- blog_posts&#45;&gt;avatars -->
<g id="edge4" class="edge">
<title>blog_posts:w&#45;&gt;avatars:e</title>
<path fill="none" stroke="#000000" d="M326.9363,-262.0183C306.7742,-260.2025 286.2146,-254.9957 268.5511,-249.2776"/>
<polygon fill="#000000" stroke="#000000" points="333.5087,-262.3259 341.3317,-266.2961 337.5044,-262.513 341.5,-262.7 341.5,-262.7 341.5,-262.7 337.5044,-262.513 341.6683,-259.1039 333.5087,-262.3259 333.5087,-262.3259"/>
<ellipse fill="none" stroke="#000000" cx="330.3122" cy="-262.1763" rx="3.2" ry="3.2"/>
</g>
<!-- blog_posts&#45;&gt;accounts -->
<g id="edge3" class="edge">
<title>blog_posts:w&#45;&gt;accounts:e</title>
<path fill="none" stroke="#000000" d="M326.9199,-284.775C249.1721,-285.5674 222.5424,-291.9608 141,-270.7 130.0131,-267.8354 118.7246,-263.5997 108.0698,-258.9236"/>
<polygon fill="#000000" stroke="#000000" points="333.5001,-284.7412 341.5185,-288.3 337.5001,-284.7206 341.5,-284.7 341.5,-284.7 341.5,-284.7 337.5001,-284.7206 341.4815,-281.1 333.5001,-284.7412 333.5001,-284.7412"/>
<ellipse fill="none" stroke="#000000" cx="330.3001" cy="-284.7577" rx="3.2" ry="3.2"/>
</g>
<!-- user_in_accounts -->
<g id="node5" class="node">
<title>user_in_accounts</title>
<g id="a_node5"><a xlink:href="../../tables/user_in_accounts.html" xlink:title="user_in_accounts" target="_top">
<polygon fill="#ffffff" stroke="transparent" points="149,-117.2 149,-178.2 290,-178.2 290,-117.2 149,-117.2"/>
<polygon fill="#f5f5f5" stroke="transparent" points="149.5,-154.7 149.5,-177.7 290.5,-177.7 290.5,-154.7 149.5,-154.7"/>
<polygon fill="none" stroke="#000000" points="149.5,-154.7 149.5,-177.7 290.5,-177.7 290.5,-154.7 149.5,-154.7"/>
<text text-anchor="start" x="154.5" y="-163.3" font-family="Helvetica,sans-Serif" font-weight="bold" font-size="11.00" fill="#000000">user_in_accounts</text>
<text text-anchor="start" x="256.0219" y="-162.8" font-family="Helvetica,sans-Serif" font-size="11.00" fill="#000000">[table]</text>
<polygon fill="none" stroke="#000000" points="149.5,-135.7 149.5,-154.7 290.5,-154.7 290.5,-135.7 149.5,-135.7"/>
<text text-anchor="start" x="152.5" y="-141.8" font-family="Helvetica,sans-Serif" font-size="11.00" fill="#000000">...</text>
<polygon fill="#ffffff" stroke="transparent" points="149.5,-116.7 149.5,-135.7 218.5,-135.7 218.5,-116.7 149.5,-116.7"/>
<polygon fill="none" stroke="#000000" points="149.5,-116.7 149.5,-135.7 218.5,-135.7 218.5,-116.7 149.5,-116.7"/>
<text text-anchor="start" x="152.5" y="-122.8" font-family="Helvetica,sans-Serif" font-size="11.00" fill="#000000">&lt; 2</text>
<polygon fill="#ffffff" stroke="transparent" points="218.5,-116.7 218.5,-135.7 254.5,-135.7 254.5,-116.7 218.5,-116.7"/>
<polygon fill="none" stroke="#000000" points="218.5,-116.7 218.5,-135.7 254.5,-135.7 254.5,-116.7 218.5,-116.7"/>
<text text-anchor="start" x="245.3862" y="-122.8" font-family="Helvetica,sans-Serif" font-size="11.00" fill="#000000"> &#160;</text>
<polygon fill="#ffffff" stroke="transparent" points="254.5,-116.7 254.5,-135.7 290.5,-135.7 290.5,-116.7 254.5,-116.7"/>
<polygon fill="none" stroke="#000000" points="254.5,-116.7 254.5,-135.7 290.5,-135.7 290.5,-116.7 254.5,-116.7"/>
<text text-anchor="start" x="281.3862" y="-122.8" font-family="Helvetica,sans-Serif" font-size="11.00" fill="#000000"> &#160;</text>
</a>
</g>
</g>
<!-- user_in_accounts&#45;&gt;accounts -->
<g id="edge5" class="edge">
<title>user_in_accounts:w&#45;&gt;accounts:e</title>
<path fill="none" stroke="#000000" d="M134.9521,-146.5544C109.573,-153.0225 88.6873,-175.2715 74.4902,-195.1272"/>
<polygon fill="#000000" stroke="#000000" points="141.5642,-145.7116 149.9552,-148.2711 145.5321,-145.2058 149.5,-144.7 149.5,-144.7 149.5,-144.7 145.5321,-145.2058 149.0448,-141.1289 141.5642,-145.7116 141.5642,-145.7116"/>
<ellipse fill="none" stroke="#000000" cx="138.3899" cy="-146.1163" rx="3.2" ry="3.2"/>
</g>
</g>
</svg>
