<?xml version="1.0" encoding="UTF-8" standalone="no"?>
<!DOCTYPE svg PUBLIC "-//W3C//DTD SVG 1.1//EN"
 "http://www.w3.org/Graphics/SVG/1.1/DTD/svg11.dtd">
<!-- Generated by graphviz version 2.40.1 (20161225.0304)
 -->
<!-- Title: oneDegreeRelationshipsDiagram Pages: 1 -->
<svg width="240pt" height="184pt"
 viewBox="0.00 0.00 240.00 184.20" xmlns="http://www.w3.org/2000/svg" xmlns:xlink="http://www.w3.org/1999/xlink">
<g id="graph0" class="graph" transform="scale(1 1) rotate(0) translate(4 180.2)">
<title>oneDegreeRelationshipsDiagram</title>
<polygon fill="#ffffff" stroke="transparent" points="-4,4 -4,-180.2 236,-180.2 236,4 -4,4"/>
<text text-anchor="middle" x="72.4936" y="-7.3" font-family="Helvetica,sans-Serif" font-size="11.00" fill="#000000">Generated by SchemaSpy</text>
<!-- knex_migrations -->
<g id="node1" class="node">
<title>knex_migrations</title>
<g id="a_node1"><a xlink:href="../../tables/knex_migrations.html" xlink:title="knex_migrations" target="_top">
<polygon fill="#ffffff" stroke="transparent" points="8,-38.2 8,-172.2 224,-172.2 224,-38.2 8,-38.2"/>
<polygon fill="#f5f5f5" stroke="transparent" points="10,-147.2 10,-170.2 222,-170.2 222,-147.2 10,-147.2"/>
<polygon fill="none" stroke="#000000" points="10,-147.2 10,-170.2 222,-170.2 222,-147.2 10,-147.2"/>
<text text-anchor="start" x="15" y="-155.8" font-family="Helvetica,sans-Serif" font-weight="bold" font-size="11.00" fill="#000000">knex_migrations</text>
<text text-anchor="start" x="187.0437" y="-155.3" font-family="Helvetica,sans-Serif" font-size="11.00" fill="#000000">[table]</text>
<polygon fill="none" stroke="#000000" points="10,-125.2 10,-147.2 130,-147.2 130,-125.2 10,-125.2"/>
<image xlink:href="../../images/primaryKeys.png" width="11px" height="12px" preserveAspectRatio="xMinYMin meet" x="15" y="-142.2"/>
<text text-anchor="start" x="30" y="-132.3" font-family="Helvetica,sans-Serif" font-size="11.00" fill="#000000">id</text>
<polygon fill="none" stroke="#000000" points="130,-125.2 130,-147.2 222,-147.2 222,-125.2 130,-125.2"/>
<text text-anchor="start" x="133" y="-132.9" font-family="Helvetica,sans-Serif" font-size="11.00" fill="#000000">serial[10]</text>
<polygon fill="none" stroke="#000000" points="10,-103.2 10,-125.2 130,-125.2 130,-103.2 10,-103.2"/>
<text text-anchor="start" x="30" y="-110.3" font-family="Helvetica,sans-Serif" font-size="11.00" fill="#000000">name</text>
<polygon fill="none" stroke="#000000" points="130,-103.2 130,-125.2 222,-125.2 222,-103.2 130,-103.2"/>
<text text-anchor="start" x="133" y="-110.9" font-family="Helvetica,sans-Serif" font-size="11.00" fill="#000000">varchar[255]</text>
<polygon fill="none" stroke="#000000" points="10,-81.2 10,-103.2 130,-103.2 130,-81.2 10,-81.2"/>
<text text-anchor="start" x="30" y="-88.3" font-family="Helvetica,sans-Serif" font-size="11.00" fill="#000000">batch</text>
<polygon fill="none" stroke="#000000" points="130,-81.2 130,-103.2 222,-103.2 222,-81.2 130,-81.2"/>
<text text-anchor="start" x="133" y="-88.9" font-family="Helvetica,sans-Serif" font-size="11.00" fill="#000000">int4[10]</text>
<polygon fill="none" stroke="#000000" points="10,-59.2 10,-81.2 130,-81.2 130,-59.2 10,-59.2"/>
<text text-anchor="start" x="30" y="-66.3" font-family="Helvetica,sans-Serif" font-size="11.00" fill="#000000">migration_time</text>
<polygon fill="none" stroke="#000000" points="130,-59.2 130,-81.2 222,-81.2 222,-59.2 130,-59.2"/>
<text text-anchor="start" x="132.6023" y="-66.9" font-family="Helvetica,sans-Serif" font-size="11.00" fill="#000000">timestamptz[35,6]</text>
<polygon fill="#ffffff" stroke="transparent" points="10,-40.2 10,-59.2 74,-59.2 74,-40.2 10,-40.2"/>
<polygon fill="none" stroke="#000000" points="10,-40.2 10,-59.2 74,-59.2 74,-40.2 10,-40.2"/>
<text text-anchor="start" x="13" y="-46.3" font-family="Helvetica,sans-Serif" font-size="11.00" fill="#000000">&lt; 0</text>
<polygon fill="#ffffff" stroke="transparent" points="74,-40.2 74,-59.2 130,-59.2 130,-40.2 74,-40.2"/>
<polygon fill="none" stroke="#000000" points="74,-40.2 74,-59.2 130,-59.2 130,-40.2 74,-40.2"/>
<text text-anchor="start" x="120.8862" y="-46.3" font-family="Helvetica,sans-Serif" font-size="11.00" fill="#000000"> &#160;</text>
<polygon fill="#ffffff" stroke="transparent" points="130,-40.2 130,-59.2 222,-59.2 222,-40.2 130,-40.2"/>
<polygon fill="none" stroke="#000000" points="130,-40.2 130,-59.2 222,-59.2 222,-40.2 130,-40.2"/>
<text text-anchor="start" x="203.4053" y="-46.3" font-family="Helvetica,sans-Serif" font-size="11.00" fill="#000000">0 &gt;</text>
<polygon fill="none" stroke="#000000" stroke-width="2" points="9,-39.2 9,-171.2 223,-171.2 223,-39.2 9,-39.2"/>
</a>
</g>
</g>
</g>
</svg>
