<?xml version="1.0" encoding="UTF-8" standalone="no"?>
<!DOCTYPE svg PUBLIC "-//W3C//DTD SVG 1.1//EN"
 "http://www.w3.org/Graphics/SVG/1.1/DTD/svg11.dtd">
<!-- Generated by graphviz version 2.40.1 (20161225.0304)
 -->
<!-- Title: oneDegreeRelationshipsDiagram Pages: 1 -->
<svg width="423pt" height="206pt"
 viewBox="0.00 0.00 423.00 206.20" xmlns="http://www.w3.org/2000/svg" xmlns:xlink="http://www.w3.org/1999/xlink">
<g id="graph0" class="graph" transform="scale(1 1) rotate(0) translate(4 202.2)">
<title>oneDegreeRelationshipsDiagram</title>
<polygon fill="#ffffff" stroke="transparent" points="-4,4 -4,-202.2 419,-202.2 419,4 -4,4"/>
<text text-anchor="middle" x="72.4936" y="-7.3" font-family="Helvetica,sans-Serif" font-size="11.00" fill="#000000">Generated by SchemaSpy</text>
<!-- user_in_accounts -->
<g id="node1" class="node">
<title>user_in_accounts</title>
<g id="a_node1"><a xlink:href="../../tables/user_in_accounts.html" xlink:title="user_in_accounts" target="_top">
<polygon fill="#ffffff" stroke="transparent" points="266,-87.7 266,-192.7 407,-192.7 407,-87.7 266,-87.7"/>
<polygon fill="#f5f5f5" stroke="transparent" points="266.5,-169.2 266.5,-192.2 407.5,-192.2 407.5,-169.2 266.5,-169.2"/>
<polygon fill="none" stroke="#000000" points="266.5,-169.2 266.5,-192.2 407.5,-192.2 407.5,-169.2 266.5,-169.2"/>
<text text-anchor="start" x="271.5" y="-177.8" font-family="Helvetica,sans-Serif" font-weight="bold" font-size="11.00" fill="#000000">user_in_accounts</text>
<text text-anchor="start" x="373.0219" y="-177.3" font-family="Helvetica,sans-Serif" font-size="11.00" fill="#000000">[table]</text>
<polygon fill="none" stroke="#000000" points="266.5,-147.2 266.5,-169.2 407.5,-169.2 407.5,-147.2 266.5,-147.2"/>
<image xlink:href="../../images/primaryKeys.png" width="11px" height="12px" preserveAspectRatio="xMinYMin meet" x="271.5" y="-164.2"/>
<text text-anchor="start" x="295.5" y="-154.3" font-family="Helvetica,sans-Serif" font-size="11.00" fill="#000000">user_id</text>
<polygon fill="none" stroke="#000000" points="266.5,-125.2 266.5,-147.2 407.5,-147.2 407.5,-125.2 266.5,-125.2"/>
<image xlink:href="../../images/primaryKeys.png" width="11px" height="12px" preserveAspectRatio="xMinYMin meet" x="271.5" y="-142.2"/>
<text text-anchor="start" x="295.5" y="-132.3" font-family="Helvetica,sans-Serif" font-size="11.00" fill="#000000">account_id</text>
<polygon fill="none" stroke="#000000" points="266.5,-106.2 266.5,-125.2 407.5,-125.2 407.5,-106.2 266.5,-106.2"/>
<text text-anchor="start" x="269.5" y="-112.3" font-family="Helvetica,sans-Serif" font-size="11.00" fill="#000000">...</text>
<polygon fill="#ffffff" stroke="transparent" points="266.5,-87.2 266.5,-106.2 335.5,-106.2 335.5,-87.2 266.5,-87.2"/>
<polygon fill="none" stroke="#000000" points="266.5,-87.2 266.5,-106.2 335.5,-106.2 335.5,-87.2 266.5,-87.2"/>
<text text-anchor="start" x="269.5" y="-93.3" font-family="Helvetica,sans-Serif" font-size="11.00" fill="#000000">&lt; 2</text>
<polygon fill="#ffffff" stroke="transparent" points="335.5,-87.2 335.5,-106.2 371.5,-106.2 371.5,-87.2 335.5,-87.2"/>
<polygon fill="none" stroke="#000000" points="335.5,-87.2 335.5,-106.2 371.5,-106.2 371.5,-87.2 335.5,-87.2"/>
<text text-anchor="start" x="362.3862" y="-93.3" font-family="Helvetica,sans-Serif" font-size="11.00" fill="#000000"> &#160;</text>
<polygon fill="#ffffff" stroke="transparent" points="371.5,-87.2 371.5,-106.2 407.5,-106.2 407.5,-87.2 371.5,-87.2"/>
<polygon fill="none" stroke="#000000" points="371.5,-87.2 371.5,-106.2 407.5,-106.2 407.5,-87.2 371.5,-87.2"/>
<text text-anchor="start" x="398.3862" y="-93.3" font-family="Helvetica,sans-Serif" font-size="11.00" fill="#000000"> &#160;</text>
</a>
</g>
</g>
<!-- users -->
<g id="node2" class="node">
<title>users</title>
<g id="a_node2"><a xlink:href="../../tables/users.html" xlink:title="users" target="_top">
<polygon fill="#ffffff" stroke="transparent" points="8,-38.2 8,-194.2 217,-194.2 217,-38.2 8,-38.2"/>
<polygon fill="#f5f5f5" stroke="transparent" points="10.5,-169.2 10.5,-192.2 215.5,-192.2 215.5,-169.2 10.5,-169.2"/>
<polygon fill="none" stroke="#000000" points="10.5,-169.2 10.5,-192.2 215.5,-192.2 215.5,-169.2 10.5,-169.2"/>
<text text-anchor="start" x="15.5" y="-177.8" font-family="Helvetica,sans-Serif" font-weight="bold" font-size="11.00" fill="#000000">users</text>
<text text-anchor="start" x="180.5437" y="-177.3" font-family="Helvetica,sans-Serif" font-size="11.00" fill="#000000">[table]</text>
<polygon fill="none" stroke="#000000" points="10.5,-147.2 10.5,-169.2 121.5,-169.2 121.5,-147.2 10.5,-147.2"/>
<image xlink:href="../../images/primaryKeys.png" width="11px" height="12px" preserveAspectRatio="xMinYMin meet" x="15.5" y="-164.2"/>
<text text-anchor="start" x="30.5" y="-154.3" font-family="Helvetica,sans-Serif" font-size="11.00" fill="#000000">id</text>
<polygon fill="none" stroke="#000000" points="121.5,-147.2 121.5,-169.2 215.5,-169.2 215.5,-147.2 121.5,-147.2"/>
<text text-anchor="start" x="124.4758" y="-154.9" font-family="Helvetica,sans-Serif" font-size="11.00" fill="#000000">uuid[2147483647]</text>
<polygon fill="#ffffff" stroke="transparent" points="10.5,-125.2 10.5,-147.2 121.5,-147.2 121.5,-125.2 10.5,-125.2"/>
<polygon fill="none" stroke="#000000" points="10.5,-125.2 10.5,-147.2 121.5,-147.2 121.5,-125.2 10.5,-125.2"/>
<text text-anchor="start" x="30.5" y="-132.3" font-family="Helvetica,sans-Serif" font-size="11.00" fill="#000000">email</text>
<polygon fill="none" stroke="#000000" points="121.5,-125.2 121.5,-147.2 215.5,-147.2 215.5,-125.2 121.5,-125.2"/>
<text text-anchor="start" x="124.5" y="-132.9" font-family="Helvetica,sans-Serif" font-size="11.00" fill="#000000">text[2147483647]</text>
<polygon fill="none" stroke="#000000" points="10.5,-103.2 10.5,-125.2 121.5,-125.2 121.5,-103.2 10.5,-103.2"/>
<text text-anchor="start" x="30.5" y="-110.3" font-family="Helvetica,sans-Serif" font-size="11.00" fill="#000000">name</text>
<polygon fill="none" stroke="#000000" points="121.5,-103.2 121.5,-125.2 215.5,-125.2 215.5,-103.2 121.5,-103.2"/>
<text text-anchor="start" x="124.5" y="-110.9" font-family="Helvetica,sans-Serif" font-size="11.00" fill="#000000">text[2147483647]</text>
<polygon fill="none" stroke="#000000" points="10.5,-81.2 10.5,-103.2 121.5,-103.2 121.5,-81.2 10.5,-81.2"/>
<text text-anchor="start" x="30.5" y="-88.3" font-family="Helvetica,sans-Serif" font-size="11.00" fill="#000000">password</text>
<polygon fill="none" stroke="#000000" points="121.5,-81.2 121.5,-103.2 215.5,-103.2 215.5,-81.2 121.5,-81.2"/>
<text text-anchor="start" x="124.5" y="-88.9" font-family="Helvetica,sans-Serif" font-size="11.00" fill="#000000">text[2147483647]</text>
<polygon fill="none" stroke="#000000" points="10.5,-59.2 10.5,-81.2 121.5,-81.2 121.5,-59.2 10.5,-59.2"/>
<text text-anchor="start" x="30.5" y="-66.3" font-family="Helvetica,sans-Serif" font-size="11.00" fill="#000000">utc_created_on</text>
<polygon fill="none" stroke="#000000" points="121.5,-59.2 121.5,-81.2 215.5,-81.2 215.5,-59.2 121.5,-59.2"/>
<text text-anchor="start" x="124.5" y="-66.9" font-family="Helvetica,sans-Serif" font-size="11.00" fill="#000000">timestamp[29,6]</text>
<polygon fill="#ffffff" stroke="transparent" points="10.5,-40.2 10.5,-59.2 70.5,-59.2 70.5,-40.2 10.5,-40.2"/>
<polygon fill="none" stroke="#000000" points="10.5,-40.2 10.5,-59.2 70.5,-59.2 70.5,-40.2 10.5,-40.2"/>
<text text-anchor="start" x="13.5" y="-46.3" font-family="Helvetica,sans-Serif" font-size="11.00" fill="#000000">&lt; 0</text>
<polygon fill="#ffffff" stroke="transparent" points="70.5,-40.2 70.5,-59.2 121.5,-59.2 121.5,-40.2 70.5,-40.2"/>
<polygon fill="none" stroke="#000000" points="70.5,-40.2 70.5,-59.2 121.5,-59.2 121.5,-40.2 70.5,-40.2"/>
<text text-anchor="start" x="112.3862" y="-46.3" font-family="Helvetica,sans-Serif" font-size="11.00" fill="#000000"> &#160;</text>
<polygon fill="#ffffff" stroke="transparent" points="121.5,-40.2 121.5,-59.2 215.5,-59.2 215.5,-40.2 121.5,-40.2"/>
<polygon fill="none" stroke="#000000" points="121.5,-40.2 121.5,-59.2 215.5,-59.2 215.5,-40.2 121.5,-40.2"/>
<text text-anchor="start" x="196.9053" y="-46.3" font-family="Helvetica,sans-Serif" font-size="11.00" fill="#000000">1 &gt;</text>
<polygon fill="none" stroke="#000000" stroke-width="2" points="9,-39.2 9,-193.2 216,-193.2 216,-39.2 9,-39.2"/>
</a>
</g>
</g>
<!-- user_in_accounts&#45;&gt;users -->
<g id="edge1" class="edge">
<title>user_in_accounts:w&#45;&gt;users:e</title>
<path fill="none" stroke="#000000" d="M251.776,-158.2C239.7815,-158.2 232.3229,-158.2 215.5,-158.2"/>
<polygon fill="#000000" stroke="#000000" points="258.5,-158.2001 266.5,-161.8 262.5,-158.2 266.5,-158.2 266.5,-158.2 266.5,-158.2 262.5,-158.2 266.5,-154.6 258.5,-158.2001 258.5,-158.2001"/>
<ellipse fill="none" stroke="#000000" cx="255.3" cy="-158.2001" rx="3.2" ry="3.2"/>
</g>
</g>
</svg>
