<?xml version="1.0" encoding="UTF-8" standalone="no"?>
<!DOCTYPE svg PUBLIC "-//W3C//DTD SVG 1.1//EN"
 "http://www.w3.org/Graphics/SVG/1.1/DTD/svg11.dtd">
<!-- Generated by graphviz version 2.40.1 (20161225.0304)
 -->
<!-- Title: twoDegreesRelationshipsDiagram Pages: 1 -->
<svg width="641pt" height="306pt"
 viewBox="0.00 0.00 641.00 306.20" xmlns="http://www.w3.org/2000/svg" xmlns:xlink="http://www.w3.org/1999/xlink">
<g id="graph0" class="graph" transform="scale(1 1) rotate(0) translate(4 302.2)">
<title>twoDegreesRelationshipsDiagram</title>
<polygon fill="#ffffff" stroke="transparent" points="-4,4 -4,-302.2 637,-302.2 637,4 -4,4"/>
<text text-anchor="middle" x="72.4936" y="-7.3" font-family="Helvetica,sans-Serif" font-size="11.00" fill="#000000">Generated by SchemaSpy</text>
<!-- avatars -->
<g id="node1" class="node">
<title>avatars</title>
<g id="a_node1"><a xlink:href="../../tables/avatars.html" xlink:title="avatars" target="_top">
<polygon fill="#ffffff" stroke="transparent" points="279.5,-233.2 279.5,-294.2 361.5,-294.2 361.5,-233.2 279.5,-233.2"/>
<polygon fill="#f5f5f5" stroke="transparent" points="279.5,-270.7 279.5,-293.7 361.5,-293.7 361.5,-270.7 279.5,-270.7"/>
<polygon fill="none" stroke="#000000" points="279.5,-270.7 279.5,-293.7 361.5,-293.7 361.5,-270.7 279.5,-270.7"/>
<text text-anchor="start" x="284.5" y="-279.3" font-family="Helvetica,sans-Serif" font-weight="bold" font-size="11.00" fill="#000000">avatars</text>
<text text-anchor="start" x="327.0219" y="-278.8" font-family="Helvetica,sans-Serif" font-size="11.00" fill="#000000">[table]</text>
<polygon fill="none" stroke="#000000" points="279.5,-251.7 279.5,-270.7 361.5,-270.7 361.5,-251.7 279.5,-251.7"/>
<text text-anchor="start" x="282.5" y="-257.8" font-family="Helvetica,sans-Serif" font-size="11.00" fill="#000000">...</text>
<polygon fill="#ffffff" stroke="transparent" points="279.5,-232.7 279.5,-251.7 314.5,-251.7 314.5,-232.7 279.5,-232.7"/>
<polygon fill="none" stroke="#000000" points="279.5,-232.7 279.5,-251.7 314.5,-251.7 314.5,-232.7 279.5,-232.7"/>
<text text-anchor="start" x="282.5" y="-238.8" font-family="Helvetica,sans-Serif" font-size="11.00" fill="#000000">&lt; 1</text>
<polygon fill="#ffffff" stroke="transparent" points="314.5,-232.7 314.5,-251.7 333.5,-251.7 333.5,-232.7 314.5,-232.7"/>
<polygon fill="none" stroke="#000000" points="314.5,-232.7 314.5,-251.7 333.5,-251.7 333.5,-232.7 314.5,-232.7"/>
<text text-anchor="start" x="324.3862" y="-238.8" font-family="Helvetica,sans-Serif" font-size="11.00" fill="#000000"> &#160;</text>
<polygon fill="#ffffff" stroke="transparent" points="333.5,-232.7 333.5,-251.7 361.5,-251.7 361.5,-232.7 333.5,-232.7"/>
<polygon fill="none" stroke="#000000" points="333.5,-232.7 333.5,-251.7 361.5,-251.7 361.5,-232.7 333.5,-232.7"/>
<text text-anchor="start" x="342.9053" y="-238.8" font-family="Helvetica,sans-Serif" font-size="11.00" fill="#000000">2 &gt;</text>
</a>
</g>
</g>
<!-- accounts -->
<g id="node2" class="node">
<title>accounts</title>
<g id="a_node2"><a xlink:href="../../tables/accounts.html" xlink:title="accounts" target="_top">
<polygon fill="#ffffff" stroke="transparent" points="8,-164.2 8,-269.2 119,-269.2 119,-164.2 8,-164.2"/>
<polygon fill="#f5f5f5" stroke="transparent" points="8.5,-245.7 8.5,-268.7 119.5,-268.7 119.5,-245.7 8.5,-245.7"/>
<polygon fill="none" stroke="#000000" points="8.5,-245.7 8.5,-268.7 119.5,-268.7 119.5,-245.7 8.5,-245.7"/>
<text text-anchor="start" x="13.5" y="-254.3" font-family="Helvetica,sans-Serif" font-weight="bold" font-size="11.00" fill="#000000">accounts</text>
<text text-anchor="start" x="84.5437" y="-253.8" font-family="Helvetica,sans-Serif" font-size="11.00" fill="#000000">[table]</text>
<polygon fill="none" stroke="#000000" points="8.5,-223.7 8.5,-245.7 119.5,-245.7 119.5,-223.7 8.5,-223.7"/>
<image xlink:href="../../images/primaryKeys.png" width="11px" height="12px" preserveAspectRatio="xMinYMin meet" x="13.5" y="-240.7"/>
<text text-anchor="start" x="28.5" y="-230.8" font-family="Helvetica,sans-Serif" font-size="11.00" fill="#000000">id</text>
<polygon fill="#ffffff" stroke="transparent" points="8.5,-201.7 8.5,-223.7 119.5,-223.7 119.5,-201.7 8.5,-201.7"/>
<polygon fill="none" stroke="#000000" points="8.5,-201.7 8.5,-223.7 119.5,-223.7 119.5,-201.7 8.5,-201.7"/>
<text text-anchor="start" x="28.5" y="-208.8" font-family="Helvetica,sans-Serif" font-size="11.00" fill="#000000">link</text>
<polygon fill="none" stroke="#000000" points="8.5,-182.7 8.5,-201.7 119.5,-201.7 119.5,-182.7 8.5,-182.7"/>
<text text-anchor="start" x="11.5" y="-188.8" font-family="Helvetica,sans-Serif" font-size="11.00" fill="#000000">...</text>
<polygon fill="#ffffff" stroke="transparent" points="8.5,-163.7 8.5,-182.7 53.5,-182.7 53.5,-163.7 8.5,-163.7"/>
<polygon fill="none" stroke="#000000" points="8.5,-163.7 8.5,-182.7 53.5,-182.7 53.5,-163.7 8.5,-163.7"/>
<text text-anchor="start" x="11.5" y="-169.8" font-family="Helvetica,sans-Serif" font-size="11.00" fill="#000000"> &#160;</text>
<polygon fill="#ffffff" stroke="transparent" points="53.5,-163.7 53.5,-182.7 81.5,-182.7 81.5,-163.7 53.5,-163.7"/>
<polygon fill="none" stroke="#000000" points="53.5,-163.7 53.5,-182.7 81.5,-182.7 81.5,-163.7 53.5,-163.7"/>
<text text-anchor="start" x="72.3862" y="-169.8" font-family="Helvetica,sans-Serif" font-size="11.00" fill="#000000"> &#160;</text>
<polygon fill="#ffffff" stroke="transparent" points="81.5,-163.7 81.5,-182.7 119.5,-182.7 119.5,-163.7 81.5,-163.7"/>
<polygon fill="none" stroke="#000000" points="81.5,-163.7 81.5,-182.7 119.5,-182.7 119.5,-163.7 81.5,-163.7"/>
<text text-anchor="start" x="100.9053" y="-169.8" font-family="Helvetica,sans-Serif" font-size="11.00" fill="#000000">3 &gt;</text>
</a>
</g>
</g>
<!-- avatars&#45;&gt;accounts -->
<g id="edge1" class="edge">
<title>avatars:w&#45;&gt;accounts:e</title>
<path fill="none" stroke="#000000" d="M265.0967,-260.3325C204.941,-257.1723 186.4783,-234.7 119.5,-234.7"/>
<polygon fill="#000000" stroke="#000000" points="271.5026,-260.4959 279.4081,-264.2988 275.5013,-260.5979 279.5,-260.7 279.5,-260.7 279.5,-260.7 275.5013,-260.5979 279.5919,-257.1012 271.5026,-260.4959 271.5026,-260.4959"/>
<ellipse fill="none" stroke="#000000" cx="268.3036" cy="-260.4142" rx="3.2" ry="3.2"/>
</g>
<!-- blog_posts -->
<g id="node3" class="node">
<title>blog_posts</title>
<g id="a_node3"><a xlink:href="../../tables/blog_posts.html" xlink:title="blog_posts" target="_top">
<polygon fill="#ffffff" stroke="transparent" points="522,-207.2 522,-268.2 625,-268.2 625,-207.2 522,-207.2"/>
<polygon fill="#f5f5f5" stroke="transparent" points="522.5,-244.7 522.5,-267.7 625.5,-267.7 625.5,-244.7 522.5,-244.7"/>
<polygon fill="none" stroke="#000000" points="522.5,-244.7 522.5,-267.7 625.5,-267.7 625.5,-244.7 522.5,-244.7"/>
<text text-anchor="start" x="527.5" y="-253.3" font-family="Helvetica,sans-Serif" font-weight="bold" font-size="11.00" fill="#000000">blog_posts</text>
<text text-anchor="start" x="591.0219" y="-252.8" font-family="Helvetica,sans-Serif" font-size="11.00" fill="#000000">[table]</text>
<polygon fill="none" stroke="#000000" points="522.5,-225.7 522.5,-244.7 625.5,-244.7 625.5,-225.7 522.5,-225.7"/>
<text text-anchor="start" x="525.5" y="-231.8" font-family="Helvetica,sans-Serif" font-size="11.00" fill="#000000">...</text>
<polygon fill="#ffffff" stroke="transparent" points="522.5,-206.7 522.5,-225.7 572.5,-225.7 572.5,-206.7 522.5,-206.7"/>
<polygon fill="none" stroke="#000000" points="522.5,-206.7 522.5,-225.7 572.5,-225.7 572.5,-206.7 522.5,-206.7"/>
<text text-anchor="start" x="525.5" y="-212.8" font-family="Helvetica,sans-Serif" font-size="11.00" fill="#000000">&lt; 2</text>
<polygon fill="#ffffff" stroke="transparent" points="572.5,-206.7 572.5,-225.7 598.5,-225.7 598.5,-206.7 572.5,-206.7"/>
<polygon fill="none" stroke="#000000" points="572.5,-206.7 572.5,-225.7 598.5,-225.7 598.5,-206.7 572.5,-206.7"/>
<text text-anchor="start" x="589.3862" y="-212.8" font-family="Helvetica,sans-Serif" font-size="11.00" fill="#000000"> &#160;</text>
<polygon fill="#ffffff" stroke="transparent" points="598.5,-206.7 598.5,-225.7 625.5,-225.7 625.5,-206.7 598.5,-206.7"/>
<polygon fill="none" stroke="#000000" points="598.5,-206.7 598.5,-225.7 625.5,-225.7 625.5,-206.7 598.5,-206.7"/>
<text text-anchor="start" x="616.3862" y="-212.8" font-family="Helvetica,sans-Serif" font-size="11.00" fill="#000000"> &#160;</text>
</a>
</g>
</g>
<!-- blog_posts&#45;&gt;avatars -->
<g id="edge3" class="edge">
<title>blog_posts:w&#45;&gt;avatars:e</title>
<path fill="none" stroke="#000000" d="M508.0087,-235.0675C447.4834,-238.2277 428.8862,-260.7 361.5,-260.7"/>
<polygon fill="#000000" stroke="#000000" points="514.5026,-234.9029 522.5913,-238.2988 518.5013,-234.8014 522.5,-234.7 522.5,-234.7 522.5,-234.7 518.5013,-234.8014 522.4087,-231.1012 514.5026,-234.9029 514.5026,-234.9029"/>
<ellipse fill="none" stroke="#000000" cx="511.3036" cy="-234.984" rx="3.2" ry="3.2"/>
</g>
<!-- blog_posts&#45;&gt;accounts -->
<g id="edge2" class="edge">
<title>blog_posts:w&#45;&gt;accounts:e</title>
<path fill="none" stroke="#000000" d="M508.1959,-232.4593C499.7087,-229.5292 494.0695,-224.5516 481,-222.7 339.7439,-202.6874 301.1895,-202.223 160,-222.7 141.4209,-225.3946 138.2735,-234.7 119.5,-234.7"/>
<polygon fill="#000000" stroke="#000000" points="514.5964,-233.4619 521.9428,-238.2566 518.5482,-234.0809 522.5,-234.7 522.5,-234.7 522.5,-234.7 518.5482,-234.0809 523.0572,-231.1434 514.5964,-233.4619 514.5964,-233.4619"/>
<ellipse fill="none" stroke="#000000" cx="511.4349" cy="-232.9666" rx="3.2" ry="3.2"/>
</g>
<!-- user_in_accounts -->
<g id="node4" class="node">
<title>user_in_accounts</title>
<g id="a_node4"><a xlink:href="../../tables/user_in_accounts.html" xlink:title="user_in_accounts" target="_top">
<polygon fill="#ffffff" stroke="transparent" points="168,-65.7 168,-177.7 473,-177.7 473,-65.7 168,-65.7"/>
<polygon fill="#f5f5f5" stroke="transparent" points="170.5,-152.7 170.5,-175.7 471.5,-175.7 471.5,-152.7 170.5,-152.7"/>
<polygon fill="none" stroke="#000000" points="170.5,-152.7 170.5,-175.7 471.5,-175.7 471.5,-152.7 170.5,-152.7"/>
<text text-anchor="start" x="175.5" y="-161.3" font-family="Helvetica,sans-Serif" font-weight="bold" font-size="11.00" fill="#000000">user_in_accounts</text>
<text text-anchor="start" x="436.5437" y="-160.8" font-family="Helvetica,sans-Serif" font-size="11.00" fill="#000000">[table]</text>
<polygon fill="none" stroke="#000000" points="170.5,-130.7 170.5,-152.7 293.5,-152.7 293.5,-130.7 170.5,-130.7"/>
<image xlink:href="../../images/primaryKeys.png" width="11px" height="12px" preserveAspectRatio="xMinYMin meet" x="175.5" y="-147.7"/>
<text text-anchor="start" x="190.5" y="-137.8" font-family="Helvetica,sans-Serif" font-size="11.00" fill="#000000">user_id</text>
<polygon fill="none" stroke="#000000" points="293.5,-130.7 293.5,-152.7 471.5,-152.7 471.5,-130.7 293.5,-130.7"/>
<text text-anchor="start" x="296.5" y="-138.4" font-family="Helvetica,sans-Serif" font-size="11.00" fill="#000000">uuid[2147483647]</text>
<polygon fill="none" stroke="#000000" points="170.5,-108.7 170.5,-130.7 293.5,-130.7 293.5,-108.7 170.5,-108.7"/>
<image xlink:href="../../images/primaryKeys.png" width="11px" height="12px" preserveAspectRatio="xMinYMin meet" x="175.5" y="-125.7"/>
<text text-anchor="start" x="190.5" y="-115.8" font-family="Helvetica,sans-Serif" font-size="11.00" fill="#000000">account_id</text>
<polygon fill="none" stroke="#000000" points="293.5,-108.7 293.5,-130.7 471.5,-130.7 471.5,-108.7 293.5,-108.7"/>
<text text-anchor="start" x="296.5" y="-116.4" font-family="Helvetica,sans-Serif" font-size="11.00" fill="#000000">uuid[2147483647]</text>
<polygon fill="none" stroke="#000000" points="170.5,-86.7 170.5,-108.7 293.5,-108.7 293.5,-86.7 170.5,-86.7"/>
<text text-anchor="start" x="190.5" y="-93.8" font-family="Helvetica,sans-Serif" font-size="11.00" fill="#000000">role</text>
<polygon fill="none" stroke="#000000" points="293.5,-86.7 293.5,-108.7 471.5,-108.7 471.5,-86.7 293.5,-86.7"/>
<text text-anchor="start" x="296.298" y="-94.4" font-family="Helvetica,sans-Serif" font-size="11.00" fill="#000000">user_in_account_role[2147483647]</text>
<polygon fill="#ffffff" stroke="transparent" points="170.5,-67.7 170.5,-86.7 236.5,-86.7 236.5,-67.7 170.5,-67.7"/>
<polygon fill="none" stroke="#000000" points="170.5,-67.7 170.5,-86.7 236.5,-86.7 236.5,-67.7 170.5,-67.7"/>
<text text-anchor="start" x="173.5" y="-73.8" font-family="Helvetica,sans-Serif" font-size="11.00" fill="#000000">&lt; 2</text>
<polygon fill="#ffffff" stroke="transparent" points="236.5,-67.7 236.5,-86.7 293.5,-86.7 293.5,-67.7 236.5,-67.7"/>
<polygon fill="none" stroke="#000000" points="236.5,-67.7 236.5,-86.7 293.5,-86.7 293.5,-67.7 236.5,-67.7"/>
<text text-anchor="start" x="284.3862" y="-73.8" font-family="Helvetica,sans-Serif" font-size="11.00" fill="#000000"> &#160;</text>
<polygon fill="#ffffff" stroke="transparent" points="293.5,-67.7 293.5,-86.7 471.5,-86.7 471.5,-67.7 293.5,-67.7"/>
<polygon fill="none" stroke="#000000" points="293.5,-67.7 293.5,-86.7 471.5,-86.7 471.5,-67.7 293.5,-67.7"/>
<text text-anchor="start" x="452.9053" y="-73.8" font-family="Helvetica,sans-Serif" font-size="11.00" fill="#000000">0 &gt;</text>
<polygon fill="none" stroke="#000000" stroke-width="2" points="169,-66.7 169,-176.7 472,-176.7 472,-66.7 169,-66.7"/>
</a>
</g>
</g>
<!-- user_in_accounts&#45;&gt;accounts -->
<g id="edge4" class="edge">
<title>user_in_accounts:w&#45;&gt;accounts:e</title>
<path fill="none" stroke="#000000" d="M156.4308,-123.2678C126.1197,-142.6786 169.5148,-234.7 119.5,-234.7"/>
<polygon fill="#000000" stroke="#000000" points="162.7455,-121.6665 171.3849,-123.1895 166.6227,-120.6833 170.5,-119.7 170.5,-119.7 170.5,-119.7 166.6227,-120.6833 169.6151,-116.2105 162.7455,-121.6665 162.7455,-121.6665"/>
<ellipse fill="none" stroke="#000000" cx="159.6436" cy="-122.4531" rx="3.2" ry="3.2"/>
</g>
<!-- users -->
<g id="node5" class="node">
<title>users</title>
<g id="a_node5"><a xlink:href="../../tables/users.html" xlink:title="users" target="_top">
<polygon fill="#ffffff" stroke="transparent" points="8,-38.2 8,-143.2 119,-143.2 119,-38.2 8,-38.2"/>
<polygon fill="#f5f5f5" stroke="transparent" points="8.5,-119.7 8.5,-142.7 119.5,-142.7 119.5,-119.7 8.5,-119.7"/>
<polygon fill="none" stroke="#000000" points="8.5,-119.7 8.5,-142.7 119.5,-142.7 119.5,-119.7 8.5,-119.7"/>
<text text-anchor="start" x="13.5" y="-128.3" font-family="Helvetica,sans-Serif" font-weight="bold" font-size="11.00" fill="#000000">users</text>
<text text-anchor="start" x="84.5437" y="-127.8" font-family="Helvetica,sans-Serif" font-size="11.00" fill="#000000">[table]</text>
<polygon fill="none" stroke="#000000" points="8.5,-97.7 8.5,-119.7 119.5,-119.7 119.5,-97.7 8.5,-97.7"/>
<image xlink:href="../../images/primaryKeys.png" width="11px" height="12px" preserveAspectRatio="xMinYMin meet" x="13.5" y="-114.7"/>
<text text-anchor="start" x="28.5" y="-104.8" font-family="Helvetica,sans-Serif" font-size="11.00" fill="#000000">id</text>
<polygon fill="#ffffff" stroke="transparent" points="8.5,-75.7 8.5,-97.7 119.5,-97.7 119.5,-75.7 8.5,-75.7"/>
<polygon fill="none" stroke="#000000" points="8.5,-75.7 8.5,-97.7 119.5,-97.7 119.5,-75.7 8.5,-75.7"/>
<text text-anchor="start" x="28.5" y="-82.8" font-family="Helvetica,sans-Serif" font-size="11.00" fill="#000000">email</text>
<polygon fill="none" stroke="#000000" points="8.5,-56.7 8.5,-75.7 119.5,-75.7 119.5,-56.7 8.5,-56.7"/>
<text text-anchor="start" x="11.5" y="-62.8" font-family="Helvetica,sans-Serif" font-size="11.00" fill="#000000">...</text>
<polygon fill="#ffffff" stroke="transparent" points="8.5,-37.7 8.5,-56.7 53.5,-56.7 53.5,-37.7 8.5,-37.7"/>
<polygon fill="none" stroke="#000000" points="8.5,-37.7 8.5,-56.7 53.5,-56.7 53.5,-37.7 8.5,-37.7"/>
<text text-anchor="start" x="11.5" y="-43.8" font-family="Helvetica,sans-Serif" font-size="11.00" fill="#000000"> &#160;</text>
<polygon fill="#ffffff" stroke="transparent" points="53.5,-37.7 53.5,-56.7 81.5,-56.7 81.5,-37.7 53.5,-37.7"/>
<polygon fill="none" stroke="#000000" points="53.5,-37.7 53.5,-56.7 81.5,-56.7 81.5,-37.7 53.5,-37.7"/>
<text text-anchor="start" x="72.3862" y="-43.8" font-family="Helvetica,sans-Serif" font-size="11.00" fill="#000000"> &#160;</text>
<polygon fill="#ffffff" stroke="transparent" points="81.5,-37.7 81.5,-56.7 119.5,-56.7 119.5,-37.7 81.5,-37.7"/>
<polygon fill="none" stroke="#000000" points="81.5,-37.7 81.5,-56.7 119.5,-56.7 119.5,-37.7 81.5,-37.7"/>
<text text-anchor="start" x="100.9053" y="-43.8" font-family="Helvetica,sans-Serif" font-size="11.00" fill="#000000">1 &gt;</text>
</a>
</g>
</g>
<!-- user_in_accounts&#45;&gt;users -->
<g id="edge5" class="edge">
<title>user_in_accounts:w&#45;&gt;users:e</title>
<path fill="none" stroke="#000000" d="M156.4604,-137.6536C143.3775,-128.8416 140.5921,-108.7 119.5,-108.7"/>
<polygon fill="#000000" stroke="#000000" points="162.8129,-139.4844 169.503,-145.1592 166.6565,-140.5922 170.5,-141.7 170.5,-141.7 170.5,-141.7 166.6565,-140.5922 171.497,-138.2408 162.8129,-139.4844 162.8129,-139.4844"/>
<ellipse fill="none" stroke="#000000" cx="159.7381" cy="-138.5982" rx="3.2" ry="3.2"/>
</g>
</g>
</svg>
