<?xml version="1.0" encoding="UTF-8" standalone="no"?>
<!DOCTYPE svg PUBLIC "-//W3C//DTD SVG 1.1//EN"
 "http://www.w3.org/Graphics/SVG/1.1/DTD/svg11.dtd">
<!-- Generated by graphviz version 2.40.1 (20161225.0304)
 -->
<!-- Title: oneDegreeRelationshipsDiagram Pages: 1 -->
<svg width="489pt" height="281pt"
 viewBox="0.00 0.00 489.00 281.20" xmlns="http://www.w3.org/2000/svg" xmlns:xlink="http://www.w3.org/1999/xlink">
<g id="graph0" class="graph" transform="scale(1 1) rotate(0) translate(4 277.2)">
<title>oneDegreeRelationshipsDiagram</title>
<polygon fill="#ffffff" stroke="transparent" points="-4,4 -4,-277.2 485,-277.2 485,4 -4,4"/>
<text text-anchor="middle" x="72.4936" y="-7.3" font-family="Helvetica,sans-Serif" font-size="11.00" fill="#000000">Generated by SchemaSpy</text>
<!-- user_in_accounts -->
<g id="node1" class="node">
<title>user_in_accounts</title>
<g id="a_node1"><a xlink:href="../../tables/user_in_accounts.html" xlink:title="user_in_accounts" target="_top">
<polygon fill="#ffffff" stroke="transparent" points="168,-106.7 168,-218.7 473,-218.7 473,-106.7 168,-106.7"/>
<polygon fill="#f5f5f5" stroke="transparent" points="170.5,-193.7 170.5,-216.7 471.5,-216.7 471.5,-193.7 170.5,-193.7"/>
<polygon fill="none" stroke="#000000" points="170.5,-193.7 170.5,-216.7 471.5,-216.7 471.5,-193.7 170.5,-193.7"/>
<text text-anchor="start" x="175.5" y="-202.3" font-family="Helvetica,sans-Serif" font-weight="bold" font-size="11.00" fill="#000000">user_in_accounts</text>
<text text-anchor="start" x="436.5437" y="-201.8" font-family="Helvetica,sans-Serif" font-size="11.00" fill="#000000">[table]</text>
<polygon fill="none" stroke="#000000" points="170.5,-171.7 170.5,-193.7 293.5,-193.7 293.5,-171.7 170.5,-171.7"/>
<image xlink:href="../../images/primaryKeys.png" width="11px" height="12px" preserveAspectRatio="xMinYMin meet" x="175.5" y="-188.7"/>
<text text-anchor="start" x="190.5" y="-178.8" font-family="Helvetica,sans-Serif" font-size="11.00" fill="#000000">user_id</text>
<polygon fill="none" stroke="#000000" points="293.5,-171.7 293.5,-193.7 471.5,-193.7 471.5,-171.7 293.5,-171.7"/>
<text text-anchor="start" x="296.5" y="-179.4" font-family="Helvetica,sans-Serif" font-size="11.00" fill="#000000">uuid[2147483647]</text>
<polygon fill="none" stroke="#000000" points="170.5,-149.7 170.5,-171.7 293.5,-171.7 293.5,-149.7 170.5,-149.7"/>
<image xlink:href="../../images/primaryKeys.png" width="11px" height="12px" preserveAspectRatio="xMinYMin meet" x="175.5" y="-166.7"/>
<text text-anchor="start" x="190.5" y="-156.8" font-family="Helvetica,sans-Serif" font-size="11.00" fill="#000000">account_id</text>
<polygon fill="none" stroke="#000000" points="293.5,-149.7 293.5,-171.7 471.5,-171.7 471.5,-149.7 293.5,-149.7"/>
<text text-anchor="start" x="296.5" y="-157.4" font-family="Helvetica,sans-Serif" font-size="11.00" fill="#000000">uuid[2147483647]</text>
<polygon fill="none" stroke="#000000" points="170.5,-127.7 170.5,-149.7 293.5,-149.7 293.5,-127.7 170.5,-127.7"/>
<text text-anchor="start" x="190.5" y="-134.8" font-family="Helvetica,sans-Serif" font-size="11.00" fill="#000000">role</text>
<polygon fill="none" stroke="#000000" points="293.5,-127.7 293.5,-149.7 471.5,-149.7 471.5,-127.7 293.5,-127.7"/>
<text text-anchor="start" x="296.298" y="-135.4" font-family="Helvetica,sans-Serif" font-size="11.00" fill="#000000">user_in_account_role[2147483647]</text>
<polygon fill="#ffffff" stroke="transparent" points="170.5,-108.7 170.5,-127.7 236.5,-127.7 236.5,-108.7 170.5,-108.7"/>
<polygon fill="none" stroke="#000000" points="170.5,-108.7 170.5,-127.7 236.5,-127.7 236.5,-108.7 170.5,-108.7"/>
<text text-anchor="start" x="173.5" y="-114.8" font-family="Helvetica,sans-Serif" font-size="11.00" fill="#000000">&lt; 2</text>
<polygon fill="#ffffff" stroke="transparent" points="236.5,-108.7 236.5,-127.7 293.5,-127.7 293.5,-108.7 236.5,-108.7"/>
<polygon fill="none" stroke="#000000" points="236.5,-108.7 236.5,-127.7 293.5,-127.7 293.5,-108.7 236.5,-108.7"/>
<text text-anchor="start" x="284.3862" y="-114.8" font-family="Helvetica,sans-Serif" font-size="11.00" fill="#000000"> &#160;</text>
<polygon fill="#ffffff" stroke="transparent" points="293.5,-108.7 293.5,-127.7 471.5,-127.7 471.5,-108.7 293.5,-108.7"/>
<polygon fill="none" stroke="#000000" points="293.5,-108.7 293.5,-127.7 471.5,-127.7 471.5,-108.7 293.5,-108.7"/>
<text text-anchor="start" x="452.9053" y="-114.8" font-family="Helvetica,sans-Serif" font-size="11.00" fill="#000000">0 &gt;</text>
<polygon fill="none" stroke="#000000" stroke-width="2" points="169,-107.7 169,-217.7 472,-217.7 472,-107.7 169,-107.7"/>
</a>
</g>
</g>
<!-- accounts -->
<g id="node2" class="node">
<title>accounts</title>
<g id="a_node2"><a xlink:href="../../tables/accounts.html" xlink:title="accounts" target="_top">
<polygon fill="#ffffff" stroke="transparent" points="8,-38.2 8,-143.2 119,-143.2 119,-38.2 8,-38.2"/>
<polygon fill="#f5f5f5" stroke="transparent" points="8.5,-119.7 8.5,-142.7 119.5,-142.7 119.5,-119.7 8.5,-119.7"/>
<polygon fill="none" stroke="#000000" points="8.5,-119.7 8.5,-142.7 119.5,-142.7 119.5,-119.7 8.5,-119.7"/>
<text text-anchor="start" x="13.5" y="-128.3" font-family="Helvetica,sans-Serif" font-weight="bold" font-size="11.00" fill="#000000">accounts</text>
<text text-anchor="start" x="84.5437" y="-127.8" font-family="Helvetica,sans-Serif" font-size="11.00" fill="#000000">[table]</text>
<polygon fill="none" stroke="#000000" points="8.5,-97.7 8.5,-119.7 119.5,-119.7 119.5,-97.7 8.5,-97.7"/>
<image xlink:href="../../images/primaryKeys.png" width="11px" height="12px" preserveAspectRatio="xMinYMin meet" x="13.5" y="-114.7"/>
<text text-anchor="start" x="28.5" y="-104.8" font-family="Helvetica,sans-Serif" font-size="11.00" fill="#000000">id</text>
<polygon fill="#ffffff" stroke="transparent" points="8.5,-75.7 8.5,-97.7 119.5,-97.7 119.5,-75.7 8.5,-75.7"/>
<polygon fill="none" stroke="#000000" points="8.5,-75.7 8.5,-97.7 119.5,-97.7 119.5,-75.7 8.5,-75.7"/>
<text text-anchor="start" x="28.5" y="-82.8" font-family="Helvetica,sans-Serif" font-size="11.00" fill="#000000">link</text>
<polygon fill="none" stroke="#000000" points="8.5,-56.7 8.5,-75.7 119.5,-75.7 119.5,-56.7 8.5,-56.7"/>
<text text-anchor="start" x="11.5" y="-62.8" font-family="Helvetica,sans-Serif" font-size="11.00" fill="#000000">...</text>
<polygon fill="#ffffff" stroke="transparent" points="8.5,-37.7 8.5,-56.7 53.5,-56.7 53.5,-37.7 8.5,-37.7"/>
<polygon fill="none" stroke="#000000" points="8.5,-37.7 8.5,-56.7 53.5,-56.7 53.5,-37.7 8.5,-37.7"/>
<text text-anchor="start" x="11.5" y="-43.8" font-family="Helvetica,sans-Serif" font-size="11.00" fill="#000000"> &#160;</text>
<polygon fill="#ffffff" stroke="transparent" points="53.5,-37.7 53.5,-56.7 81.5,-56.7 81.5,-37.7 53.5,-37.7"/>
<polygon fill="none" stroke="#000000" points="53.5,-37.7 53.5,-56.7 81.5,-56.7 81.5,-37.7 53.5,-37.7"/>
<text text-anchor="start" x="72.3862" y="-43.8" font-family="Helvetica,sans-Serif" font-size="11.00" fill="#000000"> &#160;</text>
<polygon fill="#ffffff" stroke="transparent" points="81.5,-37.7 81.5,-56.7 119.5,-56.7 119.5,-37.7 81.5,-37.7"/>
<polygon fill="none" stroke="#000000" points="81.5,-37.7 81.5,-56.7 119.5,-56.7 119.5,-37.7 81.5,-37.7"/>
<text text-anchor="start" x="100.9053" y="-43.8" font-family="Helvetica,sans-Serif" font-size="11.00" fill="#000000">3 &gt;</text>
</a>
</g>
</g>
<!-- user_in_accounts&#45;&gt;accounts -->
<g id="edge1" class="edge">
<title>user_in_accounts:w&#45;&gt;accounts:e</title>
<path fill="none" stroke="#000000" d="M156.5468,-155.9012C141.661,-143.0281 145.8017,-108.7 119.5,-108.7"/>
<polygon fill="#000000" stroke="#000000" points="162.9349,-158.0982 169.3292,-164.1043 166.7175,-159.3991 170.5,-160.7 170.5,-160.7 170.5,-160.7 166.7175,-159.3991 171.6708,-157.2957 162.9349,-158.0982 162.9349,-158.0982"/>
<ellipse fill="none" stroke="#000000" cx="159.9089" cy="-157.0574" rx="3.2" ry="3.2"/>
</g>
<!-- users -->
<g id="node3" class="node">
<title>users</title>
<g id="a_node3"><a xlink:href="../../tables/users.html" xlink:title="users" target="_top">
<polygon fill="#ffffff" stroke="transparent" points="8,-164.2 8,-269.2 119,-269.2 119,-164.2 8,-164.2"/>
<polygon fill="#f5f5f5" stroke="transparent" points="8.5,-245.7 8.5,-268.7 119.5,-268.7 119.5,-245.7 8.5,-245.7"/>
<polygon fill="none" stroke="#000000" points="8.5,-245.7 8.5,-268.7 119.5,-268.7 119.5,-245.7 8.5,-245.7"/>
<text text-anchor="start" x="13.5" y="-254.3" font-family="Helvetica,sans-Serif" font-weight="bold" font-size="11.00" fill="#000000">users</text>
<text text-anchor="start" x="84.5437" y="-253.8" font-family="Helvetica,sans-Serif" font-size="11.00" fill="#000000">[table]</text>
<polygon fill="none" stroke="#000000" points="8.5,-223.7 8.5,-245.7 119.5,-245.7 119.5,-223.7 8.5,-223.7"/>
<image xlink:href="../../images/primaryKeys.png" width="11px" height="12px" preserveAspectRatio="xMinYMin meet" x="13.5" y="-240.7"/>
<text text-anchor="start" x="28.5" y="-230.8" font-family="Helvetica,sans-Serif" font-size="11.00" fill="#000000">id</text>
<polygon fill="#ffffff" stroke="transparent" points="8.5,-201.7 8.5,-223.7 119.5,-223.7 119.5,-201.7 8.5,-201.7"/>
<polygon fill="none" stroke="#000000" points="8.5,-201.7 8.5,-223.7 119.5,-223.7 119.5,-201.7 8.5,-201.7"/>
<text text-anchor="start" x="28.5" y="-208.8" font-family="Helvetica,sans-Serif" font-size="11.00" fill="#000000">email</text>
<polygon fill="none" stroke="#000000" points="8.5,-182.7 8.5,-201.7 119.5,-201.7 119.5,-182.7 8.5,-182.7"/>
<text text-anchor="start" x="11.5" y="-188.8" font-family="Helvetica,sans-Serif" font-size="11.00" fill="#000000">...</text>
<polygon fill="#ffffff" stroke="transparent" points="8.5,-163.7 8.5,-182.7 53.5,-182.7 53.5,-163.7 8.5,-163.7"/>
<polygon fill="none" stroke="#000000" points="8.5,-163.7 8.5,-182.7 53.5,-182.7 53.5,-163.7 8.5,-163.7"/>
<text text-anchor="start" x="11.5" y="-169.8" font-family="Helvetica,sans-Serif" font-size="11.00" fill="#000000"> &#160;</text>
<polygon fill="#ffffff" stroke="transparent" points="53.5,-163.7 53.5,-182.7 81.5,-182.7 81.5,-163.7 53.5,-163.7"/>
<polygon fill="none" stroke="#000000" points="53.5,-163.7 53.5,-182.7 81.5,-182.7 81.5,-163.7 53.5,-163.7"/>
<text text-anchor="start" x="72.3862" y="-169.8" font-family="Helvetica,sans-Serif" font-size="11.00" fill="#000000"> &#160;</text>
<polygon fill="#ffffff" stroke="transparent" points="81.5,-163.7 81.5,-182.7 119.5,-182.7 119.5,-163.7 81.5,-163.7"/>
<polygon fill="none" stroke="#000000" points="81.5,-163.7 81.5,-182.7 119.5,-182.7 119.5,-163.7 81.5,-163.7"/>
<text text-anchor="start" x="100.9053" y="-169.8" font-family="Helvetica,sans-Serif" font-size="11.00" fill="#000000">1 &gt;</text>
</a>
</g>
</g>
<!-- user_in_accounts&#45;&gt;users -->
<g id="edge2" class="edge">
<title>user_in_accounts:w&#45;&gt;users:e</title>
<path fill="none" stroke="#000000" d="M156.5468,-187.4988C141.661,-200.3719 145.8017,-234.7 119.5,-234.7"/>
<polygon fill="#000000" stroke="#000000" points="162.9349,-185.3018 171.6708,-186.1043 166.7175,-184.0009 170.5,-182.7 170.5,-182.7 170.5,-182.7 166.7175,-184.0009 169.3292,-179.2957 162.9349,-185.3018 162.9349,-185.3018"/>
<ellipse fill="none" stroke="#000000" cx="159.9089" cy="-186.3426" rx="3.2" ry="3.2"/>
</g>
</g>
</svg>
