<?xml version="1.0" encoding="UTF-8" standalone="no"?>
<!DOCTYPE svg PUBLIC "-//W3C//DTD SVG 1.1//EN"
 "http://www.w3.org/Graphics/SVG/1.1/DTD/svg11.dtd">
<!-- Generated by graphviz version 2.40.1 (20161225.0304)
 -->
<!-- Title: twoDegreesRelationshipsDiagram Pages: 1 -->
<svg width="423pt" height="289pt"
 viewBox="0.00 0.00 423.00 288.70" xmlns="http://www.w3.org/2000/svg" xmlns:xlink="http://www.w3.org/1999/xlink">
<g id="graph0" class="graph" transform="scale(1 1) rotate(0) translate(4 284.7)">
<title>twoDegreesRelationshipsDiagram</title>
<polygon fill="#ffffff" stroke="transparent" points="-4,4 -4,-284.7 419,-284.7 419,4 -4,4"/>
<text text-anchor="middle" x="72.4936" y="-7.3" font-family="Helvetica,sans-Serif" font-size="11.00" fill="#000000">Generated by SchemaSpy</text>
<!-- user_in_accounts -->
<g id="node1" class="node">
<title>user_in_accounts</title>
<g id="a_node1"><a xlink:href="../../tables/user_in_accounts.html" xlink:title="user_in_accounts" target="_top">
<polygon fill="#ffffff" stroke="transparent" points="266,-93.2 266,-198.2 407,-198.2 407,-93.2 266,-93.2"/>
<polygon fill="#f5f5f5" stroke="transparent" points="266.5,-174.7 266.5,-197.7 407.5,-197.7 407.5,-174.7 266.5,-174.7"/>
<polygon fill="none" stroke="#000000" points="266.5,-174.7 266.5,-197.7 407.5,-197.7 407.5,-174.7 266.5,-174.7"/>
<text text-anchor="start" x="271.5" y="-183.3" font-family="Helvetica,sans-Serif" font-weight="bold" font-size="11.00" fill="#000000">user_in_accounts</text>
<text text-anchor="start" x="373.0219" y="-182.8" font-family="Helvetica,sans-Serif" font-size="11.00" fill="#000000">[table]</text>
<polygon fill="none" stroke="#000000" points="266.5,-152.7 266.5,-174.7 407.5,-174.7 407.5,-152.7 266.5,-152.7"/>
<image xlink:href="../../images/primaryKeys.png" width="11px" height="12px" preserveAspectRatio="xMinYMin meet" x="271.5" y="-169.7"/>
<text text-anchor="start" x="295.5" y="-159.8" font-family="Helvetica,sans-Serif" font-size="11.00" fill="#000000">user_id</text>
<polygon fill="none" stroke="#000000" points="266.5,-130.7 266.5,-152.7 407.5,-152.7 407.5,-130.7 266.5,-130.7"/>
<image xlink:href="../../images/primaryKeys.png" width="11px" height="12px" preserveAspectRatio="xMinYMin meet" x="271.5" y="-147.7"/>
<text text-anchor="start" x="295.5" y="-137.8" font-family="Helvetica,sans-Serif" font-size="11.00" fill="#000000">account_id</text>
<polygon fill="none" stroke="#000000" points="266.5,-111.7 266.5,-130.7 407.5,-130.7 407.5,-111.7 266.5,-111.7"/>
<text text-anchor="start" x="269.5" y="-117.8" font-family="Helvetica,sans-Serif" font-size="11.00" fill="#000000">...</text>
<polygon fill="#ffffff" stroke="transparent" points="266.5,-92.7 266.5,-111.7 335.5,-111.7 335.5,-92.7 266.5,-92.7"/>
<polygon fill="none" stroke="#000000" points="266.5,-92.7 266.5,-111.7 335.5,-111.7 335.5,-92.7 266.5,-92.7"/>
<text text-anchor="start" x="269.5" y="-98.8" font-family="Helvetica,sans-Serif" font-size="11.00" fill="#000000">&lt; 2</text>
<polygon fill="#ffffff" stroke="transparent" points="335.5,-92.7 335.5,-111.7 371.5,-111.7 371.5,-92.7 335.5,-92.7"/>
<polygon fill="none" stroke="#000000" points="335.5,-92.7 335.5,-111.7 371.5,-111.7 371.5,-92.7 335.5,-92.7"/>
<text text-anchor="start" x="362.3862" y="-98.8" font-family="Helvetica,sans-Serif" font-size="11.00" fill="#000000"> &#160;</text>
<polygon fill="#ffffff" stroke="transparent" points="371.5,-92.7 371.5,-111.7 407.5,-111.7 407.5,-92.7 371.5,-92.7"/>
<polygon fill="none" stroke="#000000" points="371.5,-92.7 371.5,-111.7 407.5,-111.7 407.5,-92.7 371.5,-92.7"/>
<text text-anchor="start" x="398.3862" y="-98.8" font-family="Helvetica,sans-Serif" font-size="11.00" fill="#000000"> &#160;</text>
</a>
</g>
</g>
<!-- accounts -->
<g id="node2" class="node">
<title>accounts</title>
<g id="a_node2"><a xlink:href="../../tables/accounts.html" xlink:title="accounts" target="_top">
<polygon fill="#ffffff" stroke="transparent" points="66.5,-38.2 66.5,-99.2 158.5,-99.2 158.5,-38.2 66.5,-38.2"/>
<polygon fill="#f5f5f5" stroke="transparent" points="66.5,-75.7 66.5,-98.7 158.5,-98.7 158.5,-75.7 66.5,-75.7"/>
<polygon fill="none" stroke="#000000" points="66.5,-75.7 66.5,-98.7 158.5,-98.7 158.5,-75.7 66.5,-75.7"/>
<text text-anchor="start" x="71.5" y="-84.3" font-family="Helvetica,sans-Serif" font-weight="bold" font-size="11.00" fill="#000000">accounts</text>
<text text-anchor="start" x="124.0219" y="-83.8" font-family="Helvetica,sans-Serif" font-size="11.00" fill="#000000">[table]</text>
<polygon fill="none" stroke="#000000" points="66.5,-56.7 66.5,-75.7 158.5,-75.7 158.5,-56.7 66.5,-56.7"/>
<text text-anchor="start" x="69.5" y="-62.8" font-family="Helvetica,sans-Serif" font-size="11.00" fill="#000000">...</text>
<polygon fill="#ffffff" stroke="transparent" points="66.5,-37.7 66.5,-56.7 101.5,-56.7 101.5,-37.7 66.5,-37.7"/>
<polygon fill="none" stroke="#000000" points="66.5,-37.7 66.5,-56.7 101.5,-56.7 101.5,-37.7 66.5,-37.7"/>
<text text-anchor="start" x="69.5" y="-43.8" font-family="Helvetica,sans-Serif" font-size="11.00" fill="#000000"> &#160;</text>
<polygon fill="#ffffff" stroke="transparent" points="101.5,-37.7 101.5,-56.7 125.5,-56.7 125.5,-37.7 101.5,-37.7"/>
<polygon fill="none" stroke="#000000" points="101.5,-37.7 101.5,-56.7 125.5,-56.7 125.5,-37.7 101.5,-37.7"/>
<text text-anchor="start" x="116.3862" y="-43.8" font-family="Helvetica,sans-Serif" font-size="11.00" fill="#000000"> &#160;</text>
<polygon fill="#ffffff" stroke="transparent" points="125.5,-37.7 125.5,-56.7 158.5,-56.7 158.5,-37.7 125.5,-37.7"/>
<polygon fill="none" stroke="#000000" points="125.5,-37.7 125.5,-56.7 158.5,-56.7 158.5,-37.7 125.5,-37.7"/>
<text text-anchor="start" x="139.9053" y="-43.8" font-family="Helvetica,sans-Serif" font-size="11.00" fill="#000000">3 &gt;</text>
</a>
</g>
</g>
<!-- user_in_accounts&#45;&gt;accounts -->
<g id="edge1" class="edge">
<title>user_in_accounts:w&#45;&gt;accounts:e</title>
<path fill="none" stroke="#000000" d="M252.2069,-138.2317C242.212,-132.2426 238.9139,-119.6478 225,-109.7 196.1709,-89.0885 193.9394,-65.7 158.5,-65.7"/>
<polygon fill="#000000" stroke="#000000" points="258.7256,-139.8135 265.6511,-145.1985 262.6128,-140.7567 266.5,-141.7 266.5,-141.7 266.5,-141.7 262.6128,-140.7567 267.3489,-138.2015 258.7256,-139.8135 258.7256,-139.8135"/>
<ellipse fill="none" stroke="#000000" cx="255.6159" cy="-139.0588" rx="3.2" ry="3.2"/>
</g>
<!-- users -->
<g id="node3" class="node">
<title>users</title>
<g id="a_node3"><a xlink:href="../../tables/users.html" xlink:title="users" target="_top">
<polygon fill="#ffffff" stroke="transparent" points="8,-120.7 8,-276.7 217,-276.7 217,-120.7 8,-120.7"/>
<polygon fill="#f5f5f5" stroke="transparent" points="10.5,-251.7 10.5,-274.7 215.5,-274.7 215.5,-251.7 10.5,-251.7"/>
<polygon fill="none" stroke="#000000" points="10.5,-251.7 10.5,-274.7 215.5,-274.7 215.5,-251.7 10.5,-251.7"/>
<text text-anchor="start" x="15.5" y="-260.3" font-family="Helvetica,sans-Serif" font-weight="bold" font-size="11.00" fill="#000000">users</text>
<text text-anchor="start" x="180.5437" y="-259.8" font-family="Helvetica,sans-Serif" font-size="11.00" fill="#000000">[table]</text>
<polygon fill="none" stroke="#000000" points="10.5,-229.7 10.5,-251.7 121.5,-251.7 121.5,-229.7 10.5,-229.7"/>
<image xlink:href="../../images/primaryKeys.png" width="11px" height="12px" preserveAspectRatio="xMinYMin meet" x="15.5" y="-246.7"/>
<text text-anchor="start" x="30.5" y="-236.8" font-family="Helvetica,sans-Serif" font-size="11.00" fill="#000000">id</text>
<polygon fill="none" stroke="#000000" points="121.5,-229.7 121.5,-251.7 215.5,-251.7 215.5,-229.7 121.5,-229.7"/>
<text text-anchor="start" x="124.4758" y="-237.4" font-family="Helvetica,sans-Serif" font-size="11.00" fill="#000000">uuid[2147483647]</text>
<polygon fill="#ffffff" stroke="transparent" points="10.5,-207.7 10.5,-229.7 121.5,-229.7 121.5,-207.7 10.5,-207.7"/>
<polygon fill="none" stroke="#000000" points="10.5,-207.7 10.5,-229.7 121.5,-229.7 121.5,-207.7 10.5,-207.7"/>
<text text-anchor="start" x="30.5" y="-214.8" font-family="Helvetica,sans-Serif" font-size="11.00" fill="#000000">email</text>
<polygon fill="none" stroke="#000000" points="121.5,-207.7 121.5,-229.7 215.5,-229.7 215.5,-207.7 121.5,-207.7"/>
<text text-anchor="start" x="124.5" y="-215.4" font-family="Helvetica,sans-Serif" font-size="11.00" fill="#000000">text[2147483647]</text>
<polygon fill="none" stroke="#000000" points="10.5,-185.7 10.5,-207.7 121.5,-207.7 121.5,-185.7 10.5,-185.7"/>
<text text-anchor="start" x="30.5" y="-192.8" font-family="Helvetica,sans-Serif" font-size="11.00" fill="#000000">name</text>
<polygon fill="none" stroke="#000000" points="121.5,-185.7 121.5,-207.7 215.5,-207.7 215.5,-185.7 121.5,-185.7"/>
<text text-anchor="start" x="124.5" y="-193.4" font-family="Helvetica,sans-Serif" font-size="11.00" fill="#000000">text[2147483647]</text>
<polygon fill="none" stroke="#000000" points="10.5,-163.7 10.5,-185.7 121.5,-185.7 121.5,-163.7 10.5,-163.7"/>
<text text-anchor="start" x="30.5" y="-170.8" font-family="Helvetica,sans-Serif" font-size="11.00" fill="#000000">password</text>
<polygon fill="none" stroke="#000000" points="121.5,-163.7 121.5,-185.7 215.5,-185.7 215.5,-163.7 121.5,-163.7"/>
<text text-anchor="start" x="124.5" y="-171.4" font-family="Helvetica,sans-Serif" font-size="11.00" fill="#000000">text[2147483647]</text>
<polygon fill="none" stroke="#000000" points="10.5,-141.7 10.5,-163.7 121.5,-163.7 121.5,-141.7 10.5,-141.7"/>
<text text-anchor="start" x="30.5" y="-148.8" font-family="Helvetica,sans-Serif" font-size="11.00" fill="#000000">utc_created_on</text>
<polygon fill="none" stroke="#000000" points="121.5,-141.7 121.5,-163.7 215.5,-163.7 215.5,-141.7 121.5,-141.7"/>
<text text-anchor="start" x="124.5" y="-149.4" font-family="Helvetica,sans-Serif" font-size="11.00" fill="#000000">timestamp[29,6]</text>
<polygon fill="#ffffff" stroke="transparent" points="10.5,-122.7 10.5,-141.7 70.5,-141.7 70.5,-122.7 10.5,-122.7"/>
<polygon fill="none" stroke="#000000" points="10.5,-122.7 10.5,-141.7 70.5,-141.7 70.5,-122.7 10.5,-122.7"/>
<text text-anchor="start" x="13.5" y="-128.8" font-family="Helvetica,sans-Serif" font-size="11.00" fill="#000000">&lt; 0</text>
<polygon fill="#ffffff" stroke="transparent" points="70.5,-122.7 70.5,-141.7 121.5,-141.7 121.5,-122.7 70.5,-122.7"/>
<polygon fill="none" stroke="#000000" points="70.5,-122.7 70.5,-141.7 121.5,-141.7 121.5,-122.7 70.5,-122.7"/>
<text text-anchor="start" x="112.3862" y="-128.8" font-family="Helvetica,sans-Serif" font-size="11.00" fill="#000000"> &#160;</text>
<polygon fill="#ffffff" stroke="transparent" points="121.5,-122.7 121.5,-141.7 215.5,-141.7 215.5,-122.7 121.5,-122.7"/>
<polygon fill="none" stroke="#000000" points="121.5,-122.7 121.5,-141.7 215.5,-141.7 215.5,-122.7 121.5,-122.7"/>
<text text-anchor="start" x="196.9053" y="-128.8" font-family="Helvetica,sans-Serif" font-size="11.00" fill="#000000">1 &gt;</text>
<polygon fill="none" stroke="#000000" stroke-width="2" points="9,-121.7 9,-275.7 216,-275.7 216,-121.7 9,-121.7"/>
</a>
</g>
</g>
<!-- user_in_accounts&#45;&gt;users -->
<g id="edge2" class="edge">
<title>user_in_accounts:w&#45;&gt;users:e</title>
<path fill="none" stroke="#000000" d="M252.5177,-168.2861C233.094,-184.8628 250.4549,-240.7 215.5,-240.7"/>
<polygon fill="#000000" stroke="#000000" points="258.8984,-166.1933 267.622,-167.1207 262.6992,-164.9466 266.5,-163.7 266.5,-163.7 266.5,-163.7 262.6992,-164.9466 265.378,-160.2793 258.8984,-166.1933 258.8984,-166.1933"/>
<ellipse fill="none" stroke="#000000" cx="255.8578" cy="-167.1906" rx="3.2" ry="3.2"/>
</g>
</g>
</svg>
