<?xml version="1.0" encoding="UTF-8" standalone="no"?>
<!DOCTYPE svg PUBLIC "-//W3C//DTD SVG 1.1//EN"
 "http://www.w3.org/Graphics/SVG/1.1/DTD/svg11.dtd">
<!-- Generated by graphviz version 2.40.1 (20161225.0304)
 -->
<!-- Title: orphans Pages: 1 -->
<svg width="240pt" height="261pt"
 viewBox="0.00 0.00 240.00 261.00" xmlns="http://www.w3.org/2000/svg" xmlns:xlink="http://www.w3.org/1999/xlink">
<g id="graph0" class="graph" transform="scale(1 1) rotate(0) translate(4 257)">
<title>orphans</title>
<polygon fill="#ffffff" stroke="transparent" points="-4,4 -4,-257 236,-257 236,4 -4,4"/>
<!-- knex_migrations -->
<g id="node1" class="node">
<title>knex_migrations</title>
<g id="a_node1"><a xlink:href="../../tables/knex_migrations.html" xlink:title="knex_migrations" target="_top">
<polygon fill="#ffffff" stroke="transparent" points="8,-4 8,-138 224,-138 224,-4 8,-4"/>
<polygon fill="#f5f5f5" stroke="transparent" points="10,-113 10,-136 222,-136 222,-113 10,-113"/>
<polygon fill="none" stroke="#000000" points="10,-113 10,-136 222,-136 222,-113 10,-113"/>
<text text-anchor="start" x="15" y="-121.6" font-family="Helvetica,sans-Serif" font-weight="bold" font-size="11.00" fill="#000000">knex_migrations</text>
<text text-anchor="start" x="187.0437" y="-121.1" font-family="Helvetica,sans-Serif" font-size="11.00" fill="#000000">[table]</text>
<polygon fill="none" stroke="#000000" points="10,-91 10,-113 130,-113 130,-91 10,-91"/>
<image xlink:href="../../images/primaryKeys.png" width="11px" height="12px" preserveAspectRatio="xMinYMin meet" x="15" y="-108"/>
<text text-anchor="start" x="30" y="-98.1" font-family="Helvetica,sans-Serif" font-size="11.00" fill="#000000">id</text>
<polygon fill="none" stroke="#000000" points="130,-91 130,-113 222,-113 222,-91 130,-91"/>
<text text-anchor="start" x="133" y="-98.7" font-family="Helvetica,sans-Serif" font-size="11.00" fill="#000000">serial[10]</text>
<polygon fill="none" stroke="#000000" points="10,-69 10,-91 130,-91 130,-69 10,-69"/>
<text text-anchor="start" x="30" y="-76.1" font-family="Helvetica,sans-Serif" font-size="11.00" fill="#000000">name</text>
<polygon fill="none" stroke="#000000" points="130,-69 130,-91 222,-91 222,-69 130,-69"/>
<text text-anchor="start" x="133" y="-76.7" font-family="Helvetica,sans-Serif" font-size="11.00" fill="#000000">varchar[255]</text>
<polygon fill="none" stroke="#000000" points="10,-47 10,-69 130,-69 130,-47 10,-47"/>
<text text-anchor="start" x="30" y="-54.1" font-family="Helvetica,sans-Serif" font-size="11.00" fill="#000000">batch</text>
<polygon fill="none" stroke="#000000" points="130,-47 130,-69 222,-69 222,-47 130,-47"/>
<text text-anchor="start" x="133" y="-54.7" font-family="Helvetica,sans-Serif" font-size="11.00" fill="#000000">int4[10]</text>
<polygon fill="none" stroke="#000000" points="10,-25 10,-47 130,-47 130,-25 10,-25"/>
<text text-anchor="start" x="30" y="-32.1" font-family="Helvetica,sans-Serif" font-size="11.00" fill="#000000">migration_time</text>
<polygon fill="none" stroke="#000000" points="130,-25 130,-47 222,-47 222,-25 130,-25"/>
<text text-anchor="start" x="132.6023" y="-32.7" font-family="Helvetica,sans-Serif" font-size="11.00" fill="#000000">timestamptz[35,6]</text>
<polygon fill="#ffffff" stroke="transparent" points="10,-6 10,-25 74,-25 74,-6 10,-6"/>
<polygon fill="none" stroke="#000000" points="10,-6 10,-25 74,-25 74,-6 10,-6"/>
<text text-anchor="start" x="13" y="-12.1" font-family="Helvetica,sans-Serif" font-size="11.00" fill="#000000">&lt; 0</text>
<polygon fill="#ffffff" stroke="transparent" points="74,-6 74,-25 130,-25 130,-6 74,-6"/>
<polygon fill="none" stroke="#000000" points="74,-6 74,-25 130,-25 130,-6 74,-6"/>
<text text-anchor="start" x="120.8862" y="-12.1" font-family="Helvetica,sans-Serif" font-size="11.00" fill="#000000"> &#160;</text>
<polygon fill="#ffffff" stroke="transparent" points="130,-6 130,-25 222,-25 222,-6 130,-6"/>
<polygon fill="none" stroke="#000000" points="130,-6 130,-25 222,-25 222,-6 130,-6"/>
<text text-anchor="start" x="203.4053" y="-12.1" font-family="Helvetica,sans-Serif" font-size="11.00" fill="#000000">0 &gt;</text>
<polygon fill="none" stroke="#000000" stroke-width="2" points="9,-5 9,-137 223,-137 223,-5 9,-5"/>
</a>
</g>
</g>
<!-- knex_migrations_lock -->
<g id="node2" class="node">
<title>knex_migrations_lock</title>
<g id="a_node2"><a xlink:href="../../tables/knex_migrations_lock.html" xlink:title="knex_migrations_lock" target="_top">
<polygon fill="#ffffff" stroke="transparent" points="14.5,-159 14.5,-249 217.5,-249 217.5,-159 14.5,-159"/>
<polygon fill="#f5f5f5" stroke="transparent" points="17,-224 17,-247 216,-247 216,-224 17,-224"/>
<polygon fill="none" stroke="#000000" points="17,-224 17,-247 216,-247 216,-224 17,-224"/>
<text text-anchor="start" x="22" y="-232.6" font-family="Helvetica,sans-Serif" font-weight="bold" font-size="11.00" fill="#000000">knex_migrations_lock</text>
<text text-anchor="start" x="181.0437" y="-232.1" font-family="Helvetica,sans-Serif" font-size="11.00" fill="#000000">[table]</text>
<polygon fill="none" stroke="#000000" points="17,-202 17,-224 166,-224 166,-202 17,-202"/>
<image xlink:href="../../images/primaryKeys.png" width="11px" height="12px" preserveAspectRatio="xMinYMin meet" x="22" y="-219"/>
<text text-anchor="start" x="37" y="-209.1" font-family="Helvetica,sans-Serif" font-size="11.00" fill="#000000">index</text>
<polygon fill="none" stroke="#000000" points="166,-202 166,-224 216,-224 216,-202 166,-202"/>
<text text-anchor="start" x="168.6915" y="-209.7" font-family="Helvetica,sans-Serif" font-size="11.00" fill="#000000">serial[10]</text>
<polygon fill="none" stroke="#000000" points="17,-180 17,-202 166,-202 166,-180 17,-180"/>
<text text-anchor="start" x="37" y="-187.1" font-family="Helvetica,sans-Serif" font-size="11.00" fill="#000000">is_locked</text>
<polygon fill="none" stroke="#000000" points="166,-180 166,-202 216,-202 216,-180 166,-180"/>
<text text-anchor="start" x="169" y="-187.7" font-family="Helvetica,sans-Serif" font-size="11.00" fill="#000000">int4[10]</text>
<polygon fill="#ffffff" stroke="transparent" points="17,-161 17,-180 96,-180 96,-161 17,-161"/>
<polygon fill="none" stroke="#000000" points="17,-161 17,-180 96,-180 96,-161 17,-161"/>
<text text-anchor="start" x="20" y="-167.1" font-family="Helvetica,sans-Serif" font-size="11.00" fill="#000000">&lt; 0</text>
<polygon fill="#ffffff" stroke="transparent" points="96,-161 96,-180 166,-180 166,-161 96,-161"/>
<polygon fill="none" stroke="#000000" points="96,-161 96,-180 166,-180 166,-161 96,-161"/>
<text text-anchor="start" x="156.8862" y="-167.1" font-family="Helvetica,sans-Serif" font-size="11.00" fill="#000000"> &#160;</text>
<polygon fill="#ffffff" stroke="transparent" points="166,-161 166,-180 216,-180 216,-161 166,-161"/>
<polygon fill="none" stroke="#000000" points="166,-161 166,-180 216,-180 216,-161 166,-161"/>
<text text-anchor="start" x="197.4053" y="-167.1" font-family="Helvetica,sans-Serif" font-size="11.00" fill="#000000">0 &gt;</text>
<polygon fill="none" stroke="#000000" stroke-width="2" points="15.5,-160 15.5,-248 216.5,-248 216.5,-160 15.5,-160"/>
</a>
</g>
</g>
</g>
</svg>
